<svg width="21" height="24" viewBox="0 0 21 24" fill="none" xmlns="http://www.w3.org/2000/svg">
<path d="M7.52259 4.83728C7.15175 5.09693 6.64371 5.45252 6.64371 6.17688C6.64371 6.4358 6.84657 6.64563 7.09687 6.64563C7.34717 6.64563 7.55003 6.4358 7.55003 6.17688C7.55003 5.97052 7.68899 5.85279 8.03045 5.61383C8.40147 5.35419 8.90951 4.9986 8.90951 4.27405C8.90951 3.5495 8.40147 3.19409 8.03045 2.93445C7.68899 2.6955 7.55003 2.57776 7.55003 2.3714C7.55003 2.16504 7.68899 2.0473 8.03045 1.80835C8.40147 1.54871 8.90951 1.1933 8.90951 0.46875C8.90951 0.210022 8.70647 0 8.45635 0C8.20605 0 8.00319 0.210022 8.00319 0.46875C8.00319 0.67511 7.86406 0.792847 7.52259 1.0318C7.15175 1.29144 6.64371 1.64685 6.64371 2.3714C6.64371 3.09595 7.15157 3.45136 7.52259 3.711C7.86406 3.94995 8.00319 4.06769 8.00319 4.27423C8.00319 4.48059 7.86406 4.59833 7.52259 4.83728Z" fill="#BD9B60"/>
<path d="M10.6487 4.83728C10.2778 5.09693 9.76979 5.45233 9.76979 6.17688C9.76979 6.4358 9.97265 6.64563 10.223 6.64563C10.4733 6.64563 10.6761 6.4358 10.6761 6.17688C10.6761 5.97052 10.8151 5.85279 11.1565 5.61383C11.5276 5.35419 12.0356 4.9986 12.0356 4.27405C12.0356 3.5495 11.5276 3.19409 11.1565 2.93445C10.8151 2.6955 10.6759 2.57776 10.6759 2.3714C10.6759 2.16504 10.8151 2.0473 11.1565 1.80835C11.5276 1.54871 12.0356 1.19312 12.0356 0.46875C12.0356 0.209839 11.8326 0 11.5824 0C11.3321 0 11.1293 0.209839 11.1293 0.46875C11.1293 0.674927 10.9901 0.792847 10.6487 1.0318C10.2777 1.29144 9.76962 1.64685 9.76962 2.3714C9.76962 3.09577 10.2777 3.45136 10.6487 3.71082C10.9901 3.94995 11.1293 4.06769 11.1293 4.27405C11.1293 4.48059 10.9903 4.59833 10.6487 4.83728Z" fill="#BD9B60"/>
<path d="M13.7748 4.83728C13.4039 5.09693 12.8959 5.45252 12.8959 6.17688C12.8959 6.4358 13.0987 6.64563 13.349 6.64563C13.5993 6.64563 13.8022 6.4358 13.8022 6.17688C13.8022 5.97052 13.9413 5.85279 14.2828 5.61383C14.6536 5.35419 15.1617 4.9986 15.1617 4.27405C15.1617 3.5495 14.6536 3.19409 14.2828 2.93445C13.9413 2.6955 13.8022 2.57776 13.8022 2.3714C13.8022 2.16504 13.9413 2.0473 14.2828 1.80835C14.6536 1.54871 15.1617 1.1933 15.1617 0.46875C15.1617 0.210022 14.9586 0 14.7085 0C14.4582 0 14.2553 0.210022 14.2553 0.46875C14.2553 0.67511 14.1162 0.792847 13.7748 1.0318C13.4039 1.29144 12.8959 1.64685 12.8959 2.3714C12.8959 3.09595 13.4039 3.45136 13.7748 3.711C14.1162 3.94995 14.2553 4.06769 14.2553 4.27423C14.2553 4.48059 14.1162 4.59833 13.7748 4.83728Z" fill="#BD9B60"/>
<path d="M20.5468 10.7552H18.8891C18.9413 10.4218 18.9753 10.0823 18.9898 9.73754C19.5118 9.54894 19.8875 9.03478 19.8875 8.43127C19.8875 7.66845 19.2874 7.04772 18.5498 7.04772H2.45024C1.71262 7.04772 1.11272 7.66845 1.11272 8.43127C1.11272 9.03478 1.48817 9.54894 2.01018 9.73754C2.02487 10.0823 2.05886 10.4218 2.1109 10.7551H0.453158C0.202859 10.7551 0 10.9651 0 11.2238C0 11.4827 0.202859 11.6926 0.453158 11.6926H2.30916C2.93349 14.0215 4.46308 15.9648 6.47981 17.0896L5.40763 19.1711C5.40692 19.1724 5.40639 19.1735 5.40568 19.1748L3.40311 23.0625H2.71364C2.46334 23.0625 2.26048 23.2725 2.26048 23.5313C2.26048 23.7902 2.46334 24 2.71364 24H4.63655C4.88685 24 5.08971 23.7902 5.08971 23.5313C5.08971 23.2725 4.88685 23.0625 4.63655 23.0625H4.42998L6.07728 19.8649H15.0307L16.6778 23.0625H16.3634C16.1133 23.0625 15.9103 23.2725 15.9103 23.5313C15.9103 23.7902 16.1133 24 16.3634 24H18.2864C18.5367 24 18.7395 23.7902 18.7395 23.5313C18.7395 23.2725 18.5367 23.0625 18.2864 23.0625H17.7049L15.7019 19.1746C15.7014 19.1735 15.7009 19.1724 15.7003 19.1713L14.6036 17.0424C16.5791 15.9108 18.0752 13.9893 18.6908 11.6927H20.5468C20.797 11.6927 21 11.4827 21 11.224C21 10.9651 20.7971 10.7552 20.5468 10.7552ZM6.56018 18.9274L7.30045 17.49C8.28873 17.907 9.3687 18.1373 10.5 18.1373C11.6651 18.1373 12.7761 17.8934 13.7881 17.4525L14.5478 18.9274H6.56018ZM10.5 17.1998C6.46565 17.1998 3.156 13.9283 2.92092 9.815H18.0791C17.844 13.9283 14.5345 17.1998 10.5 17.1998ZM18.5498 8.87749H2.45024C2.21251 8.87749 2.01903 8.67736 2.01903 8.43127C2.01903 8.18536 2.21251 7.98522 2.45024 7.98522H18.5498C18.7877 7.98522 18.9811 8.18536 18.9811 8.43127C18.9811 8.67736 18.7877 8.87749 18.5498 8.87749Z" fill="#BD9B60"/>
<path d="M10.5 16.3749C12.8536 16.3749 15.0073 15.1391 16.2615 13.0693C16.3944 12.85 16.3303 12.5607 16.1181 12.4231C15.906 12.2856 15.6263 12.3521 15.4936 12.5715C14.4062 14.3659 12.5395 15.4374 10.5 15.4374C10.2497 15.4374 10.0468 15.6473 10.0468 15.9062C10.0468 16.1649 10.2497 16.3749 10.5 16.3749Z" fill="#BD9B60"/>
<path d="M16.1885 11.2853C16.2623 11.4682 16.4438 11.5864 16.6353 11.5737C16.8169 11.5616 16.9764 11.4347 17.0355 11.2568C17.0989 11.0661 17.0322 10.8462 16.8743 10.728C16.7284 10.6185 16.5287 10.6086 16.374 10.7041C16.1839 10.8217 16.1034 11.0737 16.1885 11.2853Z" fill="#BD9B60"/>
</svg>
