<svg width="22" height="21" viewBox="0 0 22 21" fill="none" xmlns="http://www.w3.org/2000/svg">
<path d="M21.6306 17.9073C21.2407 17.6385 20.7052 17.7345 20.4346 18.1218C19.3456 19.6802 16.1758 19.6811 15.0862 18.1218C14.9256 17.892 14.6619 17.7549 14.3802 17.7549C14.0985 17.7549 13.8348 17.892 13.6742 18.1218C12.5852 19.6802 9.41541 19.6811 8.32577 18.1218C8.16515 17.892 7.90145 17.7549 7.61979 17.7549C7.33814 17.7549 7.0744 17.892 6.91382 18.1218C5.82478 19.6802 2.65504 19.6811 1.5654 18.1218C1.29474 17.7345 0.759225 17.6385 0.369415 17.9073C-0.0204817 18.1761 -0.117161 18.708 0.153498 19.0953C1.73122 21.353 5.5454 21.5974 7.61979 19.8615C9.44402 21.388 12.5773 21.3701 14.3802 19.8615C16.454 21.597 20.2701 21.351 21.8464 19.0953C22.1171 18.708 22.0204 18.1761 21.6306 17.9073Z" fill="#BD9B60"/>
<path d="M4.21103 13.0601C4.68566 13.0601 5.0704 12.6779 5.0704 12.2065V10.9261H12.8047V12.2065C12.8047 12.6779 13.1894 13.0601 13.6641 13.0601C14.1387 13.0601 14.5234 12.6779 14.5234 12.2065V2.90227C14.5234 2.24333 15.0631 1.70723 15.7266 1.70723C16.3899 1.70723 16.9297 2.24333 16.9297 2.90227C16.9297 3.3737 17.3144 3.75588 17.789 3.75588C18.2637 3.75588 18.6484 3.3737 18.6484 2.90227C18.6484 1.30196 17.3377 0 15.7266 0C14.1155 0 12.8047 1.30196 12.8047 2.90227V5.37771H5.0704V2.90227C5.0704 2.24333 5.61009 1.70723 6.27352 1.70723C6.93695 1.70723 7.47664 2.24333 7.47664 2.90227C7.47664 3.3737 7.86138 3.75588 8.33601 3.75588C8.81064 3.75588 9.19538 3.3737 9.19538 2.90227C9.19534 1.30196 7.88463 0 6.27352 0C4.66242 0 3.35166 1.30196 3.35166 2.90227V12.2065C3.35166 12.6779 3.7364 13.0601 4.21103 13.0601ZM5.0704 7.0849H12.8047V9.21892H5.0704V7.0849Z" fill="#BD9B60"/>
<path d="M7.61992 16.0203C8.48509 16.7443 9.68503 17.1574 11.0001 17.1574C12.3151 17.1574 13.515 16.7443 14.3802 16.0203C16.4541 17.7558 20.2702 17.5098 21.8465 15.2541C22.1172 14.8668 22.0205 14.3349 21.6306 14.0661C21.2407 13.7973 20.7052 13.8933 20.4346 14.2806C19.3456 15.839 16.1758 15.8399 15.0862 14.2806C14.9256 14.0508 14.6619 13.9137 14.3802 13.9137C14.0985 13.9137 13.8348 14.0508 13.6742 14.2806C12.5852 15.839 9.41541 15.8399 8.32577 14.2806C8.16515 14.0508 7.90145 13.9137 7.61979 13.9137C7.33814 13.9137 7.0744 14.0508 6.91382 14.2806C5.82478 15.839 2.65504 15.8399 1.5654 14.2806C1.29474 13.8933 0.759225 13.7973 0.369415 14.0661C-0.0204817 14.3349 -0.117161 14.8668 0.153498 15.2541C1.73122 17.5118 5.5454 17.7562 7.61992 16.0203Z" fill="#BD9B60"/>
</svg>
