<svg width="306" height="60" viewBox="0 0 306 60" fill="none" xmlns="http://www.w3.org/2000/svg">
<g filter="url(#filter0_d)">
<path d="M8 12.8451C8 9.32678 8 7.56763 8.70638 6.2335C9.27642 5.15688 10.1569 4.27642 11.2335 3.70638C12.5676 3 14.3268 3 17.8451 3H288.155C291.673 3 293.432 3 294.767 3.70638C295.843 4.27642 296.724 5.15688 297.294 6.2335C298 7.56763 298 9.32678 298 12.8451V38.0359C298 41.5542 298 43.3133 297.294 44.6474C296.724 45.7241 295.843 46.6045 294.767 47.1746C293.432 47.8809 291.673 47.8809 288.155 47.8809H17.8451C14.3268 47.8809 12.5676 47.8809 11.2335 47.1746C10.1569 46.6045 9.27642 45.7241 8.70638 44.6474C8 43.3133 8 41.5542 8 38.0359V12.8451Z" fill="url(#paint0_linear)"/>
</g>
<path d="M9.61133 14.3411C9.61133 10.8228 9.61133 9.06366 10.3177 7.72954C10.8878 6.65291 11.7682 5.77246 12.8448 5.20241C14.179 4.49603 15.9381 4.49603 19.4564 4.49603H286.544C290.062 4.49603 291.821 4.49603 293.156 5.20241C294.232 5.77246 295.113 6.65291 295.683 7.72954C296.389 9.06366 296.389 10.8228 296.389 14.3411V36.5398C296.389 40.0581 296.389 41.8173 295.683 43.1514C295.113 44.228 294.232 45.1085 293.156 45.6785C291.821 46.3849 290.062 46.3849 286.544 46.3849H19.4564C15.9381 46.3849 14.179 46.3849 12.8448 45.6785C11.7682 45.1085 10.8878 44.228 10.3177 43.1514C9.61133 41.8173 9.61133 40.0581 9.61133 36.5398V14.3411Z" fill="url(#paint1_linear)"/>
<path d="M9.61133 14.3411C9.61133 10.8228 9.61133 9.06366 10.3177 7.72954C10.8878 6.65291 11.7682 5.77246 12.8448 5.20241C14.179 4.49603 15.9381 4.49603 19.4564 4.49603H286.544C290.062 4.49603 291.821 4.49603 293.156 5.20241C294.232 5.77246 295.113 6.65291 295.683 7.72954C296.389 9.06366 296.389 10.8228 296.389 14.3411V36.5398C296.389 40.0581 296.389 41.8173 295.683 43.1514C295.113 44.228 294.232 45.1085 293.156 45.6785C291.821 46.3849 290.062 46.3849 286.544 46.3849H19.4564C15.9381 46.3849 14.179 46.3849 12.8448 45.6785C11.7682 45.1085 10.8878 44.228 10.3177 43.1514C9.61133 41.8173 9.61133 40.0581 9.61133 36.5398V14.3411Z" fill="url(#paint2_linear)"/>
<path d="M40.4973 26.8783V29.2705H32.9329V26.8783H31.479V29.9737C31.479 30.3619 31.804 30.6766 32.207 30.6766H41.2232C41.6259 30.6766 41.9512 30.3622 41.9512 29.9737V26.8783H40.4973Z" fill="white"/>
<path d="M36.582 26.6411L34.5005 24.208C34.5005 24.208 34.1838 23.9188 34.5272 23.9188C34.8707 23.9188 35.7002 23.9188 35.7002 23.9188C35.7002 23.9188 35.7002 23.7242 35.7002 23.4242C35.7002 22.5686 35.7002 21.0117 35.7002 20.3769C35.7002 20.3769 35.6536 20.2044 35.9223 20.2044C36.1931 20.2044 37.3794 20.2044 37.5733 20.2044C37.7669 20.2044 37.7625 20.3497 37.7625 20.3497C37.7625 20.9652 37.7625 22.576 37.7625 23.4035C37.7625 23.6718 37.7625 23.8458 37.7625 23.8458C37.7625 23.8458 38.4277 23.8458 38.8452 23.8458C39.2619 23.8458 38.9481 24.1487 38.9481 24.1487C38.9481 24.1487 37.1772 26.4228 36.9301 26.6614C36.7525 26.8343 36.582 26.6411 36.582 26.6411Z" fill="white"/>
<path d="M65.2412 17.8342L62.0314 23.8016C61.7226 24.376 61.3492 24.8105 60.9111 25.1049C60.4803 25.3993 60.0099 25.5465 59.5001 25.5465C59.1051 25.5465 58.6958 25.4604 58.2721 25.288L58.6922 23.9631C58.9938 24.0565 59.2451 24.1032 59.4462 24.1032C59.6616 24.1032 59.8555 24.0529 60.0279 23.9524C60.2002 23.8446 60.3582 23.6795 60.5018 23.4569L60.5664 23.3707L57.5935 17.8342H59.457L61.4605 21.8842L63.5286 17.8342H65.2412ZM72.0258 21.4426C72.4638 21.5934 72.8049 21.8304 73.0491 22.1535C73.3004 22.4695 73.4261 22.8393 73.4261 23.263C73.4261 23.7226 73.2753 24.1211 72.9737 24.4586C72.6721 24.7961 72.2628 25.0546 71.7458 25.2342C71.2359 25.4137 70.6758 25.5034 70.0654 25.5034C69.5484 25.5034 69.0314 25.4388 68.5143 25.3096C68.0045 25.1803 67.5198 24.9828 67.0602 24.7171L67.5988 23.4676C67.9291 23.6687 68.2917 23.8231 68.6867 23.9308C69.0888 24.0313 69.4802 24.0816 69.8608 24.0816C70.3778 24.0816 70.805 23.9883 71.1426 23.8016C71.4872 23.6148 71.6596 23.3527 71.6596 23.0152C71.6596 22.7352 71.5411 22.5233 71.3041 22.3797C71.0743 22.2361 70.7584 22.1643 70.3562 22.1643H68.5143V20.8502H70.227C70.5788 20.8502 70.8517 20.7784 71.0456 20.6348C71.2467 20.4911 71.3472 20.2937 71.3472 20.0423C71.3472 19.7479 71.2036 19.5181 70.9164 19.353C70.6363 19.1878 70.2737 19.1052 69.8284 19.1052C69.4981 19.1052 69.157 19.1519 68.8052 19.2452C68.4533 19.3314 68.1194 19.4643 67.8034 19.6438L67.2756 18.2866C68.0727 17.8773 68.9344 17.6726 69.8608 17.6726C70.4496 17.6726 70.9918 17.7588 71.4872 17.9311C71.9827 18.1035 72.3777 18.3548 72.6721 18.6851C72.9665 19.0154 73.1137 19.3996 73.1137 19.8377C73.1137 20.1967 73.0168 20.5163 72.8229 20.7963C72.629 21.0764 72.3633 21.2918 72.0258 21.4426ZM83.3385 17.8342V25.3742H81.5935V22.2828H78.1682V25.3742H76.4232V17.8342H78.1682V20.8071H81.5935V17.8342H83.3385ZM91.949 23.7585H88.4483L87.7805 25.3742H85.9924L89.3531 17.8342H91.0765L94.448 25.3742H92.6168L91.949 23.7585ZM91.3997 22.4336L90.204 19.5468L89.0084 22.4336H91.3997ZM102.448 19.256H100.035V25.3742H98.3114V19.256H95.9093V17.8342H102.448V19.256ZM108.81 20.3116C109.73 20.3116 110.433 20.5163 110.922 20.9256C111.417 21.3349 111.665 21.9417 111.665 22.746C111.665 23.6005 111.392 24.254 110.846 24.7064C110.308 25.1516 109.547 25.3742 108.563 25.3742H105.159V17.8342H106.893V20.3116H108.81ZM108.466 24.0816C108.918 24.0816 109.27 23.9703 109.521 23.7477C109.78 23.5251 109.909 23.2019 109.909 22.7783C109.909 21.9955 109.428 21.6042 108.466 21.6042H106.893V24.0816H108.466ZM122.802 25.5034C122.019 25.5034 121.312 25.3347 120.68 24.9972C120.055 24.6597 119.563 24.1965 119.204 23.6077C118.852 23.0116 118.676 22.3438 118.676 21.6042C118.676 20.8645 118.852 20.2003 119.204 19.6115C119.563 19.0154 120.055 18.5487 120.68 18.2112C121.312 17.8737 122.019 17.7049 122.802 17.7049C123.584 17.7049 124.288 17.8737 124.913 18.2112C125.538 18.5487 126.029 19.0154 126.388 19.6115C126.747 20.2003 126.927 20.8645 126.927 21.6042C126.927 22.3438 126.747 23.0116 126.388 23.6077C126.029 24.1965 125.538 24.6597 124.913 24.9972C124.288 25.3347 123.584 25.5034 122.802 25.5034ZM122.802 24.017C123.247 24.017 123.649 23.9164 124.008 23.7154C124.367 23.5071 124.647 23.2199 124.848 22.8537C125.056 22.4874 125.161 22.0709 125.161 21.6042C125.161 21.1374 125.056 20.7209 124.848 20.3547C124.647 19.9885 124.367 19.7048 124.008 19.5038C123.649 19.2955 123.247 19.1914 122.802 19.1914C122.356 19.1914 121.954 19.2955 121.595 19.5038C121.236 19.7048 120.952 19.9885 120.744 20.3547C120.543 20.7209 120.443 21.1374 120.443 21.6042C120.443 22.0709 120.543 22.4874 120.744 22.8537C120.952 23.2199 121.236 23.5071 121.595 23.7154C121.954 23.9164 122.356 24.017 122.802 24.017ZM139.777 21.4426C140.237 21.579 140.589 21.8017 140.833 22.1104C141.077 22.4192 141.199 22.7998 141.199 23.2522C141.199 23.92 140.944 24.4407 140.434 24.8141C139.932 25.1875 139.21 25.3742 138.269 25.3742H134.553V17.8342H138.065C138.941 17.8342 139.623 18.0029 140.111 18.3404C140.6 18.6779 140.844 19.1591 140.844 19.7838C140.844 20.1572 140.75 20.4875 140.564 20.7748C140.377 21.0548 140.115 21.2774 139.777 21.4426ZM136.287 20.9579H137.914C138.294 20.9579 138.582 20.8825 138.776 20.7317C138.969 20.5737 139.066 20.3439 139.066 20.0423C139.066 19.7479 138.966 19.5217 138.765 19.3637C138.571 19.2057 138.287 19.1268 137.914 19.1268H136.287V20.9579ZM138.205 24.0816C139.023 24.0816 139.433 23.7585 139.433 23.1122C139.433 22.4874 139.023 22.1751 138.205 22.1751H136.287V24.0816H138.205ZM147.76 25.5034C146.992 25.5034 146.295 25.3383 145.671 25.008C145.053 24.6704 144.565 24.2073 144.206 23.6184C143.854 23.0224 143.678 22.351 143.678 21.6042C143.678 20.8574 143.854 20.1895 144.206 19.6007C144.565 19.0047 145.053 18.5415 145.671 18.2112C146.295 17.8737 146.995 17.7049 147.771 17.7049C148.424 17.7049 149.013 17.8198 149.538 18.0496C150.069 18.2794 150.514 18.6097 150.873 19.0406L149.753 20.0746C149.243 19.4858 148.611 19.1914 147.857 19.1914C147.39 19.1914 146.974 19.2955 146.608 19.5038C146.241 19.7048 145.954 19.9885 145.746 20.3547C145.545 20.7209 145.444 21.1374 145.444 21.6042C145.444 22.0709 145.545 22.4874 145.746 22.8537C145.954 23.2199 146.241 23.5071 146.608 23.7154C146.974 23.9164 147.39 24.017 147.857 24.017C148.611 24.017 149.243 23.719 149.753 23.123L150.873 24.157C150.514 24.595 150.069 24.929 149.538 25.1588C149.006 25.3885 148.414 25.5034 147.76 25.5034ZM159.464 23.9739V25.3742H153.626V17.8342H159.324V19.2345H155.36V20.8717H158.861V22.2289H155.36V23.9739H159.464ZM163.773 17.8342L165.335 20.1177L166.897 17.8342H168.943L166.434 21.4426L169.148 25.3742H167.091L165.335 22.8752L163.601 25.3742H161.586L164.279 21.518L161.759 17.8342H163.773ZM181.695 21.4426C182.155 21.579 182.507 21.8017 182.751 22.1104C182.995 22.4192 183.117 22.7998 183.117 23.2522C183.117 23.92 182.862 24.4407 182.352 24.8141C181.85 25.1875 181.128 25.3742 180.187 25.3742H176.471V17.8342H179.983C180.859 17.8342 181.541 18.0029 182.029 18.3404C182.518 18.6779 182.762 19.1591 182.762 19.7838C182.762 20.1572 182.668 20.4875 182.482 20.7748C182.295 21.0548 182.033 21.2774 181.695 21.4426ZM178.205 20.9579H179.832C180.213 20.9579 180.5 20.8825 180.694 20.7317C180.888 20.5737 180.985 20.3439 180.985 20.0423C180.985 19.7479 180.884 19.5217 180.683 19.3637C180.489 19.2057 180.205 19.1268 179.832 19.1268H178.205V20.9579ZM180.123 24.0816C180.941 24.0816 181.351 23.7585 181.351 23.1122C181.351 22.4874 180.941 22.1751 180.123 22.1751H178.205V24.0816H180.123ZM189.765 20.3116C190.684 20.3116 191.387 20.5163 191.876 20.9256C192.371 21.3349 192.619 21.9417 192.619 22.746C192.619 23.6005 192.346 24.254 191.8 24.7064C191.262 25.1516 190.501 25.3742 189.517 25.3742H186.113V17.8342H187.847V20.3116H189.765ZM189.42 24.0816C189.872 24.0816 190.224 23.9703 190.475 23.7477C190.734 23.5251 190.863 23.2019 190.863 22.7783C190.863 21.9955 190.382 21.6042 189.42 21.6042H187.847V24.0816H189.42ZM193.578 17.8342H195.312V25.3742H193.578V17.8342ZM204.116 19.256H200.529L200.539 25.3742H198.805V17.8342H204.126L204.116 19.256ZM209.636 25.5034C208.853 25.5034 208.146 25.3347 207.514 24.9972C206.889 24.6597 206.397 24.1965 206.038 23.6077C205.686 23.0116 205.51 22.3438 205.51 21.6042C205.51 20.8645 205.686 20.2003 206.038 19.6115C206.397 19.0154 206.889 18.5487 207.514 18.2112C208.146 17.8737 208.853 17.7049 209.636 17.7049C210.418 17.7049 211.122 17.8737 211.747 18.2112C212.372 18.5487 212.864 19.0154 213.223 19.6115C213.582 20.2003 213.761 20.8645 213.761 21.6042C213.761 22.3438 213.582 23.0116 213.223 23.6077C212.864 24.1965 212.372 24.6597 211.747 24.9972C211.122 25.3347 210.418 25.5034 209.636 25.5034ZM209.636 24.017C210.081 24.017 210.483 23.9164 210.842 23.7154C211.201 23.5071 211.481 23.2199 211.682 22.8537C211.89 22.4874 211.995 22.0709 211.995 21.6042C211.995 21.1374 211.89 20.7209 211.682 20.3547C211.481 19.9885 211.201 19.7048 210.842 19.5038C210.483 19.2955 210.081 19.1914 209.636 19.1914C209.19 19.1914 208.788 19.2955 208.429 19.5038C208.07 19.7048 207.787 19.9885 207.578 20.3547C207.377 20.7209 207.277 21.1374 207.277 21.6042C207.277 22.0709 207.377 22.4874 207.578 22.8537C207.787 23.2199 208.07 23.5071 208.429 23.7154C208.788 23.9164 209.19 24.017 209.636 24.017ZM224.288 23.9524V26.936H222.672V25.3742H217.351V26.936H215.735L215.746 23.9524H216.048C216.5 23.938 216.819 23.6077 217.006 22.9614C217.193 22.3151 217.308 21.3923 217.351 20.1931L217.437 17.8342H223.232V23.9524H224.288ZM218.891 20.3547C218.855 21.2523 218.78 22.0063 218.665 22.6167C218.55 23.2199 218.374 23.6651 218.137 23.9524H221.509V19.256H218.924L218.891 20.3547ZM232.247 23.7585H228.746L228.078 25.3742H226.29L229.651 17.8342H231.374L234.746 25.3742H232.915L232.247 23.7585ZM231.697 22.4336L230.502 19.5468L229.306 22.4336H231.697ZM238.329 17.8342L239.891 20.1177L241.453 17.8342H243.5L240.99 21.4426L243.704 25.3742H241.647L239.891 22.8752L238.157 25.3742H236.143L238.836 21.518L236.315 17.8342H238.329Z" fill="white"/>
<path d="M63.1467 30.2947V36.1591H62.5351V30.8308H58.8238V36.1591H58.2122V30.2947H63.1467ZM66.8011 36.201C66.3766 36.201 65.994 36.1061 65.6533 35.9162C65.3126 35.7207 65.0445 35.4526 64.849 35.1119C64.6536 34.7712 64.5558 34.3858 64.5558 33.9558C64.5558 33.5257 64.6536 33.1403 64.849 32.7996C65.0445 32.4589 65.3126 32.1936 65.6533 32.0037C65.994 31.8138 66.3766 31.7189 66.8011 31.7189C67.2255 31.7189 67.6081 31.8138 67.9488 32.0037C68.2895 32.1936 68.5548 32.4589 68.7447 32.7996C68.9402 33.1403 69.0379 33.5257 69.0379 33.9558C69.0379 34.3858 68.9402 34.7712 68.7447 35.1119C68.5548 35.4526 68.2895 35.7207 67.9488 35.9162C67.6081 36.1061 67.2255 36.201 66.8011 36.201ZM66.8011 35.6732C67.1138 35.6732 67.3931 35.6034 67.6388 35.4638C67.8902 35.3185 68.0857 35.1147 68.2253 34.8522C68.3649 34.5897 68.4347 34.2909 68.4347 33.9558C68.4347 33.6206 68.3649 33.3218 68.2253 33.0593C68.0857 32.7968 67.8902 32.5958 67.6388 32.4561C67.3931 32.3109 67.1138 32.2383 66.8011 32.2383C66.4883 32.2383 66.2062 32.3109 65.9549 32.4561C65.7092 32.5958 65.5137 32.7968 65.3685 33.0593C65.2288 33.3218 65.159 33.6206 65.159 33.9558C65.159 34.2909 65.2288 34.5897 65.3685 34.8522C65.5137 35.1147 65.7092 35.3185 65.9549 35.4638C66.2062 35.6034 66.4883 35.6732 66.8011 35.6732ZM72.1523 36.201C71.7167 36.201 71.3257 36.1061 70.9794 35.9162C70.6387 35.7263 70.3706 35.461 70.1752 35.1203C69.9797 34.774 69.8819 34.3858 69.8819 33.9558C69.8819 33.5257 69.9797 33.1403 70.1752 32.7996C70.3706 32.4589 70.6387 32.1936 70.9794 32.0037C71.3257 31.8138 71.7167 31.7189 72.1523 31.7189C72.5321 31.7189 72.87 31.7943 73.166 31.9451C73.4676 32.0903 73.705 32.3053 73.8781 32.5902L73.4341 32.8918C73.2889 32.674 73.1046 32.512 72.8812 32.4059C72.6578 32.2942 72.4148 32.2383 72.1523 32.2383C71.834 32.2383 71.5463 32.3109 71.2894 32.4561C71.0381 32.5958 70.8398 32.7968 70.6946 33.0593C70.5549 33.3218 70.4851 33.6206 70.4851 33.9558C70.4851 34.2965 70.5549 34.5981 70.6946 34.8606C70.8398 35.1175 71.0381 35.3185 71.2894 35.4638C71.5463 35.6034 71.834 35.6732 72.1523 35.6732C72.4148 35.6732 72.6578 35.6201 72.8812 35.514C73.1046 35.4079 73.2889 35.2459 73.4341 35.0281L73.8781 35.3297C73.705 35.6146 73.4676 35.8324 73.166 35.9832C72.8644 36.1284 72.5265 36.201 72.1523 36.201ZM79.956 31.7524V36.1591H79.4115V32.674L77.627 35.6229H77.3589L75.5744 32.6656V36.1591H75.0299V31.7524H75.6331L77.5013 34.9276L79.4031 31.7524H79.956ZM83.4666 36.201C83.0422 36.201 82.6596 36.1061 82.3189 35.9162C81.9782 35.7207 81.7101 35.4526 81.5146 35.1119C81.3191 34.7712 81.2214 34.3858 81.2214 33.9558C81.2214 33.5257 81.3191 33.1403 81.5146 32.7996C81.7101 32.4589 81.9782 32.1936 82.3189 32.0037C82.6596 31.8138 83.0422 31.7189 83.4666 31.7189C83.8911 31.7189 84.2737 31.8138 84.6144 32.0037C84.9551 32.1936 85.2204 32.4589 85.4103 32.7996C85.6058 33.1403 85.7035 33.5257 85.7035 33.9558C85.7035 34.3858 85.6058 34.7712 85.4103 35.1119C85.2204 35.4526 84.9551 35.7207 84.6144 35.9162C84.2737 36.1061 83.8911 36.201 83.4666 36.201ZM83.4666 35.6732C83.7794 35.6732 84.0587 35.6034 84.3044 35.4638C84.5557 35.3185 84.7512 35.1147 84.8909 34.8522C85.0305 34.5897 85.1003 34.2909 85.1003 33.9558C85.1003 33.6206 85.0305 33.3218 84.8909 33.0593C84.7512 32.7968 84.5557 32.5958 84.3044 32.4561C84.0587 32.3109 83.7794 32.2383 83.4666 32.2383C83.1539 32.2383 82.8718 32.3109 82.6205 32.4561C82.3747 32.5958 82.1792 32.7968 82.034 33.0593C81.8944 33.3218 81.8246 33.6206 81.8246 33.9558C81.8246 34.2909 81.8944 34.5897 82.034 34.8522C82.1792 35.1147 82.3747 35.3185 82.6205 35.4638C82.8718 35.6034 83.1539 35.6732 83.4666 35.6732ZM89.9109 32.2802H88.2437V36.1591H87.6489V32.2802H85.9817V31.7524H89.9109V32.2802ZM93.0413 31.7189C93.4546 31.7189 93.8288 31.8138 94.1639 32.0037C94.4991 32.188 94.7616 32.4505 94.9515 32.7912C95.1413 33.1319 95.2363 33.5201 95.2363 33.9558C95.2363 34.397 95.1413 34.7879 94.9515 35.1286C94.7616 35.4693 94.4991 35.7346 94.1639 35.9245C93.8344 36.1088 93.4602 36.201 93.0413 36.201C92.6839 36.201 92.3599 36.1284 92.0695 35.9832C91.7847 35.8324 91.5501 35.6146 91.3658 35.3297V37.7844H90.7709V31.7524H91.3406V32.6237C91.5194 32.3333 91.7539 32.1099 92.0444 31.9535C92.3404 31.7971 92.6727 31.7189 93.0413 31.7189ZM92.9994 35.6732C93.3066 35.6732 93.5859 35.6034 93.8372 35.4638C94.0885 35.3185 94.284 35.1147 94.4237 34.8522C94.5689 34.5897 94.6415 34.2909 94.6415 33.9558C94.6415 33.6206 94.5689 33.3246 94.4237 33.0677C94.284 32.8052 94.0885 32.6013 93.8372 32.4561C93.5859 32.3109 93.3066 32.2383 92.9994 32.2383C92.6867 32.2383 92.4046 32.3109 92.1533 32.4561C91.9075 32.6013 91.712 32.8052 91.5668 33.0677C91.4272 33.3246 91.3574 33.6206 91.3574 33.9558C91.3574 34.2909 91.4272 34.5897 91.5668 34.8522C91.712 35.1147 91.9075 35.3185 92.1533 35.4638C92.4046 35.6034 92.6867 35.6732 92.9994 35.6732ZM100.368 34.1401H96.6819C96.7154 34.5981 96.8913 34.9695 97.2097 35.2543C97.528 35.5336 97.9301 35.6732 98.4161 35.6732C98.6897 35.6732 98.9411 35.6257 99.1701 35.5308C99.399 35.4302 99.5973 35.285 99.7649 35.0951L100.1 35.4805C99.9045 35.7151 99.6588 35.8938 99.3627 36.0167C99.0723 36.1396 98.7512 36.201 98.3993 36.201C97.9469 36.201 97.5448 36.1061 97.1929 35.9162C96.8466 35.7207 96.5757 35.4526 96.3803 35.1119C96.1848 34.7712 96.087 34.3858 96.087 33.9558C96.087 33.5257 96.1792 33.1403 96.3635 32.7996C96.5534 32.4589 96.8103 32.1936 97.1343 32.0037C97.4638 31.8138 97.8324 31.7189 98.2401 31.7189C98.6478 31.7189 99.0137 31.8138 99.3376 32.0037C99.6616 32.1936 99.9157 32.4589 100.1 32.7996C100.284 33.1347 100.376 33.5201 100.376 33.9558L100.368 34.1401ZM98.2401 32.2299C97.8156 32.2299 97.4582 32.3668 97.1678 32.6404C96.8829 32.9085 96.721 33.2604 96.6819 33.696H99.8068C99.7677 33.2604 99.6029 32.9085 99.3125 32.6404C99.0276 32.3668 98.6702 32.2299 98.2401 32.2299ZM104.597 32.2802H102.929V36.1591H102.335V32.2802H100.667V31.7524H104.597V32.2802ZM107.35 33.3107C107.903 33.3163 108.322 33.4391 108.607 33.6793C108.897 33.9195 109.042 34.2657 109.042 34.7181C109.042 35.1873 108.886 35.5475 108.573 35.7989C108.266 36.0502 107.819 36.1731 107.233 36.1675L105.457 36.1591V31.7524H106.051V33.2939L107.35 33.3107ZM107.199 35.7151C107.607 35.7207 107.914 35.6397 108.121 35.4721C108.333 35.299 108.439 35.0477 108.439 34.7181C108.439 34.3942 108.336 34.154 108.129 33.9976C107.922 33.8413 107.612 33.7603 107.199 33.7547L106.051 33.7379V35.6983L107.199 35.7151ZM116.324 31.7524V36.1591H115.729V32.2802H112.965V36.1591H112.37V31.7524H116.324ZM121.618 31.7524V36.1591H121.023V32.2802H118.912L118.853 33.3693C118.808 34.2853 118.702 34.989 118.535 35.4805C118.367 35.972 118.068 36.2178 117.638 36.2178C117.521 36.2178 117.378 36.1954 117.211 36.1507L117.253 35.6397C117.353 35.662 117.423 35.6732 117.462 35.6732C117.691 35.6732 117.864 35.5671 117.982 35.3548C118.099 35.1426 118.177 34.8801 118.216 34.5673C118.255 34.2546 118.289 33.8413 118.317 33.3274L118.392 31.7524H121.618ZM124.825 31.7189C125.4 31.7189 125.841 31.8641 126.149 32.1545C126.456 32.4394 126.609 32.8639 126.609 33.428V36.1591H126.04V35.4721C125.906 35.7011 125.707 35.8799 125.445 36.0083C125.188 36.1368 124.881 36.201 124.523 36.201C124.032 36.201 123.641 36.0837 123.35 35.8491C123.06 35.6146 122.915 35.3046 122.915 34.9192C122.915 34.545 123.049 34.2434 123.317 34.0144C123.591 33.7854 124.023 33.6709 124.615 33.6709H126.014V33.4028C126.014 33.023 125.908 32.7354 125.696 32.5399C125.484 32.3388 125.174 32.2383 124.766 32.2383C124.487 32.2383 124.219 32.2858 123.962 32.3807C123.705 32.4701 123.484 32.5958 123.3 32.7577L123.032 32.3137C123.255 32.1238 123.523 31.9786 123.836 31.8781C124.149 31.7719 124.479 31.7189 124.825 31.7189ZM124.615 35.7318C124.951 35.7318 125.238 35.6564 125.478 35.5056C125.718 35.3493 125.897 35.1259 126.014 34.8354V34.1149H124.632C123.878 34.1149 123.501 34.3774 123.501 34.9024C123.501 35.1594 123.599 35.3632 123.794 35.514C123.99 35.6592 124.264 35.7318 124.615 35.7318ZM128.193 31.7524H128.788V33.7044H131.561V31.7524H132.155V36.1591H131.561V34.2155H128.788V36.1591H128.193V31.7524ZM133.846 31.7524H134.441V35.2543L137.382 31.7524H137.909V36.1591H137.315V32.6572L134.382 36.1591H133.846V31.7524ZM141.884 31.7189C142.298 31.7189 142.672 31.8138 143.007 32.0037C143.342 32.188 143.605 32.4505 143.795 32.7912C143.984 33.1319 144.079 33.5201 144.079 33.9558C144.079 34.397 143.984 34.7879 143.795 35.1286C143.605 35.4693 143.342 35.7346 143.007 35.9245C142.678 36.1088 142.303 36.201 141.884 36.201C141.527 36.201 141.203 36.1284 140.913 35.9832C140.628 35.8324 140.393 35.6146 140.209 35.3297V37.7844H139.614V31.7524H140.184V32.6237C140.362 32.3333 140.597 32.1099 140.887 31.9535C141.183 31.7971 141.516 31.7189 141.884 31.7189ZM141.843 35.6732C142.15 35.6732 142.429 35.6034 142.68 35.4638C142.932 35.3185 143.127 35.1147 143.267 34.8522C143.412 34.5897 143.485 34.2909 143.485 33.9558C143.485 33.6206 143.412 33.3246 143.267 33.0677C143.127 32.8052 142.932 32.6013 142.68 32.4561C142.429 32.3109 142.15 32.2383 141.843 32.2383C141.53 32.2383 141.248 32.3109 140.996 32.4561C140.751 32.6013 140.555 32.8052 140.41 33.0677C140.27 33.3246 140.2 33.6206 140.2 33.9558C140.2 34.2909 140.27 34.5897 140.41 34.8522C140.555 35.1147 140.751 35.3185 140.996 35.4638C141.248 35.6034 141.53 35.6732 141.843 35.6732ZM147.175 36.201C146.751 36.201 146.368 36.1061 146.028 35.9162C145.687 35.7207 145.419 35.4526 145.223 35.1119C145.028 34.7712 144.93 34.3858 144.93 33.9558C144.93 33.5257 145.028 33.1403 145.223 32.7996C145.419 32.4589 145.687 32.1936 146.028 32.0037C146.368 31.8138 146.751 31.7189 147.175 31.7189C147.6 31.7189 147.982 31.8138 148.323 32.0037C148.664 32.1936 148.929 32.4589 149.119 32.7996C149.315 33.1403 149.412 33.5257 149.412 33.9558C149.412 34.3858 149.315 34.7712 149.119 35.1119C148.929 35.4526 148.664 35.7207 148.323 35.9162C147.982 36.1061 147.6 36.201 147.175 36.201ZM147.175 35.6732C147.488 35.6732 147.767 35.6034 148.013 35.4638C148.264 35.3185 148.46 35.1147 148.6 34.8522C148.739 34.5897 148.809 34.2909 148.809 33.9558C148.809 33.6206 148.739 33.3218 148.6 33.0593C148.46 32.7968 148.264 32.5958 148.013 32.4561C147.767 32.3109 147.488 32.2383 147.175 32.2383C146.863 32.2383 146.581 32.3109 146.329 32.4561C146.083 32.5958 145.888 32.7968 145.743 33.0593C145.603 33.3218 145.533 33.6206 145.533 33.9558C145.533 34.2909 145.603 34.5897 145.743 34.8522C145.888 35.1147 146.083 35.3185 146.329 35.4638C146.581 35.6034 146.863 35.6732 147.175 35.6732ZM153.49 33.8804C154.088 34.02 154.386 34.3802 154.386 34.9611C154.386 35.3465 154.244 35.6425 153.959 35.8491C153.674 36.0558 153.25 36.1591 152.686 36.1591H150.684V31.7524H152.627C153.13 31.7524 153.524 31.8501 153.808 32.0456C154.093 32.2411 154.236 32.5204 154.236 32.8834C154.236 33.1236 154.169 33.3302 154.035 33.5034C153.906 33.6709 153.725 33.7966 153.49 33.8804ZM151.262 33.7128H152.585C152.926 33.7128 153.186 33.6486 153.364 33.5201C153.549 33.3917 153.641 33.2045 153.641 32.9588C153.641 32.7131 153.549 32.5287 153.364 32.4059C153.186 32.283 152.926 32.2216 152.585 32.2216H151.262V33.7128ZM152.661 35.69C153.04 35.69 153.325 35.6285 153.515 35.5056C153.705 35.3828 153.8 35.1901 153.8 34.9276C153.8 34.6651 153.713 34.4724 153.54 34.3495C153.367 34.2211 153.094 34.1568 152.719 34.1568H151.262V35.69H152.661ZM157.381 34.1987H156.375V36.1591H155.781V31.7524H156.375V33.6877H157.389L158.939 31.7524H159.584L157.85 33.8887L159.71 36.1591H159.006L157.381 34.1987ZM160.648 31.7524H161.243V35.2543L164.184 31.7524H164.712V36.1591H164.117V32.6572L161.185 36.1591H160.648V31.7524Z" fill="white" fill-opacity="0.7"/>
<defs>
<filter id="filter0_d" x="0.819048" y="0.606349" width="304.362" height="59.2429" filterUnits="userSpaceOnUse" color-interpolation-filters="sRGB">
<feFlood flood-opacity="0" result="BackgroundImageFix"/>
<feColorMatrix in="SourceAlpha" type="matrix" values="0 0 0 0 0 0 0 0 0 0 0 0 0 0 0 0 0 0 127 0"/>
<feOffset dy="4.7873"/>
<feGaussianBlur stdDeviation="3.59048"/>
<feColorMatrix type="matrix" values="0 0 0 0 0.00734375 0 0 0 0 0.195833 0 0 0 0 0.0506454 0 0 0 0.35 0"/>
<feBlend mode="normal" in2="BackgroundImageFix" result="effect1_dropShadow"/>
<feBlend mode="normal" in="SourceGraphic" in2="effect1_dropShadow" result="shape"/>
</filter>
<linearGradient id="paint0_linear" x1="153" y1="3" x2="153" y2="47.881" gradientUnits="userSpaceOnUse">
<stop stop-color="#35CE58"/>
<stop offset="1" stop-color="#058823"/>
</linearGradient>
<linearGradient id="paint1_linear" x1="175.959" y1="46.3849" x2="175.959" y2="-12.8725" gradientUnits="userSpaceOnUse">
<stop stop-color="#28A745"/>
<stop offset="1" stop-color="#049A26"/>
</linearGradient>
<linearGradient id="paint2_linear" x1="51.5001" y1="-133.942" x2="83.1038" y2="34.8338" gradientUnits="userSpaceOnUse">
<stop stop-color="white"/>
<stop offset="1" stop-color="white" stop-opacity="0"/>
</linearGradient>
</defs>
</svg>
