<svg width="481" height="101" viewBox="0 0 481 101" fill="none" xmlns="http://www.w3.org/2000/svg">
<g filter="url(#filter0_d)">
<path d="M12 20.452C12 14.5726 12 11.6329 13.1804 9.40347C14.133 7.60433 15.6043 6.13302 17.4035 5.18042C19.6329 4 22.5726 4 28.452 4H452.548C458.427 4 461.367 4 463.597 5.18042C465.396 6.13302 466.867 7.60433 467.82 9.40347C469 11.6329 469 14.5726 469 20.452V63.7147C469 69.5941 469 72.5338 467.82 74.7632C466.867 76.5623 465.396 78.0336 463.597 78.9862C461.367 80.1667 458.427 80.1667 452.548 80.1667H28.452C22.5726 80.1667 19.6329 80.1667 17.4035 78.9862C15.6043 78.0336 14.133 76.5623 13.1804 74.7632C12 72.5338 12 69.5941 12 63.7147V20.452Z" fill="url(#paint0_linear)"/>
</g>
<path d="M14.5389 22.9909C14.5389 17.1115 14.5389 14.1718 15.7193 11.9424C16.6719 10.1432 18.1432 8.67191 19.9423 7.71932C22.1718 6.53889 25.1115 6.53889 30.9909 6.53889H450.009C455.889 6.53889 458.828 6.53889 461.058 7.71932C462.857 8.67191 464.328 10.1432 465.281 11.9424C466.461 14.1718 466.461 17.1115 466.461 22.9909V61.1758C466.461 67.0552 466.461 69.9949 465.281 72.2243C464.328 74.0235 462.857 75.4948 461.058 76.4474C458.828 77.6278 455.889 77.6278 450.009 77.6278H30.9909C25.1115 77.6278 22.1718 77.6278 19.9423 76.4474C18.1432 75.4948 16.6719 74.0235 15.7193 72.2243C14.5389 69.9949 14.5389 67.0552 14.5389 61.1758V22.9909Z" fill="url(#paint1_linear)"/>
<path d="M14.5389 22.9909C14.5389 17.1115 14.5389 14.1718 15.7193 11.9424C16.6719 10.1432 18.1432 8.67191 19.9423 7.71932C22.1718 6.53889 25.1115 6.53889 30.9909 6.53889H450.009C455.889 6.53889 458.828 6.53889 461.058 7.71932C462.857 8.67191 464.328 10.1432 465.281 11.9424C466.461 14.1718 466.461 17.1115 466.461 22.9909V61.1758C466.461 67.0552 466.461 69.9949 465.281 72.2243C464.328 74.0235 462.857 75.4948 461.058 76.4474C458.828 77.6278 455.889 77.6278 450.009 77.6278H30.9909C25.1115 77.6278 22.1718 77.6278 19.9423 76.4474C18.1432 75.4948 16.6719 74.0235 15.7193 72.2243C14.5389 69.9949 14.5389 67.0552 14.5389 61.1758V22.9909Z" fill="url(#paint2_linear)"/>
<path d="M63.2117 44.5235V48.5833H51.2911V44.5235H49V49.7767C49 50.4353 49.5122 50.9695 50.1473 50.9695H64.3555C64.99 50.9695 65.5028 50.4359 65.5028 49.7767V44.5235H63.2117Z" fill="white"/>
<path d="M57.0417 44.1209L53.7615 39.9918C53.7615 39.9918 53.2624 39.5009 53.8036 39.5009C54.3448 39.5009 55.652 39.5009 55.652 39.5009C55.652 39.5009 55.652 39.1707 55.652 38.6615C55.652 37.2096 55.652 34.5673 55.652 33.4901C55.652 33.4901 55.5786 33.1972 56.0019 33.1972C56.4288 33.1972 58.2982 33.1972 58.6038 33.1972C58.9088 33.1972 58.902 33.4439 58.902 33.4439C58.902 34.4884 58.902 37.222 58.902 38.6265C58.902 39.0818 58.902 39.377 58.902 39.377C58.902 39.377 59.9502 39.377 60.6081 39.377C61.2648 39.377 60.7703 39.891 60.7703 39.891C60.7703 39.891 57.9795 43.7504 57.5903 44.1553C57.3103 44.4488 57.0417 44.1209 57.0417 44.1209Z" fill="white"/>
<path d="M102.942 28.4L97.578 38.372C97.062 39.332 96.438 40.058 95.706 40.55C94.986 41.042 94.2 41.288 93.348 41.288C92.688 41.288 92.004 41.144 91.296 40.856L91.998 38.642C92.502 38.798 92.922 38.876 93.258 38.876C93.618 38.876 93.942 38.792 94.23 38.624C94.518 38.444 94.782 38.168 95.022 37.796L95.13 37.652L90.162 28.4H93.276L96.624 35.168L100.08 28.4H102.942ZM114.28 34.43C115.012 34.682 115.582 35.078 115.99 35.618C116.41 36.146 116.62 36.764 116.62 37.472C116.62 38.24 116.368 38.906 115.864 39.47C115.36 40.034 114.676 40.466 113.812 40.766C112.96 41.066 112.024 41.216 111.004 41.216C110.14 41.216 109.276 41.108 108.412 40.892C107.56 40.676 106.75 40.346 105.982 39.902L106.882 37.814C107.434 38.15 108.04 38.408 108.7 38.588C109.372 38.756 110.026 38.84 110.662 38.84C111.526 38.84 112.24 38.684 112.804 38.372C113.38 38.06 113.668 37.622 113.668 37.058C113.668 36.59 113.47 36.236 113.074 35.996C112.69 35.756 112.162 35.636 111.49 35.636H108.412V33.44H111.274C111.862 33.44 112.318 33.32 112.642 33.08C112.978 32.84 113.146 32.51 113.146 32.09C113.146 31.598 112.906 31.214 112.426 30.938C111.958 30.662 111.352 30.524 110.608 30.524C110.056 30.524 109.486 30.602 108.898 30.758C108.31 30.902 107.752 31.124 107.224 31.424L106.342 29.156C107.674 28.472 109.114 28.13 110.662 28.13C111.646 28.13 112.552 28.274 113.38 28.562C114.208 28.85 114.868 29.27 115.36 29.822C115.852 30.374 116.098 31.016 116.098 31.748C116.098 32.348 115.936 32.882 115.612 33.35C115.288 33.818 114.844 34.178 114.28 34.43ZM133.184 28.4V41H130.268V35.834H124.544V41H121.628V28.4H124.544V33.368H130.268V28.4H133.184ZM147.573 38.3H141.723L140.607 41H137.619L143.235 28.4H146.115L151.749 41H148.689L147.573 38.3ZM146.655 36.086L144.657 31.262L142.659 36.086H146.655ZM165.117 30.776H161.085V41H158.205V30.776H154.191V28.4H165.117V30.776ZM175.75 32.54C177.286 32.54 178.462 32.882 179.278 33.566C180.106 34.25 180.52 35.264 180.52 36.608C180.52 38.036 180.064 39.128 179.152 39.884C178.252 40.628 176.98 41 175.336 41H169.648V28.4H172.546V32.54H175.75ZM175.174 38.84C175.93 38.84 176.518 38.654 176.938 38.282C177.37 37.91 177.586 37.37 177.586 36.662C177.586 35.354 176.782 34.7 175.174 34.7H172.546V38.84H175.174ZM199.13 41.216C197.822 41.216 196.64 40.934 195.584 40.37C194.54 39.806 193.718 39.032 193.118 38.048C192.53 37.052 192.236 35.936 192.236 34.7C192.236 33.464 192.53 32.354 193.118 31.37C193.718 30.374 194.54 29.594 195.584 29.03C196.64 28.466 197.822 28.184 199.13 28.184C200.438 28.184 201.614 28.466 202.658 29.03C203.702 29.594 204.524 30.374 205.124 31.37C205.724 32.354 206.024 33.464 206.024 34.7C206.024 35.936 205.724 37.052 205.124 38.048C204.524 39.032 203.702 39.806 202.658 40.37C201.614 40.934 200.438 41.216 199.13 41.216ZM199.13 38.732C199.874 38.732 200.546 38.564 201.146 38.228C201.746 37.88 202.214 37.4 202.55 36.788C202.898 36.176 203.072 35.48 203.072 34.7C203.072 33.92 202.898 33.224 202.55 32.612C202.214 32 201.746 31.526 201.146 31.19C200.546 30.842 199.874 30.668 199.13 30.668C198.386 30.668 197.714 30.842 197.114 31.19C196.514 31.526 196.04 32 195.692 32.612C195.356 33.224 195.188 33.92 195.188 34.7C195.188 35.48 195.356 36.176 195.692 36.788C196.04 37.4 196.514 37.88 197.114 38.228C197.714 38.564 198.386 38.732 199.13 38.732ZM210.971 28.4H221.141V30.722H213.869V33.314H217.361C218.885 33.314 220.043 33.632 220.835 34.268C221.639 34.904 222.041 35.822 222.041 37.022C222.041 38.282 221.597 39.26 220.709 39.956C219.821 40.652 218.567 41 216.947 41H210.971V28.4ZM216.785 38.84C217.529 38.84 218.099 38.696 218.495 38.408C218.891 38.108 219.089 37.676 219.089 37.112C219.089 36.008 218.321 35.456 216.785 35.456H213.869V38.84H216.785ZM232.972 41.216C231.664 41.216 230.482 40.934 229.426 40.37C228.382 39.806 227.56 39.032 226.96 38.048C226.372 37.052 226.078 35.936 226.078 34.7C226.078 33.464 226.372 32.354 226.96 31.37C227.56 30.374 228.382 29.594 229.426 29.03C230.482 28.466 231.664 28.184 232.972 28.184C234.28 28.184 235.456 28.466 236.5 29.03C237.544 29.594 238.366 30.374 238.966 31.37C239.566 32.354 239.866 33.464 239.866 34.7C239.866 35.936 239.566 37.052 238.966 38.048C238.366 39.032 237.544 39.806 236.5 40.37C235.456 40.934 234.28 41.216 232.972 41.216ZM232.972 38.732C233.716 38.732 234.388 38.564 234.988 38.228C235.588 37.88 236.056 37.4 236.392 36.788C236.74 36.176 236.914 35.48 236.914 34.7C236.914 33.92 236.74 33.224 236.392 32.612C236.056 32 235.588 31.526 234.988 31.19C234.388 30.842 233.716 30.668 232.972 30.668C232.228 30.668 231.556 30.842 230.956 31.19C230.356 31.526 229.882 32 229.534 32.612C229.198 33.224 229.03 33.92 229.03 34.7C229.03 35.48 229.198 36.176 229.534 36.788C229.882 37.4 230.356 37.88 230.956 38.228C231.556 38.564 232.228 38.732 232.972 38.732ZM261.34 34.43C262.108 34.658 262.696 35.03 263.104 35.546C263.512 36.062 263.716 36.698 263.716 37.454C263.716 38.57 263.29 39.44 262.438 40.064C261.598 40.688 260.392 41 258.82 41H252.61V28.4H258.478C259.942 28.4 261.082 28.682 261.898 29.246C262.714 29.81 263.122 30.614 263.122 31.658C263.122 32.282 262.966 32.834 262.654 33.314C262.342 33.782 261.904 34.154 261.34 34.43ZM255.508 33.62H258.226C258.862 33.62 259.342 33.494 259.666 33.242C259.99 32.978 260.152 32.594 260.152 32.09C260.152 31.598 259.984 31.22 259.648 30.956C259.324 30.692 258.85 30.56 258.226 30.56H255.508V33.62ZM258.712 38.84C260.08 38.84 260.764 38.3 260.764 37.22C260.764 36.176 260.08 35.654 258.712 35.654H255.508V38.84H258.712ZM274.68 41.216C273.396 41.216 272.232 40.94 271.188 40.388C270.156 39.824 269.34 39.05 268.74 38.066C268.152 37.07 267.858 35.948 267.858 34.7C267.858 33.452 268.152 32.336 268.74 31.352C269.34 30.356 270.156 29.582 271.188 29.03C272.232 28.466 273.402 28.184 274.698 28.184C275.79 28.184 276.774 28.376 277.65 28.76C278.538 29.144 279.282 29.696 279.882 30.416L278.01 32.144C277.158 31.16 276.102 30.668 274.842 30.668C274.062 30.668 273.366 30.842 272.754 31.19C272.142 31.526 271.662 32 271.314 32.612C270.978 33.224 270.81 33.92 270.81 34.7C270.81 35.48 270.978 36.176 271.314 36.788C271.662 37.4 272.142 37.88 272.754 38.228C273.366 38.564 274.062 38.732 274.842 38.732C276.102 38.732 277.158 38.234 278.01 37.238L279.882 38.966C279.282 39.698 278.538 40.256 277.65 40.64C276.762 41.024 275.772 41.216 274.68 41.216ZM294.238 38.66V41H284.482V28.4H294.004V30.74H287.38V33.476H293.23V35.744H287.38V38.66H294.238ZM301.439 28.4L304.049 32.216L306.659 28.4H310.079L305.885 34.43L310.421 41H306.983L304.049 36.824L301.151 41H297.785L302.285 34.556L298.073 28.4H301.439ZM331.389 34.43C332.157 34.658 332.745 35.03 333.153 35.546C333.561 36.062 333.765 36.698 333.765 37.454C333.765 38.57 333.339 39.44 332.487 40.064C331.647 40.688 330.441 41 328.869 41H322.659V28.4H328.527C329.991 28.4 331.131 28.682 331.947 29.246C332.763 29.81 333.171 30.614 333.171 31.658C333.171 32.282 333.015 32.834 332.703 33.314C332.391 33.782 331.953 34.154 331.389 34.43ZM325.557 33.62H328.275C328.911 33.62 329.391 33.494 329.715 33.242C330.039 32.978 330.201 32.594 330.201 32.09C330.201 31.598 330.033 31.22 329.697 30.956C329.373 30.692 328.899 30.56 328.275 30.56H325.557V33.62ZM328.761 38.84C330.129 38.84 330.813 38.3 330.813 37.22C330.813 36.176 330.129 35.654 328.761 35.654H325.557V38.84H328.761ZM344.873 32.54C346.409 32.54 347.585 32.882 348.401 33.566C349.229 34.25 349.643 35.264 349.643 36.608C349.643 38.036 349.187 39.128 348.275 39.884C347.375 40.628 346.103 41 344.459 41H338.771V28.4H341.669V32.54H344.873ZM344.297 38.84C345.053 38.84 345.641 38.654 346.061 38.282C346.493 37.91 346.709 37.37 346.709 36.662C346.709 35.354 345.905 34.7 344.297 34.7H341.669V38.84H344.297ZM351.245 28.4H354.143V41H351.245V28.4ZM368.854 30.776H362.86L362.878 41H359.98V28.4H368.872L368.854 30.776ZM378.079 41.216C376.771 41.216 375.589 40.934 374.533 40.37C373.489 39.806 372.667 39.032 372.067 38.048C371.479 37.052 371.185 35.936 371.185 34.7C371.185 33.464 371.479 32.354 372.067 31.37C372.667 30.374 373.489 29.594 374.533 29.03C375.589 28.466 376.771 28.184 378.079 28.184C379.387 28.184 380.563 28.466 381.607 29.03C382.651 29.594 383.473 30.374 384.073 31.37C384.673 32.354 384.973 33.464 384.973 34.7C384.973 35.936 384.673 37.052 384.073 38.048C383.473 39.032 382.651 39.806 381.607 40.37C380.563 40.934 379.387 41.216 378.079 41.216ZM378.079 38.732C378.823 38.732 379.495 38.564 380.095 38.228C380.695 37.88 381.163 37.4 381.499 36.788C381.847 36.176 382.021 35.48 382.021 34.7C382.021 33.92 381.847 33.224 381.499 32.612C381.163 32 380.695 31.526 380.095 31.19C379.495 30.842 378.823 30.668 378.079 30.668C377.335 30.668 376.663 30.842 376.063 31.19C375.463 31.526 374.989 32 374.641 32.612C374.305 33.224 374.137 33.92 374.137 34.7C374.137 35.48 374.305 36.176 374.641 36.788C374.989 37.4 375.463 37.88 376.063 38.228C376.663 38.564 377.335 38.732 378.079 38.732ZM402.564 38.624V43.61H399.864V41H390.972V43.61H388.272L388.29 38.624H388.794C389.55 38.6 390.084 38.048 390.396 36.968C390.708 35.888 390.9 34.346 390.972 32.342L391.116 28.4H400.8V38.624H402.564ZM393.546 32.612C393.486 34.112 393.36 35.372 393.168 36.392C392.976 37.4 392.682 38.144 392.286 38.624H397.92V30.776H393.6L393.546 32.612ZM415.864 38.3H410.014L408.898 41H405.91L411.526 28.4H414.406L420.04 41H416.98L415.864 38.3ZM414.946 36.086L412.948 31.262L410.95 36.086H414.946ZM426.029 28.4L428.639 32.216L431.249 28.4H434.669L430.475 34.43L435.011 41H431.573L428.639 36.824L425.741 41H422.375L426.875 34.556L422.663 28.4H426.029Z" fill="white"/>
<path d="M99.4675 50.2V60H98.4455V51.096H92.2435V60H91.2215V50.2H99.4675ZM105.574 60.07C104.865 60.07 104.226 59.9113 103.656 59.594C103.087 59.2673 102.639 58.8193 102.312 58.25C101.986 57.6807 101.822 57.0367 101.822 56.318C101.822 55.5993 101.986 54.9553 102.312 54.386C102.639 53.8167 103.087 53.3733 103.656 53.056C104.226 52.7387 104.865 52.58 105.574 52.58C106.284 52.58 106.923 52.7387 107.492 53.056C108.062 53.3733 108.505 53.8167 108.822 54.386C109.149 54.9553 109.312 55.5993 109.312 56.318C109.312 57.0367 109.149 57.6807 108.822 58.25C108.505 58.8193 108.062 59.2673 107.492 59.594C106.923 59.9113 106.284 60.07 105.574 60.07ZM105.574 59.188C106.097 59.188 106.564 59.0713 106.974 58.838C107.394 58.5953 107.721 58.2547 107.954 57.816C108.188 57.3773 108.304 56.878 108.304 56.318C108.304 55.758 108.188 55.2587 107.954 54.82C107.721 54.3813 107.394 54.0453 106.974 53.812C106.564 53.5693 106.097 53.448 105.574 53.448C105.052 53.448 104.58 53.5693 104.16 53.812C103.75 54.0453 103.423 54.3813 103.18 54.82C102.947 55.2587 102.83 55.758 102.83 56.318C102.83 56.878 102.947 57.3773 103.18 57.816C103.423 58.2547 103.75 58.5953 104.16 58.838C104.58 59.0713 105.052 59.188 105.574 59.188ZM114.517 60.07C113.789 60.07 113.135 59.9113 112.557 59.594C111.987 59.2767 111.539 58.8333 111.213 58.264C110.886 57.6853 110.723 57.0367 110.723 56.318C110.723 55.5993 110.886 54.9553 111.213 54.386C111.539 53.8167 111.987 53.3733 112.557 53.056C113.135 52.7387 113.789 52.58 114.517 52.58C115.151 52.58 115.716 52.706 116.211 52.958C116.715 53.2007 117.111 53.56 117.401 54.036L116.659 54.54C116.416 54.176 116.108 53.9053 115.735 53.728C115.361 53.5413 114.955 53.448 114.517 53.448C113.985 53.448 113.504 53.5693 113.075 53.812C112.655 54.0453 112.323 54.3813 112.081 54.82C111.847 55.2587 111.731 55.758 111.731 56.318C111.731 56.8873 111.847 57.3913 112.081 57.83C112.323 58.2593 112.655 58.5953 113.075 58.838C113.504 59.0713 113.985 59.188 114.517 59.188C114.955 59.188 115.361 59.0993 115.735 58.922C116.108 58.7447 116.416 58.474 116.659 58.11L117.401 58.614C117.111 59.09 116.715 59.454 116.211 59.706C115.707 59.9487 115.142 60.07 114.517 60.07ZM127.557 52.636V60H126.647V54.176L123.665 59.104H123.217L120.235 54.162V60H119.325V52.636H120.333L123.455 57.942L126.633 52.636H127.557ZM133.424 60.07C132.714 60.07 132.075 59.9113 131.506 59.594C130.936 59.2673 130.488 58.8193 130.162 58.25C129.835 57.6807 129.672 57.0367 129.672 56.318C129.672 55.5993 129.835 54.9553 130.162 54.386C130.488 53.8167 130.936 53.3733 131.506 53.056C132.075 52.7387 132.714 52.58 133.424 52.58C134.133 52.58 134.772 52.7387 135.342 53.056C135.911 53.3733 136.354 53.8167 136.672 54.386C136.998 54.9553 137.162 55.5993 137.162 56.318C137.162 57.0367 136.998 57.6807 136.672 58.25C136.354 58.8193 135.911 59.2673 135.342 59.594C134.772 59.9113 134.133 60.07 133.424 60.07ZM133.424 59.188C133.946 59.188 134.413 59.0713 134.824 58.838C135.244 58.5953 135.57 58.2547 135.804 57.816C136.037 57.3773 136.154 56.878 136.154 56.318C136.154 55.758 136.037 55.2587 135.804 54.82C135.57 54.3813 135.244 54.0453 134.824 53.812C134.413 53.5693 133.946 53.448 133.424 53.448C132.901 53.448 132.43 53.5693 132.01 53.812C131.599 54.0453 131.272 54.3813 131.03 54.82C130.796 55.2587 130.68 55.758 130.68 56.318C130.68 56.878 130.796 57.3773 131.03 57.816C131.272 58.2547 131.599 58.5953 132.01 58.838C132.43 59.0713 132.901 59.188 133.424 59.188ZM144.193 53.518H141.407V60H140.413V53.518H137.627V52.636H144.193V53.518ZM149.424 52.58C150.115 52.58 150.74 52.7387 151.3 53.056C151.86 53.364 152.299 53.8027 152.616 54.372C152.933 54.9413 153.092 55.59 153.092 56.318C153.092 57.0553 152.933 57.7087 152.616 58.278C152.299 58.8473 151.86 59.2907 151.3 59.608C150.749 59.916 150.124 60.07 149.424 60.07C148.827 60.07 148.285 59.9487 147.8 59.706C147.324 59.454 146.932 59.09 146.624 58.614V62.716H145.63V52.636H146.582V54.092C146.881 53.6067 147.273 53.2333 147.758 52.972C148.253 52.7107 148.808 52.58 149.424 52.58ZM149.354 59.188C149.867 59.188 150.334 59.0713 150.754 58.838C151.174 58.5953 151.501 58.2547 151.734 57.816C151.977 57.3773 152.098 56.878 152.098 56.318C152.098 55.758 151.977 55.2633 151.734 54.834C151.501 54.3953 151.174 54.0547 150.754 53.812C150.334 53.5693 149.867 53.448 149.354 53.448C148.831 53.448 148.36 53.5693 147.94 53.812C147.529 54.0547 147.203 54.3953 146.96 54.834C146.727 55.2633 146.61 55.758 146.61 56.318C146.61 56.878 146.727 57.3773 146.96 57.816C147.203 58.2547 147.529 58.5953 147.94 58.838C148.36 59.0713 148.831 59.188 149.354 59.188ZM161.668 56.626H155.508C155.564 57.3913 155.858 58.012 156.39 58.488C156.922 58.9547 157.594 59.188 158.406 59.188C158.863 59.188 159.283 59.1087 159.666 58.95C160.048 58.782 160.38 58.5393 160.66 58.222L161.22 58.866C160.893 59.258 160.482 59.5567 159.988 59.762C159.502 59.9673 158.966 60.07 158.378 60.07C157.622 60.07 156.95 59.9113 156.362 59.594C155.783 59.2673 155.33 58.8193 155.004 58.25C154.677 57.6807 154.514 57.0367 154.514 56.318C154.514 55.5993 154.668 54.9553 154.976 54.386C155.293 53.8167 155.722 53.3733 156.264 53.056C156.814 52.7387 157.43 52.58 158.112 52.58C158.793 52.58 159.404 52.7387 159.946 53.056C160.487 53.3733 160.912 53.8167 161.22 54.386C161.528 54.946 161.682 55.59 161.682 56.318L161.668 56.626ZM158.112 53.434C157.402 53.434 156.805 53.6627 156.32 54.12C155.844 54.568 155.573 55.156 155.508 55.884H160.73C160.664 55.156 160.389 54.568 159.904 54.12C159.428 53.6627 158.83 53.434 158.112 53.434ZM168.734 53.518H165.948V60H164.954V53.518H162.168V52.636H168.734V53.518ZM173.335 55.24C174.259 55.2493 174.959 55.4547 175.435 55.856C175.92 56.2573 176.163 56.836 176.163 57.592C176.163 58.376 175.902 58.978 175.379 59.398C174.866 59.818 174.119 60.0233 173.139 60.014L170.171 60V52.636H171.165V55.212L173.335 55.24ZM173.083 59.258C173.764 59.2673 174.278 59.132 174.623 58.852C174.978 58.5627 175.155 58.1427 175.155 57.592C175.155 57.0507 174.982 56.6493 174.637 56.388C174.292 56.1267 173.774 55.9913 173.083 55.982L171.165 55.954V59.23L173.083 59.258ZM188.332 52.636V60H187.338V53.518H182.718V60H181.724V52.636H188.332ZM197.177 52.636V60H196.183V53.518H192.655L192.557 55.338C192.483 56.8687 192.305 58.0447 192.025 58.866C191.745 59.6873 191.246 60.098 190.527 60.098C190.331 60.098 190.093 60.0607 189.813 59.986L189.883 59.132C190.051 59.1693 190.168 59.188 190.233 59.188C190.616 59.188 190.905 59.0107 191.101 58.656C191.297 58.3013 191.428 57.8627 191.493 57.34C191.559 56.8173 191.615 56.1267 191.661 55.268L191.787 52.636H197.177ZM202.537 52.58C203.498 52.58 204.236 52.8227 204.749 53.308C205.262 53.784 205.519 54.4933 205.519 55.436V60H204.567V58.852C204.343 59.2347 204.012 59.5333 203.573 59.748C203.144 59.9627 202.63 60.07 202.033 60.07C201.212 60.07 200.558 59.874 200.073 59.482C199.588 59.09 199.345 58.572 199.345 57.928C199.345 57.3027 199.569 56.7987 200.017 56.416C200.474 56.0333 201.198 55.842 202.187 55.842H204.525V55.394C204.525 54.7593 204.348 54.2787 203.993 53.952C203.638 53.616 203.12 53.448 202.439 53.448C201.972 53.448 201.524 53.5273 201.095 53.686C200.666 53.8353 200.297 54.0453 199.989 54.316L199.541 53.574C199.914 53.2567 200.362 53.014 200.885 52.846C201.408 52.6687 201.958 52.58 202.537 52.58ZM202.187 59.286C202.747 59.286 203.228 59.16 203.629 58.908C204.03 58.6467 204.329 58.2733 204.525 57.788V56.584H202.215C200.955 56.584 200.325 57.0227 200.325 57.9C200.325 58.3293 200.488 58.67 200.815 58.922C201.142 59.1647 201.599 59.286 202.187 59.286ZM208.165 52.636H209.159V55.898H213.793V52.636H214.787V60H213.793V56.752H209.159V60H208.165V52.636ZM217.612 52.636H218.606V58.488L223.52 52.636H224.402V60H223.408V54.148L218.508 60H217.612V52.636ZM231.045 52.58C231.736 52.58 232.361 52.7387 232.921 53.056C233.481 53.364 233.92 53.8027 234.237 54.372C234.554 54.9413 234.713 55.59 234.713 56.318C234.713 57.0553 234.554 57.7087 234.237 58.278C233.92 58.8473 233.481 59.2907 232.921 59.608C232.37 59.916 231.745 60.07 231.045 60.07C230.448 60.07 229.906 59.9487 229.421 59.706C228.945 59.454 228.553 59.09 228.245 58.614V62.716H227.251V52.636H228.203V54.092C228.502 53.6067 228.894 53.2333 229.379 52.972C229.874 52.7107 230.429 52.58 231.045 52.58ZM230.975 59.188C231.488 59.188 231.955 59.0713 232.375 58.838C232.795 58.5953 233.122 58.2547 233.355 57.816C233.598 57.3773 233.719 56.878 233.719 56.318C233.719 55.758 233.598 55.2633 233.355 54.834C233.122 54.3953 232.795 54.0547 232.375 53.812C231.955 53.5693 231.488 53.448 230.975 53.448C230.452 53.448 229.981 53.5693 229.561 53.812C229.15 54.0547 228.824 54.3953 228.581 54.834C228.348 55.2633 228.231 55.758 228.231 56.318C228.231 56.878 228.348 57.3773 228.581 57.816C228.824 58.2547 229.15 58.5953 229.561 58.838C229.981 59.0713 230.452 59.188 230.975 59.188ZM239.887 60.07C239.177 60.07 238.538 59.9113 237.969 59.594C237.399 59.2673 236.951 58.8193 236.625 58.25C236.298 57.6807 236.135 57.0367 236.135 56.318C236.135 55.5993 236.298 54.9553 236.625 54.386C236.951 53.8167 237.399 53.3733 237.969 53.056C238.538 52.7387 239.177 52.58 239.887 52.58C240.596 52.58 241.235 52.7387 241.805 53.056C242.374 53.3733 242.817 53.8167 243.135 54.386C243.461 54.9553 243.625 55.5993 243.625 56.318C243.625 57.0367 243.461 57.6807 243.135 58.25C242.817 58.8193 242.374 59.2673 241.805 59.594C241.235 59.9113 240.596 60.07 239.887 60.07ZM239.887 59.188C240.409 59.188 240.876 59.0713 241.287 58.838C241.707 58.5953 242.033 58.2547 242.267 57.816C242.5 57.3773 242.617 56.878 242.617 56.318C242.617 55.758 242.5 55.2587 242.267 54.82C242.033 54.3813 241.707 54.0453 241.287 53.812C240.876 53.5693 240.409 53.448 239.887 53.448C239.364 53.448 238.893 53.5693 238.473 53.812C238.062 54.0453 237.735 54.3813 237.493 54.82C237.259 55.2587 237.143 55.758 237.143 56.318C237.143 56.878 237.259 57.3773 237.493 57.816C237.735 58.2547 238.062 58.5953 238.473 58.838C238.893 59.0713 239.364 59.188 239.887 59.188ZM250.439 56.192C251.438 56.4253 251.937 57.0273 251.937 57.998C251.937 58.642 251.699 59.1367 251.223 59.482C250.747 59.8273 250.038 60 249.095 60H245.749V52.636H248.997C249.837 52.636 250.495 52.7993 250.971 53.126C251.447 53.4527 251.685 53.9193 251.685 54.526C251.685 54.9273 251.573 55.2727 251.349 55.562C251.134 55.842 250.831 56.052 250.439 56.192ZM246.715 55.912H248.927C249.496 55.912 249.93 55.8047 250.229 55.59C250.537 55.3753 250.691 55.0627 250.691 54.652C250.691 54.2413 250.537 53.9333 250.229 53.728C249.93 53.5227 249.496 53.42 248.927 53.42H246.715V55.912ZM249.053 59.216C249.688 59.216 250.164 59.1133 250.481 58.908C250.798 58.7027 250.957 58.3807 250.957 57.942C250.957 57.5033 250.812 57.1813 250.523 56.976C250.234 56.7613 249.776 56.654 249.151 56.654H246.715V59.216H249.053ZM256.941 56.724H255.261V60H254.267V52.636H255.261V55.87H256.955L259.545 52.636H260.623L257.725 56.206L260.833 60H259.657L256.941 56.724ZM262.401 52.636H263.395V58.488L268.309 52.636H269.191V60H268.197V54.148L263.297 60H262.401V52.636Z" fill="white" fill-opacity="0.7"/>
<defs>
<filter id="filter0_d" x="0" y="0" width="481" height="100.167" filterUnits="userSpaceOnUse" color-interpolation-filters="sRGB">
<feFlood flood-opacity="0" result="BackgroundImageFix"/>
<feColorMatrix in="SourceAlpha" type="matrix" values="0 0 0 0 0 0 0 0 0 0 0 0 0 0 0 0 0 0 127 0"/>
<feOffset dy="8"/>
<feGaussianBlur stdDeviation="6"/>
<feColorMatrix type="matrix" values="0 0 0 0 0.00734375 0 0 0 0 0.195833 0 0 0 0 0.0506454 0 0 0 0.35 0"/>
<feBlend mode="normal" in2="BackgroundImageFix" result="effect1_dropShadow"/>
<feBlend mode="normal" in="SourceGraphic" in2="effect1_dropShadow" result="shape"/>
</filter>
<linearGradient id="paint0_linear" x1="240.5" y1="4" x2="240.5" y2="80.1667" gradientUnits="userSpaceOnUse">
<stop stop-color="#35CE58"/>
<stop offset="1" stop-color="#058823"/>
</linearGradient>
<linearGradient id="paint1_linear" x1="276.679" y1="77.6278" x2="276.679" y2="-22.937" gradientUnits="userSpaceOnUse">
<stop stop-color="#28A745"/>
<stop offset="1" stop-color="#049A26"/>
</linearGradient>
<linearGradient id="paint2_linear" x1="80.5499" y1="-228.401" x2="137.999" y2="56.4828" gradientUnits="userSpaceOnUse">
<stop stop-color="white"/>
<stop offset="1" stop-color="white" stop-opacity="0"/>
</linearGradient>
</defs>
</svg>
