<svg width="20" height="19" viewBox="0 0 20 19" fill="none" xmlns="http://www.w3.org/2000/svg">
<path d="M15.3125 10.3906H15.9375C16.2827 10.3906 16.5625 10.1248 16.5625 9.79688C16.5625 9.46898 16.2827 9.20313 15.9375 9.20313H15.3125C14.9673 9.20313 14.6875 9.46898 14.6875 9.79688C14.6875 10.1248 14.9673 10.3906 15.3125 10.3906Z" fill="#BD9B60"/>
<path d="M20 10.6875V1.78126C20 0.79909 19.1589 1.39123e-05 18.125 1.39123e-05C17.5622 1.39123e-05 13.7874 1.39123e-05 13.125 1.39123e-05C12.4754 1.39123e-05 11.9021 0.315555 11.5655 0.793672L10.3216 0.0846232C10.1236 -0.0282263 9.87637 -0.0281892 9.67844 0.0846232L0.303438 5.42837C0.115195 5.53569 0 5.72896 0 5.93751V8.60938C0 9.07039 0.530664 9.35561 0.946562 9.11852L1.875 8.58931V15.4375H0.625C0.279844 15.4375 0 15.7034 0 16.0313V18.4063C0 18.7341 0.279844 19 0.625 19H19.375C19.7202 19 20 18.7341 20 18.4063V16.0313C20 15.7034 19.7202 15.4375 19.375 15.4375H18.125V12.4688C19.1589 12.4688 20 11.6697 20 10.6875ZM13.125 1.18751H13.6057C13.8221 1.54209 14.2259 1.78126 14.6875 1.78126H16.5625C17.0241 1.78126 17.4279 1.54209 17.6443 1.18751H18.125C18.4696 1.18751 18.75 1.45388 18.75 1.78126V10.6875C18.75 11.0149 18.4696 11.2813 18.125 11.2813H13.125C12.7804 11.2813 12.5 11.0149 12.5 10.6875V1.78126C12.5 1.45388 12.7804 1.18751 13.125 1.18751ZM1.25 6.27368L10 1.28619L11.25 1.99869V3.28571L10.3216 2.7565C10.1236 2.64365 9.87637 2.64368 9.67844 2.7565L1.25 7.56071V6.27368ZM18.75 17.8125H1.25V16.625H18.75V17.8125ZM16.875 15.4375H3.125V7.87681L10 3.95806L11.25 4.67056V10.6875C11.25 11.6697 12.0911 12.4688 13.125 12.4688H16.875V15.4375Z" fill="#BD9B60"/>
<path d="M7.23789 13.0625C7.66936 13.0625 8.01914 12.7302 8.01914 12.3203C8.01914 11.9104 7.66936 11.5781 7.23789 11.5781C6.80642 11.5781 6.45664 11.9104 6.45664 12.3203C6.45664 12.7302 6.80642 13.0625 7.23789 13.0625Z" fill="#BD9B60"/>
<path d="M5.35961 10.536C5.11551 10.7679 5.11551 11.1438 5.35961 11.3757C5.60371 11.6075 5.99941 11.6075 6.24348 11.3757C6.7918 10.8548 7.68391 10.8548 8.23227 11.3757C8.3543 11.4916 8.51426 11.5496 8.67418 11.5496C9.22602 11.5496 9.51094 10.9111 9.11609 10.536C8.08043 9.55207 6.39523 9.55211 5.35961 10.536Z" fill="#BD9B60"/>
<path d="M4.03379 9.27646C3.78973 9.50832 3.78973 9.88427 4.03379 10.1161C4.27785 10.348 4.67355 10.348 4.91766 10.1161C6.19996 8.89795 8.27559 8.8978 9.55801 10.1161C9.68008 10.2321 9.84 10.2901 9.99996 10.2901C10.5522 10.29 10.8364 9.65127 10.4419 9.2765C8.67113 7.59418 5.80484 7.59396 4.03379 9.27646Z" fill="#BD9B60"/>
</svg>
