<svg width="16" height="21" viewBox="0 0 16 21" fill="none" xmlns="http://www.w3.org/2000/svg">
<path d="M6.25877 12.8379C6.25877 12.1556 5.7102 11.6006 5.03593 11.6006H4.54469V10.6124C4.54469 10.0977 3.75237 10.097 3.75237 10.6124V11.6006H2.52478V6.33303H3.75237V7.2806C3.75237 7.79531 4.54469 7.79603 4.54469 7.2806V6.33303H5.03589C5.7102 6.33303 6.25873 5.77795 6.25873 5.09568V1.23735C6.25877 0.555078 5.7102 0 5.03593 0H1.22287C0.548566 0 0 0.555078 0 1.23735V5.09568C0 5.77799 0.548566 6.33303 1.22283 6.33303H1.73242V11.6005H1.22287C0.548566 11.6005 3.95945e-05 12.1556 3.95945e-05 12.8379V16.6962C3.95945e-05 17.3785 0.548605 17.9336 1.22287 17.9336H5.03593C5.71024 17.9336 6.25877 17.3785 6.25877 16.6962V12.8379ZM5.46644 15.4661H0.792324V14.1106H5.4664L5.46644 15.4661ZM5.46644 16.6962C5.46644 16.9364 5.27331 17.1319 5.03593 17.1319H1.22287C0.985493 17.1319 0.792364 16.9364 0.792364 16.6962V16.2678H5.46644V16.6962ZM5.03593 12.4023C5.27331 12.4023 5.46644 12.5977 5.46644 12.8379V13.3089H0.792324V12.8379C0.792324 12.5977 0.985453 12.4023 1.22283 12.4023H5.03593ZM0.792324 2.50998H5.4664V3.86546H0.792324V2.50998ZM0.792324 1.23735C0.792324 0.997153 0.985453 0.801731 1.22287 0.801731H5.03593C5.27331 0.801731 5.46644 0.997153 5.46644 1.23735V1.70825H0.792324V1.23735ZM1.22287 5.5313C0.985493 5.5313 0.792364 5.33588 0.792364 5.09568V4.66724H5.46644V5.09568C5.46644 5.33588 5.27331 5.5313 5.03593 5.5313H1.22287Z" fill="#BD9B60"/>
<path d="M9.45128 7.30311C9.45128 7.98543 9.99985 8.54046 10.6741 8.54046H11.1837V13.808H10.6741C9.99981 13.808 9.45128 14.3631 9.45128 15.0453V18.9036C9.45128 19.586 9.99985 20.141 10.6741 20.141H14.4871C15.1614 20.141 15.71 19.5859 15.71 18.9036V15.0453C15.71 14.363 15.1614 13.808 14.4871 13.808H13.9959V8.54046H14.4871C15.1614 8.54046 15.7099 7.98539 15.7099 7.30311V3.44478C15.7099 2.76247 15.1614 2.20743 14.4871 2.20743H10.6741C9.99981 2.20743 9.45128 2.76251 9.45128 3.44478V7.30311ZM10.2436 4.71745H14.9176V6.07294H10.2436V4.71745ZM10.2436 3.44478C10.2436 3.20458 10.4367 3.00916 10.6741 3.00916H14.4871C14.7245 3.00916 14.9176 3.20458 14.9176 3.44478V3.91572H10.2436V3.44478ZM14.9176 18.9036C14.9176 19.1438 14.7245 19.3393 14.4871 19.3393H10.6741C10.4367 19.3393 10.2436 19.1438 10.2436 18.9036V18.4752H14.9176V18.9036ZM14.4871 14.6097C14.7245 14.6097 14.9176 14.8051 14.9176 15.0453V15.5162H14.2296C13.721 15.5162 13.7202 16.318 14.2296 16.318H14.9176V17.6735H10.2436V16.318H10.946C11.4546 16.318 11.4553 15.5162 10.946 15.5162H10.2436V15.0453C10.2436 14.8051 10.4367 14.6097 10.6741 14.6097H14.4871ZM13.2036 13.808H11.976V8.54046H13.2036V13.808ZM10.6741 7.73873C10.4367 7.73873 10.2436 7.54331 10.2436 7.30311V6.87467H14.9176V7.30311C14.9176 7.54331 14.7245 7.73873 14.4871 7.73873H10.6741Z" fill="#BD9B60"/>
<path d="M4.3686 8.61644C4.2267 8.52252 4.03951 8.52841 3.90509 8.63372C3.76858 8.74067 3.71723 8.93116 3.77915 9.09383C3.90969 9.43673 4.40691 9.42431 4.52346 9.07832C4.58063 8.90875 4.51606 8.71594 4.3686 8.61644Z" fill="#BD9B60"/>
<path d="M12.9558 15.7639C12.8909 15.6062 12.7293 15.5048 12.5608 15.5175C12.3882 15.5306 12.242 15.6587 12.2037 15.8292C12.1253 16.1782 12.5278 16.4517 12.8176 16.2447C12.9668 16.1382 13.0263 15.935 12.9558 15.7639Z" fill="#BD9B60"/>
</svg>
