<svg width="21" height="22" viewBox="0 0 21 22" fill="none" xmlns="http://www.w3.org/2000/svg">
<path d="M20.6602 5.59949H13.1345C13.0869 5.28851 12.9659 4.99393 12.7819 4.74107C12.5979 4.48822 12.3563 4.28464 12.078 4.14783L14.7504 1.99184C14.9596 2.14622 15.2168 2.21815 15.4741 2.1943C15.7315 2.17046 15.9716 2.05246 16.1501 1.86214C16.3286 1.67183 16.4334 1.42209 16.445 1.15917C16.4566 0.89625 16.3743 0.637949 16.2133 0.43209C16.0522 0.226231 15.8235 0.0867561 15.5692 0.0394874C15.315 -0.00778127 15.0526 0.0403576 14.8306 0.174992C14.6085 0.309626 14.4419 0.521637 14.3615 0.771774C14.2811 1.02191 14.2925 1.29323 14.3934 1.53551L11.3876 3.96067C11.3428 3.95733 11.2979 3.95367 11.2523 3.95367H9.69436C9.6487 3.95367 9.60386 3.95733 9.55903 3.96067L6.55318 1.53567C6.6563 1.29049 6.6686 1.01553 6.58778 0.761819C6.50696 0.508106 6.33852 0.292865 6.11371 0.156033C5.8889 0.0192006 5.62299 -0.0299315 5.36531 0.0177528C5.10763 0.065437 4.87569 0.2067 4.71251 0.41533C4.54934 0.623961 4.46601 0.885793 4.47799 1.15224C4.48997 1.4187 4.59645 1.67167 4.77767 1.86424C4.95889 2.05681 5.20254 2.17588 5.46342 2.19938C5.7243 2.22288 5.98469 2.14919 6.19627 1.992L8.86861 4.148C8.59027 4.28478 8.34871 4.48836 8.16469 4.74122C7.98066 4.99408 7.85967 5.28866 7.81211 5.59966H0.28638C0.248766 5.59964 0.211516 5.60717 0.176761 5.62182C0.142007 5.63647 0.110428 5.65795 0.0838307 5.68504C0.0572336 5.71213 0.0361399 5.74429 0.0217556 5.77969C0.00737128 5.81508 -2.14653e-05 5.85302 4.68136e-08 5.89133V19.2925C-2.14653e-05 19.3308 0.00737128 19.3687 0.0217556 19.4041C0.0361399 19.4395 0.0572336 19.4717 0.0838307 19.4987C0.110428 19.5258 0.142007 19.5473 0.176761 19.562C0.211516 19.5766 0.248766 19.5841 0.28638 19.5841H1.63646V20.5573C1.63659 20.7673 1.71851 20.9686 1.86424 21.1171C2.00997 21.2656 2.20761 21.3492 2.41377 21.3494H4.43888C4.64496 21.3492 4.84252 21.2657 4.98824 21.1173C5.13396 20.9689 5.21594 20.7677 5.2162 20.5578V19.5846H15.7304V20.5578C15.7307 20.7677 15.8127 20.9689 15.9584 21.1173C16.1041 21.2657 16.3017 21.3492 16.5077 21.3494H18.5329C18.7389 21.3492 18.9365 21.2657 19.0822 21.1173C19.2279 20.9689 19.3099 20.7677 19.3102 20.5578V19.5846H20.6602C20.6979 19.5846 20.7351 19.5771 20.7699 19.5625C20.8046 19.5478 20.8362 19.5263 20.8628 19.4992C20.8894 19.4722 20.9105 19.44 20.9249 19.4046C20.9393 19.3692 20.9466 19.3313 20.9466 19.293V5.89133C20.9467 5.853 20.9393 5.81505 20.9249 5.77963C20.9105 5.74422 20.8895 5.71204 20.8629 5.68493C20.8363 5.65782 20.8047 5.63633 20.7699 5.62167C20.7351 5.60701 20.6979 5.59947 20.6602 5.59949ZM15.3827 0.599509C15.4818 0.599509 15.5788 0.629459 15.6612 0.685572C15.7437 0.741684 15.808 0.821439 15.8459 0.914751C15.8839 1.00806 15.8938 1.11074 15.8745 1.2098C15.8551 1.30886 15.8074 1.39985 15.7372 1.47127C15.6671 1.54269 15.5778 1.59132 15.4805 1.61103C15.3832 1.63073 15.2824 1.62062 15.1908 1.58197C15.0992 1.54332 15.0209 1.47786 14.9658 1.39388C14.9107 1.30991 14.8813 1.21117 14.8813 1.11017C14.8814 0.974778 14.9343 0.844965 15.0283 0.749226C15.1223 0.653486 15.2497 0.599641 15.3827 0.599509ZM5.06254 1.10967C5.06254 1.00867 5.09195 0.909942 5.14704 0.825964C5.20214 0.741985 5.28045 0.676532 5.37207 0.637881C5.46369 0.59923 5.5645 0.589117 5.66177 0.608821C5.75903 0.628525 5.84837 0.677162 5.9185 0.748579C5.98862 0.819997 6.03638 0.910989 6.05572 1.01005C6.07507 1.10911 6.06514 1.21179 6.02719 1.3051C5.98924 1.39841 5.92497 1.47816 5.84252 1.53428C5.76006 1.59039 5.66312 1.62034 5.56395 1.62034C5.43101 1.62021 5.30355 1.56636 5.20954 1.47062C5.11554 1.37488 5.06267 1.24507 5.06254 1.10967ZM9.69371 4.537H11.2516C11.5549 4.53724 11.8491 4.64256 12.0858 4.83565C12.3226 5.02874 12.4877 5.29812 12.5542 5.59949H8.3924C8.45886 5.29823 8.62395 5.02894 8.86055 4.83586C9.09714 4.64278 9.39118 4.53739 9.69436 4.537H9.69371ZM4.64344 20.5573C4.64335 20.6125 4.62178 20.6654 4.58343 20.7045C4.54509 20.7436 4.49311 20.7655 4.43888 20.7656H2.41377C2.35953 20.7656 2.30753 20.7436 2.26918 20.7045C2.23082 20.6655 2.20926 20.6125 2.20921 20.5573V19.5841H4.64344V20.5573ZM18.7374 20.5573C18.7373 20.6125 18.7157 20.6654 18.6774 20.7045C18.6391 20.7436 18.5871 20.7655 18.5329 20.7656H16.5077C16.4535 20.7656 16.4015 20.7436 16.3631 20.7045C16.3248 20.6655 16.3032 20.6125 16.3032 20.5573V19.5841H18.7374V20.5573ZM20.3739 19.0008H0.572759V6.18283H8.03107C8.04523 6.18537 8.05956 6.18682 8.07394 6.18716H12.8727C12.8871 6.18682 12.9014 6.18537 12.9156 6.18283H20.3739V19.0008Z" fill="#BD9B60"/>
<path d="M2.90471 7.26616C2.56844 7.26655 2.24605 7.40279 2.00829 7.64497C1.77053 7.88716 1.6368 8.21551 1.63646 8.55799V16.626C1.63684 16.9684 1.77059 17.2967 2.00835 17.5389C2.24611 17.781 2.56847 17.9172 2.90471 17.9176H13.1286C13.4649 17.9172 13.7872 17.781 14.025 17.5389C14.2627 17.2967 14.3965 16.9684 14.3969 16.626V8.55799C14.3965 8.21554 14.2627 7.88723 14.025 7.64508C13.7872 7.40293 13.4649 7.26672 13.1286 7.26632L2.90471 7.26616ZM13.8241 8.55782V16.626C13.8239 16.8138 13.7506 16.9938 13.6202 17.1266C13.4898 17.2594 13.313 17.3341 13.1286 17.3343H2.90471C2.7203 17.3341 2.5435 17.2594 2.41311 17.1266C2.28272 16.9938 2.20939 16.8138 2.20921 16.626V8.55799C2.20934 8.37015 2.28266 8.19004 2.41305 8.05721C2.54345 7.92437 2.72028 7.84966 2.90471 7.84949H13.1286C13.313 7.84971 13.4898 7.92443 13.6202 8.05726C13.7506 8.19008 13.8239 8.37016 13.8241 8.55799V8.55782Z" fill="#BD9B60"/>
<path d="M17.386 11.1856C17.7666 11.1856 18.1386 11.0707 18.455 10.8554C18.7714 10.6401 19.0181 10.334 19.1637 9.97591C19.3093 9.61783 19.3474 9.22381 19.2732 8.84367C19.199 8.46354 19.0157 8.11436 18.7466 7.84029C18.4775 7.56623 18.1347 7.37959 17.7614 7.30398C17.3882 7.22836 17.0013 7.26717 16.6497 7.41549C16.2981 7.56381 15.9976 7.81499 15.7862 8.13725C15.5747 8.45952 15.4619 8.8384 15.4619 9.22598C15.4624 9.74554 15.6653 10.2437 16.0261 10.611C16.3868 10.9784 16.8759 11.1851 17.386 11.1856ZM17.386 7.84965C17.6533 7.84965 17.9146 7.93037 18.1368 8.08161C18.3591 8.23284 18.5323 8.44779 18.6345 8.69928C18.7368 8.95078 18.7636 9.22751 18.7114 9.49449C18.6593 9.76147 18.5306 10.0067 18.3416 10.1992C18.1526 10.3917 17.9118 10.5228 17.6497 10.5759C17.3875 10.629 17.1158 10.6017 16.8689 10.4975C16.6219 10.3934 16.4109 10.217 16.2624 9.99063C16.1139 9.76429 16.0346 9.49819 16.0346 9.22598C16.035 8.86105 16.1775 8.51116 16.4308 8.2531C16.6842 7.99504 17.0277 7.84988 17.386 7.84949V7.84965Z" fill="#BD9B60"/>
<path d="M15.7483 14.2591H19.0238C19.0614 14.2592 19.0987 14.2516 19.1334 14.237C19.1682 14.2223 19.1997 14.2008 19.2263 14.1738C19.2529 14.1467 19.274 14.1145 19.2884 14.0791C19.3028 14.0437 19.3102 14.0058 19.3102 13.9675V12.2495C19.3102 12.2112 19.3028 12.1732 19.2884 12.1378C19.274 12.1024 19.2529 12.0703 19.2263 12.0432C19.1997 12.0161 19.1682 11.9946 19.1334 11.98C19.0987 11.9653 19.0614 11.9578 19.0238 11.9578H15.7483C15.6723 11.9578 15.5995 11.9885 15.5458 12.0432C15.4921 12.0979 15.4619 12.1721 15.4619 12.2495V13.9675C15.4619 14.0448 15.4921 14.119 15.5458 14.1737C15.5995 14.2284 15.6723 14.2591 15.7483 14.2591ZM16.0346 12.5405H18.7374V13.6758H16.0346V12.5405Z" fill="#BD9B60"/>
<path d="M15.7483 15.9781H19.0238C19.0997 15.9781 19.1726 15.9474 19.2263 15.8927C19.28 15.838 19.3102 15.7638 19.3102 15.6865C19.3102 15.6091 19.28 15.5349 19.2263 15.4802C19.1726 15.4255 19.0997 15.3948 19.0238 15.3948H15.7483C15.6723 15.3948 15.5995 15.4255 15.5458 15.4802C15.4921 15.5349 15.4619 15.6091 15.4619 15.6865C15.4619 15.7638 15.4921 15.838 15.5458 15.8927C15.5995 15.9474 15.6723 15.9781 15.7483 15.9781Z" fill="#BD9B60"/>
<path d="M15.7483 17.9176H19.0238C19.0997 17.9176 19.1726 17.8869 19.2263 17.8322C19.28 17.7775 19.3102 17.7033 19.3102 17.626C19.3102 17.5486 19.28 17.4744 19.2263 17.4197C19.1726 17.365 19.0997 17.3343 19.0238 17.3343H15.7483C15.6723 17.3343 15.5995 17.365 15.5458 17.4197C15.4921 17.4744 15.4619 17.5486 15.4619 17.626C15.4619 17.7033 15.4921 17.7775 15.5458 17.8322C15.5995 17.8869 15.6723 17.9176 15.7483 17.9176Z" fill="#BD9B60"/>
</svg>
