<svg width="27" height="21" viewBox="0 0 27 21" fill="none" xmlns="http://www.w3.org/2000/svg">
<path d="M24.8528 14.3002H25.0827C25.3714 14.3013 25.6388 14.1499 25.7847 13.9027C25.9359 13.6497 25.9395 13.3358 25.7942 13.0795L23.9685 9.83366H24.3492C24.6386 9.83472 24.9065 9.68251 25.0521 9.43435C25.2051 9.17521 25.2051 8.85423 25.0521 8.59509L22.7594 4.88787C22.6166 4.63515 22.3484 4.47769 22.0565 4.4752C21.7645 4.47271 21.4936 4.62557 21.3464 4.87581L19.0371 8.6143C18.8923 8.87039 18.8962 9.18373 19.0474 9.43614C19.1935 9.68361 19.4614 9.83509 19.7503 9.83366H20.1306L18.3036 13.0795C18.1581 13.336 18.1624 13.6502 18.3148 13.9027C18.4608 14.1499 18.7282 14.3013 19.0168 14.3002H19.2468L18.6204 15.4347L16.7165 12.0513H17.1399C17.4554 12.0521 17.7472 11.8853 17.9049 11.614C18.0695 11.3387 18.0731 10.9971 17.9144 10.7185L15.6473 6.69146H16.2602C16.5757 6.69224 16.8675 6.52543 17.0252 6.25418C17.1889 5.97947 17.1925 5.63894 17.0346 5.36088L14.2748 0.45394C14.119 0.173883 13.8222 0 13.4999 0C13.1776 0 12.8808 0.173883 12.725 0.45394L9.96479 5.36043C9.80693 5.63849 9.81054 5.97902 9.97424 6.25374C10.1319 6.52499 10.4237 6.69179 10.7392 6.69101H11.3521L9.08505 10.718C8.92633 10.9967 8.92994 11.3383 9.0945 11.6136C9.25217 11.8848 9.54399 12.0516 9.85949 12.0509H10.2829L8.37902 15.4343L7.75308 14.3002H7.98302C8.27166 14.3013 8.53909 14.1499 8.68501 13.9027C8.83679 13.6499 8.84057 13.3358 8.69491 13.0795L6.86929 9.83366H7.24954C7.53887 9.83472 7.80679 9.68251 7.95242 9.43435C8.10573 9.17529 8.10573 8.85416 7.95242 8.59509L5.66016 4.88787C5.51734 4.63515 5.24912 4.47769 4.9572 4.4752C4.66528 4.47271 4.39437 4.62557 4.24719 4.87581L1.93738 8.6143C1.79257 8.87039 1.79651 9.18373 1.94773 9.43614C2.09381 9.68361 2.36165 9.83509 2.65061 9.83366H3.03086L1.20389 13.0795C1.05836 13.336 1.06266 13.6502 1.21514 13.9027C1.36106 14.1499 1.62849 14.3013 1.91713 14.3002H2.14707L0.105908 17.994C-0.0389147 18.2499 -0.034968 18.5632 0.116258 18.8154C0.262228 19.0631 0.530092 19.2147 0.819146 19.2134H3.6001V20.1067C3.6001 20.6001 4.00303 21 4.50008 21H5.40007C5.89711 21 6.30005 20.6001 6.30005 20.1067V19.2134H9.081C9.37043 19.2143 9.63838 19.062 9.78389 18.8136C9.93498 18.5621 9.93927 18.2496 9.79514 17.994L9.71999 17.86H11.7V20.1C11.7 20.5934 12.1029 20.9933 12.5999 20.9933H14.3999C14.897 20.9933 15.2999 20.5934 15.2999 20.1V17.8596H17.2799L17.2056 17.9936C17.0608 18.2495 17.0647 18.5627 17.216 18.815C17.3618 19.0628 17.6297 19.2146 17.9189 19.2134H20.6998V20.1067C20.6998 20.6001 21.1027 21 21.5998 21H22.4998C22.9968 21 23.3998 20.6001 23.3998 20.1067V19.2134H26.1807C26.4701 19.2143 26.7381 19.062 26.8836 18.8136C27.0347 18.5619 27.039 18.2493 26.8948 17.9936L24.8528 14.3002ZM18.4593 17.2606V16.9663V17.2606ZM11.4394 11.38C11.3586 11.2435 11.211 11.1598 11.0515 11.1598L9.87254 11.1558L12.5131 6.4659C12.591 6.32756 12.5892 6.1586 12.5084 6.02191C12.4276 5.88521 12.2799 5.80125 12.1203 5.80128L10.7505 5.79592L13.4891 0.889874L16.2606 5.79994H14.881C14.7213 5.79991 14.5736 5.88387 14.4928 6.02057C14.412 6.15726 14.4102 6.32622 14.4881 6.46456L17.1399 11.1598H15.9497C15.79 11.1598 15.6423 11.2437 15.5615 11.3804C15.4807 11.5171 15.4789 11.6861 15.5568 11.8244L18.4444 16.9663L8.55001 16.9623L11.4417 11.8257C11.5206 11.6871 11.5192 11.5173 11.4381 11.38H11.4394ZM5.40007 20.1067H4.50008V19.2134H5.40007V20.1067ZM8.94916 18.3201H0.950993L3.3013 14.0684C3.37776 13.9301 3.37502 13.762 3.2941 13.6262C3.21317 13.4904 3.06607 13.407 2.90711 13.4069H2.05212L4.19274 9.60498C4.27082 9.46636 4.26887 9.29703 4.18764 9.16022C4.1064 9.0234 3.95809 8.9397 3.79809 8.94036H2.79011L4.95007 5.44708L7.11004 8.94036H6.10206C5.94238 8.94033 5.79466 9.02429 5.71386 9.16099C5.63306 9.29769 5.63129 9.46664 5.70921 9.60498L7.84982 13.4069H6.99484C6.8358 13.4068 6.68855 13.4901 6.60752 13.626C6.52648 13.7618 6.5237 13.93 6.6002 14.0684L7.86333 16.3553L7.76748 16.525C7.60875 16.8036 7.61236 17.1452 7.77693 17.4205C7.9346 17.6918 8.22641 17.8586 8.54191 17.8578H8.69536L8.94916 18.3201ZM14.3999 20.0995H12.5999V17.8596H14.3999V20.0995ZM22.4998 20.1067H21.5998V19.2134H22.4998V20.1067ZM18.0507 18.3201L18.3058 17.8578H18.4593C18.7748 17.8586 19.0666 17.6918 19.2243 17.4205C19.3888 17.1452 19.3925 16.8036 19.2337 16.525L19.1379 16.3553L20.401 14.0684C20.4775 13.9301 20.4747 13.762 20.3938 13.6262C20.3129 13.4904 20.1658 13.407 20.0068 13.4069H19.1518L21.2924 9.60498C21.3705 9.46636 21.3686 9.29703 21.2873 9.16022C21.2061 9.0234 21.0578 8.9397 20.8978 8.94036H19.8898L22.0498 5.44708L24.2097 8.94036H23.2018C23.0421 8.94033 22.8944 9.02429 22.8136 9.16099C22.7328 9.29769 22.731 9.46664 22.8089 9.60498L24.9495 13.4069H24.0945C23.9355 13.4068 23.7883 13.4901 23.7072 13.626C23.6262 13.7618 23.6234 13.93 23.6999 14.0684L26.0484 18.3201H18.0507Z" fill="#BD9B60"/>
</svg>
