<svg width="20" height="23" viewBox="0 0 20 23" fill="none" xmlns="http://www.w3.org/2000/svg">
<path d="M19.1898 17.8789H18.1651C18.0392 17.1716 17.5112 16.5972 16.8198 16.39C17.0423 16.1207 17.1759 15.7794 17.1759 15.4082V14.8467C17.1759 14.537 16.9163 14.2852 16.5972 14.2852H15.9027V12.084H16.4583C16.6501 12.084 16.8055 11.9331 16.8055 11.7471C16.8055 11.561 16.6501 11.4102 16.4583 11.4102H14.6527C14.461 11.4102 14.3055 11.561 14.3055 11.7471C14.3055 11.9331 14.461 12.084 14.6527 12.084H15.2083V14.2852H14.5139C14.1947 14.2852 13.9352 14.537 13.9352 14.8467V15.4082C13.9352 15.7421 14.0433 16.0518 14.2269 16.3066H13.9899C13.3794 15.4909 12.3893 14.959 11.2731 14.959H11.0416V8.24316C11.0416 8.0571 10.8862 7.90625 10.6944 7.90625C10.5027 7.90625 10.3472 8.0571 10.3472 8.24316V14.959H9.65276V7.00781H17.199C17.6457 7.00781 18.0092 6.65513 18.0092 6.22168C18.0092 2.79104 15.1328 0 11.5972 0H8.40276C4.86716 0 1.99074 2.79104 1.99074 6.22168C1.99074 6.65513 2.35421 7.00781 2.80092 7.00781H8.95831V14.959H8.72683C7.61063 14.959 6.62059 15.4909 6.01003 16.3066H5.63318C5.90272 15.9885 6.0648 15.5816 6.0648 15.1387C6.0648 14.1231 5.21327 13.2969 4.16666 13.2969C3.12004 13.2969 2.26851 14.1231 2.26851 15.1387C2.26851 15.6785 2.50916 16.1649 2.8918 16.5021C2.34467 16.7659 1.94254 17.2736 1.83476 17.8789H0.810183C0.363471 17.8789 0 18.2316 0 18.665V19.1143C0 19.538 0.347499 19.8835 0.780369 19.8989L1.34361 21.7844C1.5574 22.5002 2.2431 23 3.01106 23H4.18207C4.37383 23 4.52929 22.8492 4.52929 22.6631C4.52929 22.477 4.37383 22.3262 4.18207 22.3262H3.01106C2.55027 22.3262 2.13888 22.0263 2.0106 21.5968L1.50384 19.9004H18.4962L17.9894 21.5968C17.8611 22.0262 17.4497 22.3262 16.9889 22.3262H5.80244C5.61068 22.3262 5.45522 22.477 5.45522 22.6631C5.45522 22.8492 5.61068 23 5.80244 23H16.9889C17.7569 23 18.4426 22.5002 18.6564 21.7844L19.2196 19.8989C19.6525 19.8835 20 19.538 20 19.1143V18.665C20 18.2316 19.6365 17.8789 19.1898 17.8789ZM6.52776 6.33398C6.48614 6.33398 6.45869 6.31336 6.44596 6.30106C6.43327 6.28875 6.41202 6.26206 6.41202 6.22168C6.41202 3.65498 7.66864 1.58938 9.65276 0.815736V6.33398H6.52776ZM13.5771 6.30106C13.5645 6.31336 13.537 6.33398 13.4953 6.33398H10.3472V0.806437C12.3448 1.57294 13.6111 3.64492 13.6111 6.22168C13.6111 6.26206 13.5898 6.28875 13.5771 6.30106ZM17.3148 6.22168C17.3148 6.28358 17.2628 6.33398 17.199 6.33398H14.2964C14.3018 6.29701 14.3055 6.25968 14.3055 6.22168C14.3055 4.78863 13.9334 3.45054 13.2294 2.35211C12.7854 1.65941 12.2265 1.09412 11.5767 0.673828H11.5972C14.7499 0.673828 17.3148 3.16259 17.3148 6.22168ZM2.68518 6.22168C2.68518 3.16259 5.25008 0.673828 8.40276 0.673828H8.44641C7.7966 1.09412 7.23762 1.65941 6.79369 2.35211C6.08971 3.45058 5.71758 4.78863 5.71758 6.22168C5.71758 6.25968 5.72128 6.29701 5.7267 6.33398H2.80092C2.73712 6.33398 2.68518 6.28358 2.68518 6.22168ZM14.6296 15.4082V14.959H16.4814V15.4082C16.4814 15.9036 16.0661 16.3066 15.5555 16.3066C15.045 16.3066 14.6296 15.9036 14.6296 15.4082ZM16.25 16.9805C16.824 16.9805 17.3087 17.3616 17.4547 17.8789H14.6116C14.5781 17.564 14.4977 17.2625 14.3781 16.9805H16.25ZM8.72683 15.6328H11.2731C12.6232 15.6328 13.741 16.6134 13.9118 17.8789H6.08818C6.25897 16.6134 7.37674 15.6328 8.72683 15.6328ZM4.16666 13.9707C4.83036 13.9707 5.37036 14.4947 5.37036 15.1387C5.37036 15.7827 4.83036 16.3066 4.16666 16.3066C3.50295 16.3066 2.96296 15.7827 2.96296 15.1387C2.96296 14.4947 3.50295 13.9707 4.16666 13.9707ZM3.74999 16.9805H5.62189C5.50226 17.2625 5.42184 17.564 5.38832 17.8789H2.54527C2.69129 17.3616 3.17592 16.9805 3.74999 16.9805ZM0.694443 18.665C0.694443 18.6031 0.746387 18.5527 0.810183 18.5527H19.1898C19.2536 18.5527 19.3055 18.6031 19.3055 18.665V19.1143C19.3055 19.1762 19.2536 19.2266 19.1898 19.2266H0.810183C0.746387 19.2266 0.694443 19.1762 0.694443 19.1143V18.665Z" fill="#BD9B60"/>
</svg>
