<svg width="21" height="21" viewBox="0 0 21 21" fill="none" xmlns="http://www.w3.org/2000/svg">
<path d="M0.418566 0H7.13954H13.8605H20.5814C20.8126 0 21 0.187464 21 0.418566V7.13958C21 7.37074 20.8125 7.55815 20.5814 7.55815H17.6395V13.442H20.5814C20.8126 13.442 21 13.6294 21 13.8605V20.5814C21 20.8126 20.8125 21 20.5814 21H13.8605H7.13954H0.418566C0.187408 21 0 20.8125 0 20.5814V13.8605C0 13.6294 0.187465 13.442 0.418566 13.442H3.36046V7.55815H0.418566C0.187408 7.55815 0 7.37068 0 7.13958V0.418566C0 0.187407 0.187465 0 0.418566 0ZM18.5877 18.0289V18.865H15.8541V15.5771H18.5266V16.4132H16.9437V16.7983H18.334V17.5968H16.9437V18.0289H18.5877H18.5877ZM12.1204 15.5771V18.865H11.2092L9.95991 17.3713V18.865H8.87962V15.5771H9.79077L11.0401 17.0708V15.5771H12.1204ZM3.77908 18.9401C3.42526 18.9401 3.1074 18.8665 2.82561 18.7194C2.54376 18.5722 2.32301 18.3679 2.16331 18.1064C2.00361 17.845 1.92379 17.5499 1.92379 17.2211C1.92379 16.8923 2.00361 16.5972 2.16331 16.3357C2.32301 16.0743 2.54376 15.87 2.82561 15.7228C3.10746 15.5756 3.42526 15.5021 3.77908 15.5021C4.13284 15.5021 4.45076 15.5756 4.7325 15.7228C5.01429 15.87 5.23504 16.0743 5.3948 16.3357C5.55444 16.5972 5.63431 16.8923 5.63431 17.2211C5.63431 17.5499 5.55444 17.845 5.3948 18.1064C5.23504 18.3679 5.01429 18.5722 4.7325 18.7194C4.45071 18.8665 4.13284 18.9401 3.77908 18.9401ZM3.77908 18.043C3.91682 18.043 4.0413 18.0093 4.15247 17.942C4.26364 17.8747 4.35211 17.7791 4.41788 17.6555C4.48364 17.5318 4.51647 17.387 4.51647 17.221C4.51647 17.0551 4.48359 16.9103 4.41788 16.7866C4.35211 16.6629 4.2637 16.5674 4.15247 16.5001C4.0413 16.4328 3.91688 16.3991 3.77908 16.3991C3.64123 16.3991 3.5168 16.4328 3.40569 16.5001C3.29452 16.5674 3.20605 16.6629 3.14028 16.7866C3.07451 16.9103 3.04163 17.0551 3.04163 17.221C3.04163 17.387 3.07451 17.5318 3.14028 17.6555C3.20605 17.7791 3.29447 17.8747 3.40569 17.942C3.5168 18.0093 3.64129 18.043 3.77908 18.043ZM15.4809 8.85623V12.1441H14.5697L13.3204 10.6504V12.1441H12.2401V8.85623H13.1512L14.4006 10.3498V8.85623H15.4809ZM6.58529 8.85623H7.6938V12.1441H6.58529V8.85623ZM15.9247 2.00641H17.0331V4.43469H18.5173V5.29423H15.9247V2.00641H15.9247ZM9.20369 2.00641H10.3121V4.43469H11.7964V5.29423H9.20374V2.00641H9.20369ZM4.39432 4.7212H3.14495L2.9242 5.29423H1.79697L3.23421 2.00641H4.32389L5.76119 5.29423H4.61513L4.39438 4.7212H4.39432ZM4.08903 3.92276L3.76964 3.09609L3.45024 3.92276H4.08898H4.08903ZM17.2209 14.2792H14.2791V20.163H20.1628V14.2792H17.2209ZM13.4419 14.2792H10.5H7.5581V20.163H13.4419V14.2792ZM6.72092 14.2792H3.77903H0.837126V20.163H6.72092V14.2792ZM16.8023 7.5582H13.8605H10.9186V13.442H13.8605H16.8023V7.5582ZM10.0814 7.5582H7.13948H4.19759V13.442H7.13948H10.0814V7.5582ZM14.279 0.837189V6.72101H17.2209H20.1628V0.837189H14.279ZM7.55805 0.837189V6.72101H10.4999H13.4418V0.837189H7.55805ZM6.72086 0.837189H0.83707V6.72101H3.77897H6.72086V0.837189Z" fill="#BD9B60"/>
</svg>
