<svg width="19" height="24" viewBox="0 0 19 24" fill="none" xmlns="http://www.w3.org/2000/svg">
<path d="M18.3905 16.9239C18.3876 16.9193 18.3848 16.9147 18.382 16.9102C18.3613 16.8772 18.34 16.8445 18.3183 16.8121C18.3064 16.7942 18.2943 16.7763 18.2821 16.7586C18.2672 16.7371 18.2521 16.7157 18.2368 16.6944C18.217 16.6668 18.1968 16.6395 18.1763 16.6124C18.1702 16.6043 18.1645 16.5961 18.1584 16.5881C18.154 16.5824 18.1494 16.577 18.145 16.5713C18.1203 16.5395 18.0951 16.5082 18.0695 16.4771C18.0606 16.4662 18.0517 16.4553 18.0427 16.4446C18.0172 16.4143 17.9911 16.3845 17.9648 16.355C17.9538 16.3426 17.9429 16.3302 17.9318 16.318C17.9099 16.2939 17.8873 16.2704 17.8648 16.2468C17.848 16.2292 17.8313 16.2115 17.8142 16.1942C17.8014 16.1813 17.7881 16.1687 17.7751 16.1559C17.2761 15.6646 16.6612 15.3058 15.9688 15.1075C15.957 15.1041 15.9449 15.1013 15.9327 15.099C15.9326 15.099 12.6658 14.5087 12.6657 14.5087C12.6599 14.5076 12.6541 14.5073 12.6483 14.5065C12.4955 14.4823 12.3393 14.5022 12.1991 14.5619C12.0854 14.4261 12.0105 14.2395 12.0105 14.067V13.4917C12.217 13.3635 12.4175 13.2193 12.611 13.0572C13.4206 12.3791 13.9304 11.4003 14.0404 10.3326C14.6349 10.3058 15.1099 9.82706 15.1099 9.24234V8.42259C15.1099 8.09109 14.9572 7.78434 14.7002 7.57959V5.69513C15.8814 5.12883 16.1381 4.46859 16.1381 4.00275C16.1381 3.20344 15.3728 2.20294 14.1409 1.39162C13.3516 0.871922 11.6992 0 9.49995 0C7.30071 0 5.64834 0.871922 4.85909 1.39162C3.62715 2.20289 2.86185 3.20339 2.86185 4.00275C2.86185 4.46859 3.11854 5.12883 4.29979 5.69513V7.57959C4.04276 7.78434 3.89001 8.09109 3.89001 8.42259V9.24234C3.89001 9.82706 4.36508 10.3058 4.95952 10.3326C5.06948 11.4003 5.57939 12.3792 6.38897 13.0572C6.58249 13.2193 6.78299 13.3635 6.98947 13.4917V14.067C6.98947 14.2395 6.91455 14.426 6.80082 14.5619C6.65535 14.4998 6.49257 14.48 6.33428 14.5087L3.06727 15.099C3.05508 15.1013 3.04304 15.1041 3.03118 15.1075C2.33917 15.3057 1.72455 15.6642 1.22563 16.1552C1.21228 16.1683 1.19879 16.1812 1.18563 16.1944C1.16877 16.2114 1.15234 16.2289 1.13576 16.2463C1.11297 16.2701 1.09022 16.2939 1.06796 16.3182C1.05702 16.3302 1.04633 16.3425 1.03548 16.3546C1.00898 16.3843 0.982815 16.4143 0.957228 16.4447C0.948217 16.4554 0.939447 16.4663 0.930533 16.477C0.904898 16.5082 0.879648 16.5395 0.854976 16.5713C0.850591 16.577 0.845965 16.5824 0.84158 16.5881C0.835412 16.5961 0.829726 16.6043 0.823655 16.6124C0.803175 16.6395 0.782985 16.6668 0.763181 16.6944C0.747809 16.7157 0.732727 16.7372 0.717837 16.7587C0.705646 16.7764 0.693647 16.7941 0.681745 16.812C0.660013 16.8445 0.638714 16.8772 0.617946 16.9102C0.615103 16.9147 0.61226 16.9193 0.609465 16.9238C0.210046 17.5641 0 18.2911 0 19.0494V19.4781C0 19.6723 0.161859 19.8297 0.361496 19.8297C0.561134 19.8297 0.722993 19.6723 0.722993 19.4781V19.0494C0.722993 18.7067 0.775227 18.3718 0.875841 18.0518C1.08858 18.2164 1.34677 18.304 1.61512 18.304C1.65801 18.304 1.70123 18.3018 1.74445 18.2972C2.06099 18.2642 2.34539 18.1133 2.54522 17.8722L2.93862 17.3976C3.13845 17.1565 3.22981 16.8541 3.19588 16.5462C3.1689 16.3015 3.06511 16.0767 2.89934 15.897C3.00323 15.8559 3.10934 15.8189 3.2181 15.7871L5.3027 15.4104L6.95685 17.6622C7.12242 17.8875 7.38167 18.0117 7.65055 18.0117C7.76335 18.0117 7.87784 17.9898 7.98781 17.9444L8.09791 17.8989L8.5793 18.4433L7.88498 23.2966H3.34223V20.4451C3.34223 20.2508 3.18037 20.0934 2.98073 20.0934C2.78109 20.0934 2.61923 20.2508 2.61923 20.4451V23.2966H1.17315C0.924943 23.2966 0.723089 23.1002 0.723089 22.8588V21.1144C0.723089 20.9202 0.56123 20.7628 0.361593 20.7628C0.161955 20.7628 9.65042e-05 20.9202 9.65042e-05 21.1144V22.8588C9.65042e-05 23.488 0.526343 24 1.1732 24H17.8269C18.4738 24 19 23.488 19 22.8588V19.0495C18.9999 18.2912 18.7899 17.5642 18.3905 16.9239ZM2.37575 16.9562L1.98235 17.4308C1.90376 17.5257 1.79192 17.585 1.6674 17.598C1.54308 17.611 1.42064 17.5761 1.32316 17.4996L1.17229 17.3813C1.20467 17.3251 1.23859 17.27 1.27396 17.216C1.27434 17.2154 1.27483 17.2148 1.27521 17.2141C1.30557 17.1678 1.33752 17.1227 1.37004 17.078C1.37992 17.0645 1.38975 17.051 1.39982 17.0376C1.42883 16.999 1.45866 16.9611 1.48926 16.9237C1.49716 16.9141 1.50492 16.9043 1.51292 16.8947C1.54747 16.8535 1.58312 16.8133 1.6196 16.7738C1.63025 16.7622 1.64109 16.7509 1.65189 16.7395C1.68803 16.7014 1.72475 16.6638 1.76267 16.6274C1.7659 16.6243 1.76908 16.621 1.77235 16.6179C1.91214 16.4845 2.06369 16.3624 2.22593 16.2528L2.30515 16.3149C2.40264 16.3914 2.46369 16.5002 2.47704 16.6213C2.49029 16.7424 2.45439 16.8613 2.37575 16.9562ZM16.6948 16.3148L16.7741 16.2527C16.9364 16.3623 17.0879 16.4844 17.2276 16.6178C17.2309 16.6209 17.2341 16.6242 17.2373 16.6273C17.2753 16.6638 17.312 16.7013 17.3481 16.7394C17.3589 16.7508 17.3697 16.7621 17.3804 16.7737C17.4169 16.8132 17.4525 16.8535 17.4871 16.8946C17.4951 16.9042 17.5028 16.914 17.5107 16.9237C17.5413 16.961 17.5712 16.9989 17.6002 17.0375C17.6102 17.0509 17.6201 17.0644 17.63 17.0779C17.6625 17.1226 17.6944 17.1677 17.7248 17.214C17.7252 17.2146 17.7257 17.2152 17.726 17.2159C17.7615 17.2699 17.7954 17.325 17.8277 17.3812L17.6768 17.4995C17.5793 17.576 17.457 17.6108 17.3326 17.598C17.2081 17.585 17.0962 17.5256 17.0176 17.4307L16.6242 16.9561C16.4619 16.7603 16.4937 16.4727 16.6948 16.3148ZM12.3786 15.2835C12.3791 15.2831 12.3796 15.2827 12.3801 15.2824L12.4747 15.2136C12.4915 15.2013 12.513 15.1966 12.5335 15.2002L12.9127 15.2687L11.4549 17.2532C11.4184 17.3029 11.3526 17.3209 11.2948 17.2971L10.2201 16.8529L12.3786 15.2835ZM9.49995 16.4984L7.39338 14.9667C7.59239 14.7125 7.71252 14.389 7.71252 14.067V13.8612C8.27013 14.0884 8.86596 14.2073 9.49595 14.2141C9.4973 14.2141 9.49865 14.2141 9.5 14.2141C9.50135 14.2141 9.5027 14.2141 9.50405 14.2141C10.134 14.2072 10.7299 14.0884 11.2875 13.8612V14.067C11.2875 14.3891 11.4076 14.7125 11.6066 14.9667L9.49995 16.4984ZM10.2037 17.6103L9.87436 17.9827H9.12569L8.79638 17.6103L9.5 17.3196L10.2037 17.6103ZM4.29979 4.89347C3.83518 4.61484 3.58489 4.30706 3.58489 4.0027C3.58489 3.36877 4.45548 2.50673 5.26439 1.97405C5.98507 1.49953 7.4936 0.703359 9.49995 0.703359C11.5063 0.703359 13.0148 1.49953 13.7355 1.97409C14.5444 2.50678 15.415 3.36881 15.415 4.00275C15.415 4.30706 15.1647 4.61489 14.7001 4.89352V4.254C14.7001 3.75736 14.3546 3.32456 13.8597 3.20152C12.9238 2.96883 11.0834 2.57845 9.27362 2.57775C9.27198 2.57775 9.27063 2.57775 9.26899 2.57775C7.70182 2.57775 6.14481 2.91342 5.11444 3.19514C4.63479 3.3263 4.29979 3.75633 4.29979 4.24088V4.89347ZM5.55356 6.12816C5.5485 6.12502 5.54335 6.12192 5.53833 6.11878C5.51492 6.1042 5.49236 6.08953 5.47044 6.07481C5.46152 6.06881 5.45271 6.06281 5.44403 6.05677C5.42611 6.04439 5.40871 6.03192 5.39185 6.01945C5.38023 6.01083 5.36901 6.0022 5.35792 5.99358C5.34462 5.98327 5.33156 5.97295 5.31904 5.96259C5.30569 5.95153 5.29302 5.94052 5.28058 5.92945C5.27124 5.92116 5.26179 5.91291 5.25292 5.90461C5.23876 5.8913 5.22551 5.87803 5.21264 5.86477C5.20647 5.85844 5.20002 5.85206 5.19414 5.84573C5.19351 5.84503 5.19298 5.84433 5.19235 5.84367H11.2617C11.4613 5.84367 11.6232 5.68622 11.6232 5.49202C11.6232 5.29777 11.4613 5.14036 11.2617 5.14036H5.02283V4.24092C5.02283 4.07011 5.14094 3.91852 5.31007 3.8723C6.29679 3.60248 7.78402 3.28111 9.26899 3.28111C9.27034 3.28111 9.27193 3.28111 9.27328 3.28111C11.0041 3.28181 12.7776 3.65845 13.6807 3.88298C13.8552 3.92634 13.977 4.07892 13.977 4.254V5.14031H13.0075C12.8079 5.14031 12.646 5.29777 12.646 5.49197C12.646 5.68627 12.8079 5.84367 13.0076 5.84367H13.8077C13.8071 5.84438 13.8066 5.84508 13.806 5.84573C13.8001 5.85206 13.7936 5.85844 13.7875 5.86477C13.7745 5.87803 13.7613 5.8913 13.7472 5.90461C13.7383 5.91291 13.7289 5.92116 13.7195 5.92945C13.7071 5.94052 13.6944 5.95153 13.6811 5.96259C13.6685 5.97295 13.6555 5.98327 13.6422 5.99358C13.6311 6.0022 13.6199 6.01083 13.6082 6.01945C13.5914 6.03192 13.574 6.04439 13.5561 6.05677C13.5474 6.06277 13.5386 6.06881 13.5297 6.07481C13.5077 6.08953 13.4852 6.1042 13.4618 6.11878C13.4568 6.12192 13.4516 6.12502 13.4465 6.12816C13.2963 6.22012 13.1173 6.30886 12.9127 6.39117C12.9084 6.39291 12.9045 6.39534 12.9003 6.39722C12.1258 6.70781 10.9618 6.94252 9.50005 6.94252C8.03826 6.94252 6.87431 6.70781 6.09976 6.39722C6.09556 6.39534 6.09171 6.39291 6.08742 6.39117C5.88282 6.30886 5.70381 6.22012 5.55356 6.12816ZM5.58768 6.94537V7.6305C5.38891 7.53028 5.18778 7.47637 5.02288 7.44755V6.63033C5.17795 6.73753 5.36443 6.84337 5.58768 6.94537ZM13.4123 6.94533C13.6355 6.84338 13.822 6.73753 13.9771 6.63033V7.44745C13.8122 7.47628 13.611 7.53023 13.4123 7.63045V6.94533ZM6.86072 12.5242C6.12033 11.9041 5.68304 10.9748 5.66097 9.97448C5.65678 9.78328 5.49617 9.63037 5.29957 9.63037H5.01194C4.79202 9.63037 4.61305 9.45633 4.61305 9.24234V8.42259C4.61305 8.30461 4.66775 8.1953 4.75973 8.12245C4.88719 8.13342 5.12513 8.17059 5.32694 8.29528C5.32896 8.29655 5.33094 8.29777 5.33296 8.29903C5.36144 8.31694 5.3891 8.33667 5.41565 8.35828C5.41873 8.36077 5.42182 8.3633 5.42485 8.36588C5.43777 8.3767 5.45044 8.38786 5.46273 8.39967C5.47347 8.40998 5.4847 8.41959 5.49617 8.42878C5.49954 8.4315 5.50296 8.43403 5.50639 8.43666C5.51506 8.44326 5.52388 8.44955 5.53289 8.4555C5.53645 8.45784 5.53992 8.46023 5.54354 8.46248C5.55578 8.47017 5.56816 8.47744 5.58093 8.48395C5.58098 8.484 5.58108 8.48405 5.58112 8.48409C5.59409 8.4907 5.60734 8.49661 5.62078 8.50205C5.62449 8.50355 5.62825 8.50491 5.63201 8.50631C5.64222 8.5102 5.65249 8.51372 5.6629 8.51691C5.6668 8.51812 5.67065 8.51934 5.67461 8.52042C5.68824 8.52427 5.70198 8.52764 5.71585 8.53031C5.71609 8.53036 5.71629 8.53041 5.71653 8.53045C5.73079 8.53317 5.7452 8.53509 5.75966 8.53659C5.76356 8.53702 5.76746 8.53725 5.77132 8.53753C5.78225 8.53842 5.79324 8.53894 5.80428 8.53908C5.80678 8.53913 5.80924 8.53941 5.8117 8.53941C5.81329 8.53941 5.81493 8.53917 5.81652 8.53917C5.83073 8.53903 5.84499 8.53847 5.85926 8.53716C5.85964 8.53711 5.86003 8.53711 5.86037 8.53711C5.87497 8.5357 5.88957 8.5335 5.90412 8.53078C5.90822 8.53003 5.91231 8.52909 5.91641 8.52825C5.9272 8.52595 5.93795 8.52333 5.94869 8.52038C5.95293 8.5192 5.95717 8.51808 5.96141 8.51677C5.97568 8.51236 5.98984 8.50758 6.00387 8.50191C6.19025 8.4262 6.31067 8.25052 6.31067 8.0542V7.21317C7.24154 7.49836 8.38612 7.64583 9.49995 7.64583C10.6138 7.64583 11.7584 7.49836 12.6892 7.21317V8.0542C12.6892 8.25052 12.8097 8.42625 12.996 8.50191C13.0101 8.50762 13.0244 8.51245 13.0387 8.51686C13.0427 8.51808 13.0468 8.51916 13.0508 8.52033C13.0618 8.52337 13.0728 8.52609 13.0839 8.52839C13.0878 8.52919 13.0916 8.53008 13.0955 8.53078C13.1248 8.53622 13.1543 8.53898 13.1837 8.53922C13.1852 8.53922 13.1867 8.53945 13.1882 8.53945C13.1905 8.53945 13.1928 8.53917 13.1952 8.53913C13.2065 8.53898 13.2178 8.53842 13.2291 8.53753C13.2327 8.53725 13.2364 8.53702 13.2401 8.53664C13.269 8.53369 13.2975 8.52825 13.3255 8.52038C13.3293 8.5193 13.3331 8.51813 13.3369 8.51695C13.3474 8.51377 13.3577 8.51016 13.368 8.50627C13.3717 8.50486 13.3755 8.5035 13.3792 8.502C13.3926 8.49656 13.4059 8.49066 13.4189 8.48405C13.419 8.484 13.4191 8.48395 13.4192 8.48391C13.4319 8.47739 13.4443 8.47013 13.4565 8.46248C13.4601 8.46023 13.4636 8.4578 13.4672 8.45545C13.4762 8.4495 13.485 8.44322 13.4936 8.43666C13.4971 8.43403 13.5006 8.43145 13.5039 8.42873C13.5154 8.4195 13.5266 8.40994 13.5373 8.39962C13.5495 8.38791 13.5621 8.37689 13.5749 8.36616C13.5782 8.36334 13.5816 8.36058 13.5849 8.35781C13.5968 8.34816 13.6088 8.33883 13.6211 8.32997C13.6222 8.32912 13.6233 8.32828 13.6244 8.32744C13.6377 8.31792 13.6513 8.30902 13.665 8.30034C13.6686 8.298 13.6723 8.29575 13.676 8.29345C13.6882 8.286 13.7006 8.27878 13.713 8.27194C13.7147 8.27095 13.7165 8.26987 13.7184 8.26889C13.7325 8.26125 13.7467 8.25403 13.761 8.24714C13.7646 8.24541 13.7681 8.24376 13.7717 8.24208C13.7845 8.23608 13.7974 8.23027 13.8102 8.22483C13.812 8.22408 13.8138 8.22328 13.8155 8.22253C13.8304 8.21634 13.8452 8.21058 13.86 8.20509C13.8627 8.20411 13.8653 8.20317 13.8679 8.20223C13.882 8.19713 13.896 8.1923 13.91 8.1878C13.9108 8.18756 13.9115 8.18728 13.9123 8.18705C13.928 8.18203 13.9435 8.17739 13.9589 8.17308C13.9595 8.17294 13.9601 8.17275 13.9606 8.17261C14.0707 8.14186 14.1716 8.12831 14.2403 8.12236C14.3323 8.19525 14.387 8.30452 14.387 8.42255V9.2423C14.387 9.45628 14.208 9.63033 13.9881 9.63033H13.7005C13.5038 9.63033 13.3433 9.78323 13.3391 9.97444C13.317 10.9747 12.8797 11.904 12.1393 12.5242C11.3716 13.1672 10.4837 13.4992 9.5001 13.5107C8.51641 13.4992 7.62857 13.1673 6.86072 12.5242ZM7.7051 17.2971C7.64722 17.3209 7.58145 17.3028 7.54502 17.2533L6.08718 15.2688L6.46636 15.2003C6.48698 15.1966 6.50843 15.2014 6.52525 15.2136L6.61983 15.2824C6.62037 15.2827 6.62085 15.2831 6.62138 15.2835L8.7798 16.8529L7.7051 17.2971ZM8.61491 23.2966L9.27444 18.6861H9.72546L10.385 23.2966H8.61491ZM17.8268 23.2966H16.3809V20.4451C16.3809 20.2508 16.219 20.0934 16.0194 20.0934C15.8197 20.0934 15.6579 20.2508 15.6579 20.4451V23.2966H11.1151L10.4208 18.4433L10.9021 17.8989L11.0122 17.9444C11.1222 17.9898 11.2366 18.0117 11.3495 18.0117C11.6183 18.0117 11.8777 17.8875 12.0432 17.6621L13.6973 15.4104L15.7819 15.7871C15.8907 15.8189 15.9968 15.8559 16.1007 15.897C15.7184 16.3125 15.69 16.9496 16.0612 17.3975L16.4547 17.8722C16.6545 18.1133 16.9389 18.2642 17.2554 18.2972C17.2987 18.3017 17.3418 18.304 17.3848 18.304C17.653 18.304 17.9113 18.2163 18.124 18.0518C18.2246 18.3717 18.2769 18.7066 18.2769 19.0494V22.8588H18.2769C18.277 23.1002 18.075 23.2966 17.8268 23.2966Z" fill="#BD9B60"/>
<path d="M14.4347 20.0934H12.5309C12.2052 20.0934 11.9403 20.3512 11.9403 20.6679V21.6546C11.9403 21.9714 12.2052 22.2291 12.5309 22.2291H14.4347C14.7603 22.2291 15.0252 21.9714 15.0252 21.6546V20.6679C15.0252 20.3511 14.7603 20.0934 14.4347 20.0934ZM12.6633 21.5257V20.7967H14.3021V21.5257H12.6633Z" fill="#BD9B60"/>
<path d="M6.46911 20.0934H4.5653C4.23966 20.0934 3.97477 20.3511 3.97477 20.6679V21.6546C3.97477 21.9713 4.2397 22.2291 4.5653 22.2291H6.46911C6.79475 22.2291 7.05968 21.9713 7.05968 21.6546V20.6679C7.05973 20.3511 6.79475 20.0934 6.46911 20.0934ZM6.33669 21.5257H4.69781V20.7967H6.33669V21.5257Z" fill="#BD9B60"/>
</svg>
