<svg width="21" height="17" viewBox="0 0 21 17" fill="none" xmlns="http://www.w3.org/2000/svg">
<path fill-rule="evenodd" clip-rule="evenodd" d="M1.58032 2.51024C1.58032 1.12608 2.70645 0 4.09057 0C5.47468 0 6.60077 1.12608 6.60077 2.51024C6.60077 3.89439 5.47468 5.02048 4.09057 5.02048C2.70641 5.02048 1.58032 3.89439 1.58032 2.51024ZM20.3507 5.58772H20.362C20.7011 5.58923 20.9748 5.86539 20.9733 6.20443C20.9718 6.5426 20.6972 6.81572 20.3593 6.81572H20.3508C19.9739 6.81572 19.6222 6.9836 19.385 7.27691L18.6816 8.14685C18.3117 8.60417 17.7627 8.88275 17.1752 8.91113C16.5883 8.93984 16.0144 8.7152 15.6023 8.29565L14.5224 7.19643C14.2053 6.87368 13.6796 6.86371 13.3505 7.17424L11.9425 8.5029C11.5568 8.86688 11.0548 9.06617 10.5257 9.06617L10.4927 9.06592C9.95146 9.05744 9.44311 8.84153 9.06122 8.45787L7.8419 7.2329C7.6835 7.07375 7.47305 6.98631 7.24874 6.98631H7.24254C7.01593 6.98795 6.80433 7.07859 6.64675 7.24147L5.59338 8.33056C5.1957 8.74178 4.63911 8.97114 4.0676 8.95961C3.49564 8.94817 2.94915 8.69683 2.56815 8.2701L1.57077 7.15287C1.33539 6.88918 0.997622 6.73792 0.644108 6.73792H0.627496C0.288379 6.73792 0.013492 6.46287 0.013492 6.12375C0.013492 5.78467 0.288379 5.50975 0.627496 5.50975H0.644108C1.34707 5.50975 2.01875 5.81051 2.4869 6.33494L3.48428 7.45216C3.64104 7.62775 3.85686 7.72701 4.09217 7.73173C4.3274 7.73649 4.54712 7.64588 4.71069 7.47673L5.76405 6.38764C6.15272 5.98581 6.67464 5.76228 7.23372 5.75826C7.79367 5.75473 8.31793 5.97027 8.71234 6.36652L9.93165 7.5915C10.2541 7.91544 10.7672 7.92352 11.0997 7.60975L12.5077 6.28109C12.9032 5.90784 13.42 5.70707 13.9642 5.71823C14.508 5.72848 15.0173 5.94783 15.3984 6.33576L16.4783 7.43498C16.6478 7.60757 16.8742 7.696 17.116 7.68452C17.3576 7.67287 17.5745 7.56283 17.7266 7.37469L18.4301 6.50474C18.9018 5.92154 19.6012 5.58772 20.3507 5.58772ZM20.3774 9.43566H20.3887C20.7278 9.43718 21.0015 9.71329 21 10.0523C20.9985 10.3905 20.7239 10.6636 20.386 10.6636H20.3775C20.0006 10.6636 19.6489 10.8315 19.4117 11.1248L18.7082 11.9947C18.3385 12.452 17.7895 12.7306 17.202 12.759C16.6145 12.7877 16.0412 12.5631 15.629 12.1435L14.5491 11.0443C14.2319 10.7215 13.7063 10.7116 13.3772 11.0221L11.9692 12.3508C11.5835 12.7148 11.0815 12.9141 10.5524 12.9141L10.5194 12.9138C9.97818 12.9053 9.46984 12.6894 9.08794 12.3058L7.86862 11.0808C7.70874 10.9202 7.49735 10.8323 7.26922 10.8343C7.04261 10.8359 6.83101 10.9265 6.67343 11.0894L5.6201 12.1785C5.22237 12.5896 4.66661 12.8199 4.09428 12.8075C3.52231 12.7961 2.97582 12.5447 2.59483 12.118L1.59749 11.0008C1.3621 10.7371 1.02434 10.5858 0.670822 10.5858H0.654211C0.315134 10.5858 0.0402063 10.3109 0.0402063 9.97182C0.0402063 9.63274 0.315093 9.35781 0.654211 9.35781H0.670822C1.37379 9.35781 2.04546 9.65858 2.51353 10.1829L3.51091 11.3001C3.66767 11.4757 3.8835 11.575 4.11881 11.5797C4.35473 11.5852 4.57375 11.4939 4.73736 11.3247L5.79069 10.2356C6.17935 9.8338 6.70128 9.61026 7.26036 9.60624C7.8199 9.60235 8.34457 9.81829 8.73898 10.2145L9.95829 11.4395C10.2809 11.7635 10.7939 11.7715 11.1263 11.4577L12.5343 10.1291C12.9298 9.75583 13.4484 9.55518 13.9909 9.56621C14.5347 9.57646 15.0439 9.79582 15.4251 10.1837L16.505 11.283C16.6745 11.4556 16.9012 11.544 17.1427 11.5325C17.3843 11.5208 17.6012 11.4108 17.7533 11.2227L18.4567 10.3527C18.9284 9.76949 19.6279 9.43566 20.3774 9.43566ZM20.3485 13.2145H20.3372C19.5877 13.2145 18.8882 13.5483 18.4166 14.1315L17.7131 15.0015C17.561 15.1896 17.3441 15.2997 17.1025 15.3113C16.8608 15.3228 16.6343 15.2344 16.4648 15.0618L15.3849 13.9625C15.0038 13.5746 14.4945 13.3553 13.9507 13.345C13.4061 13.3339 12.8897 13.5346 12.4941 13.9079L11.0862 15.2365C10.7537 15.5503 10.2406 15.5422 9.91812 15.2183L8.6988 13.9933C8.3044 13.5971 7.78034 13.3817 7.22019 13.385C6.66111 13.3891 6.13918 13.6126 5.75052 14.0144L4.69715 15.1035C4.53358 15.2727 4.31431 15.3635 4.07864 15.3585C3.84333 15.3538 3.62751 15.2545 3.47074 15.0789L2.47341 13.9617C2.00526 13.4373 1.33358 13.1365 0.630616 13.1365H0.614004C0.274887 13.1365 0 13.4115 0 13.7505C0 14.0896 0.274928 14.3645 0.614004 14.3645H0.630616C0.98413 14.3645 1.32189 14.5158 1.55728 14.7795L2.55462 15.8967C2.93561 16.3234 3.48211 16.5748 4.05407 16.5862C4.6264 16.5973 5.18216 16.3684 5.57985 15.9572L6.63317 14.8681C6.79076 14.7053 7.00236 14.6146 7.22897 14.613H7.23516C7.45948 14.613 7.66993 14.7004 7.82833 14.8596L9.04764 16.0845C9.42954 16.4682 9.93789 16.6841 10.4791 16.6926L10.5121 16.6928C11.0412 16.6928 11.5432 16.4935 11.9289 16.1296L13.3369 14.8009C13.6659 14.4904 14.1917 14.5003 14.5088 14.8231L15.5887 15.9223C16.0009 16.3419 16.5749 16.5663 17.1616 16.5378C17.7492 16.5094 18.2981 16.2308 18.6679 15.7735L19.3714 14.9035C19.6086 14.6102 19.9603 14.4424 20.3372 14.4424H20.3457C20.6835 14.4424 20.9581 14.1693 20.9597 13.8311C20.9613 13.4921 20.6876 13.216 20.3485 13.2145Z" fill="#BD9B60"/>
</svg>
