<svg width="20" height="20" viewBox="0 0 20 20" fill="none" xmlns="http://www.w3.org/2000/svg">
<path d="M18.4717 1.52998C18.4713 1.52959 18.471 1.5292 18.4707 1.52885C18.4703 1.5285 18.4699 1.52823 18.4696 1.52791C17.9925 1.05103 17.4242 0.678175 16.7937 0.420085C16.7675 0.405827 16.7399 0.39485 16.7116 0.387037C16.0613 0.133205 15.3472 0 14.5998 0C14.516 0 14.4322 0.0022266 14.3483 0.00546884C14.3369 0.00539071 14.3255 0.00597666 14.3141 0.00687511C13.0236 0.0635166 11.7256 0.500125 10.5701 1.25178C10.5642 1.25541 10.5583 1.25912 10.5526 1.26307C10.0681 1.58002 9.60874 1.95234 9.18581 2.37519C9.18573 2.37527 9.18561 2.37535 9.18553 2.37543C9.18546 2.37551 9.18538 2.37558 9.1853 2.37566C7.84226 3.71885 7.00972 5.41634 6.84112 7.15558C6.82847 7.28629 6.82011 7.41594 6.81511 7.54469C6.73987 8.47916 6.5014 10.253 5.74956 11.8412C5.73972 11.8582 5.73144 11.8759 5.72425 11.8941C5.41031 12.5456 5.00898 13.1638 4.49566 13.6772C4.49562 13.6772 4.49558 13.6773 4.4955 13.6773L0.114375 18.0586C-0.038125 18.2111 -0.038125 18.4584 0.114375 18.611L1.38894 19.8856C1.46222 19.9588 1.56156 20 1.66515 20C1.76875 20 1.86808 19.9588 1.94136 19.8856L6.32183 15.5049C6.3221 15.5047 6.32237 15.5045 6.32261 15.5042C6.83483 14.9919 7.4514 14.5913 8.10136 14.2777C8.12147 14.27 8.14089 14.2607 8.1594 14.2498C9.75116 13.4965 11.5293 13.2588 12.4618 13.1842C12.4624 13.1842 12.4629 13.1843 12.4635 13.1843C12.4761 13.1843 12.4887 13.1836 12.5012 13.1824C12.608 13.1777 12.7148 13.1703 12.8216 13.1604C12.8221 13.1604 12.8226 13.1603 12.8231 13.1603C12.8274 13.1601 12.8315 13.1594 12.8358 13.159C14.0122 13.047 15.1839 12.624 16.2373 11.9393C16.2445 11.935 16.2516 11.9303 16.2586 11.9255C16.7425 11.6089 17.2013 11.237 17.6236 10.8146C17.6238 10.8145 17.624 10.8143 17.6241 10.8142C17.6243 10.814 17.6244 10.8138 17.6246 10.8136C18.9676 9.47046 19.8 7.77309 19.9685 6.03396C20.1398 4.26675 19.6081 2.66731 18.4717 1.52998ZM18.7718 3.304L18.2891 3.78674L17.5271 3.02481L18.1817 2.37031C18.42 2.65711 18.6163 2.97063 18.7718 3.304ZM9.07292 8.85053L9.71049 8.2129L10.4724 8.97487L9.83487 9.61242L9.07292 8.85053ZM9.28245 10.1648L8.628 10.8193C8.39147 10.5351 8.19397 10.2224 8.03683 9.88664L8.5205 9.40292L9.28245 10.1648ZM11.4529 6.47045L12.0905 5.83286L12.8524 6.59479L12.2148 7.23238L11.4529 6.47045ZM11.6624 7.78485L11.0248 8.42244L10.2629 7.66051L10.9005 7.02292L11.6624 7.78485ZM12.6429 5.28047L13.2804 4.64292L14.0424 5.40489L13.4049 6.0424L12.6429 5.28047ZM13.4049 7.14726L14.1667 7.90919L13.5292 8.54681L12.7673 7.78485L13.4049 7.14726ZM13.9572 6.59479L14.5947 5.95724L15.3567 6.71917L14.7191 7.35676L13.9572 6.59479ZM15.1472 5.40485L15.7847 4.7673L16.5467 5.52923L15.9092 6.16678L15.1472 5.40485ZM15.0228 2.90044L15.6604 2.26281L16.4224 3.02477L15.7847 3.6624L15.0228 2.90044ZM15.2323 4.21487L14.5948 4.85242L13.8328 4.09049L14.4703 3.45291L15.2323 4.21487ZM13.2805 3.53806L12.5185 2.7761L13.1561 2.13855L13.918 2.90051L13.2805 3.53806ZM12.728 4.09049L12.0905 4.72804L11.3285 3.96612L11.966 3.32857L12.728 4.09049ZM11.5381 5.28043L10.9005 5.91806L10.1385 5.1561L10.7761 4.51851L11.5381 5.28043ZM10.348 6.47049L9.71046 7.10808L8.9485 6.34615L9.58608 5.70857L10.348 6.47049ZM11.0248 9.52734L11.7868 10.2893L11.1492 10.9269L10.3873 10.1649L11.0248 9.52734ZM11.5773 8.97487L12.2149 8.33728L12.9768 9.09921L12.3392 9.73679L11.5773 8.97487ZM13.5291 9.65164L14.2912 10.4136L13.6536 11.0512L12.8916 10.2892L13.5291 9.65164ZM14.0815 9.09917L14.7191 8.46158L15.4812 9.22354L14.8436 9.86113L14.0815 9.09917ZM15.2716 7.90919L15.9092 7.2716L16.6711 8.03356L16.0336 8.67111L15.2716 7.90919ZM16.4615 6.71913L17.0991 6.08158L17.861 6.84358L17.2235 7.48109L16.4615 6.71913ZM16.3371 4.21487L16.9748 3.57724L17.7367 4.33917L17.0991 4.9768L16.3371 4.21487ZM16.694 1.22916C17.0319 1.38655 17.3456 1.58377 17.6288 1.81835L16.9748 2.47238L16.2129 1.71038L16.694 1.22916ZM14.512 0.782551C14.5413 0.782083 14.5706 0.781301 14.5998 0.781301C15.0435 0.781301 15.4729 0.835052 15.8794 0.939038L15.3844 1.43412C15.3843 1.43416 15.3843 1.4342 15.3843 1.4342C15.3842 1.43424 15.3842 1.43424 15.3842 1.43424L14.4704 2.34804L13.7085 1.58608L14.512 0.782551ZM13.2529 0.936812L12.8801 1.30959C12.88 1.30971 12.8799 1.30979 12.8798 1.3099C12.8797 1.31002 12.8796 1.31014 12.8795 1.31025L11.966 2.22375L11.4021 1.65991C11.9941 1.32608 12.6186 1.08185 13.2529 0.936812ZM10.7273 2.0898L11.4136 2.77618L10.7761 3.41373L10.0211 2.65871C10.2475 2.45355 10.4835 2.26375 10.7273 2.0898ZM9.46874 3.21111L10.2237 3.96612L9.58616 4.6037L8.89913 3.91666C9.07319 3.67314 9.26342 3.43748 9.46874 3.21111ZM8.46913 4.59148L9.0337 5.1561L8.12077 6.06908C8.12046 6.06935 8.12014 6.06959 8.11991 6.06986C8.11964 6.07013 8.1194 6.07045 8.11913 6.07072L7.74698 6.44287C7.8921 5.80564 8.13608 5.18192 8.46913 4.59148ZM7.59222 7.70258L8.39616 6.89858L9.15811 7.66051L7.74686 9.07178C7.63683 8.63924 7.58436 8.18009 7.59222 7.70258ZM1.66515 19.0569L0.943007 18.3347L4.77179 14.5058L5.4939 15.228L1.66515 19.0569ZM6.05566 14.685L5.31491 13.9442C5.59003 13.6308 5.83241 13.2913 6.04605 12.9364C6.17093 13.1432 6.32054 13.3352 6.49265 13.5073C6.66472 13.6793 6.85671 13.8289 7.06343 13.9538C6.70843 14.1674 6.3689 14.4098 6.05566 14.685ZM7.93253 13.4974C7.59858 13.3895 7.29386 13.2036 7.04499 12.9548C6.79612 12.7059 6.6103 12.4011 6.50237 12.0673C6.82296 11.3659 7.05269 10.6405 7.21702 9.96285C7.47436 10.5983 7.85065 11.172 8.33882 11.6603C8.33893 11.6604 8.33897 11.6605 8.33909 11.6606C8.33921 11.6607 8.33929 11.6608 8.33936 11.6608C8.81659 12.1381 9.38507 12.5111 10.0158 12.7694C10.024 12.7739 10.0325 12.7779 10.041 12.7817C9.36221 12.9461 8.63522 13.1762 7.93253 13.4974ZM10.1157 11.9604C9.77784 11.803 9.46413 11.6058 9.18096 11.3712L9.83487 10.7173L10.5969 11.4792L10.1157 11.9604ZM12.2976 12.407C12.2684 12.4075 12.2391 12.4083 12.2098 12.4083C11.7662 12.4083 11.3368 12.3545 10.9303 12.2506L11.4253 11.7556C11.4253 11.7556 11.4254 11.7555 11.4255 11.7554C11.4255 11.7553 11.4256 11.7552 11.4256 11.7552L12.3392 10.8416L13.1012 11.6036L12.2976 12.407ZM13.5568 12.2528L14.8436 10.966L15.4073 11.5298C14.8154 11.8636 14.191 12.1077 13.5568 12.2528ZM16.0822 11.0999L15.396 10.4136L16.0336 9.77597L16.7885 10.531C16.562 10.7361 16.3261 10.926 16.0822 11.0999ZM17.3408 9.97844L16.586 9.2235L17.2235 8.58595L17.9099 9.27233C17.737 9.51491 17.547 9.75082 17.3408 9.97844ZM18.3391 8.5967L17.7759 8.03352L19.0605 6.74886C18.9171 7.37379 18.6758 7.99837 18.3391 8.5967ZM19.2165 5.48817L18.4134 6.29123L17.6514 5.52923L18.5644 4.61621C18.5646 4.61597 18.5649 4.61574 18.5652 4.61546C18.5655 4.61523 18.5657 4.61492 18.566 4.61464L19.0615 4.11905C19.1728 4.5573 19.2239 5.01762 19.2165 5.48817Z" fill="#BD9B60"/>
<path d="M8.01585 1.89413C7.85015 1.75593 7.60386 1.77827 7.46565 1.9439C6.95276 2.55887 6.51769 3.22919 6.17261 3.93631C6.078 4.13018 6.15847 4.36405 6.35233 4.4587C6.40749 4.48562 6.46589 4.49839 6.52339 4.49839C6.668 4.49839 6.80702 4.41773 6.87472 4.27901C7.1923 3.6283 7.593 3.01102 8.06561 2.44433C8.20374 2.27867 8.18151 2.03234 8.01585 1.89413Z" fill="#BD9B60"/>
<path d="M6.22226 4.77289C6.01812 4.70293 5.79605 4.81164 5.72605 5.0157L5.71589 5.04563C5.64702 5.25008 5.75695 5.47165 5.96144 5.54052C6.00277 5.55442 6.0448 5.56106 6.08609 5.56106C6.24921 5.56106 6.40132 5.45809 6.45628 5.29497L6.46507 5.26911C6.53499 5.06504 6.42628 4.84285 6.22226 4.77289Z" fill="#BD9B60"/>
<path d="M7.82409 15.6534C7.66979 15.5025 7.42249 15.5054 7.27175 15.6598L7.26522 15.6665C7.11444 15.8208 7.11733 16.0681 7.27159 16.2189C7.34757 16.2931 7.44612 16.3301 7.54456 16.3301C7.64604 16.3301 7.74745 16.2908 7.82397 16.2125L7.8305 16.2058C7.98124 16.0515 7.97843 15.8042 7.82409 15.6534Z" fill="#BD9B60"/>
<path d="M7.02733 16.4569C6.8748 16.3043 6.62745 16.3044 6.47491 16.4569L5.06527 17.8666C4.91273 18.0191 4.91277 18.2665 5.06527 18.419C5.14156 18.4953 5.24152 18.5335 5.34148 18.5335C5.44144 18.5335 5.5414 18.4953 5.61769 18.419L7.02733 17.0093C7.17987 16.8567 7.17983 16.6094 7.02733 16.4569Z" fill="#BD9B60"/>
<path d="M19.9967 17.1769C19.9851 16.4816 19.7154 15.7899 19.186 15.2605C18.6617 14.7362 17.9646 14.4475 17.2231 14.4475C16.4816 14.4475 15.7845 14.7362 15.2602 15.2605C14.7262 15.7946 14.4562 16.4939 14.4492 17.1955C14.4469 17.2197 14.4471 17.2443 14.4496 17.2691C14.4609 17.9647 14.7306 18.6568 15.2603 19.1864C15.7819 19.708 16.4745 19.9962 17.2117 19.9991C17.2133 19.9992 17.2149 19.9995 17.2165 19.9995C17.2175 19.9995 17.2185 19.9994 17.2195 19.9994C17.2207 19.9994 17.2219 19.9995 17.2231 19.9995C17.9646 19.9995 18.6617 19.7107 19.186 19.1864C19.7197 18.6526 19.9897 17.9539 19.997 17.2528C19.9994 17.2278 19.9992 17.2025 19.9967 17.1769ZM16.8903 19.1901C16.4841 19.1223 16.1097 18.931 15.8126 18.634C15.5086 18.3299 15.324 17.9512 15.2577 17.5563C15.6928 17.5319 16.1258 17.6921 16.4401 18.0065C16.7549 18.3212 16.9151 18.7547 16.8903 19.1901ZM18.6336 18.634C18.3654 18.9022 18.034 19.0841 17.6733 19.167C17.6905 18.5349 17.4497 17.9113 16.9926 17.4541C16.5356 16.9973 15.9126 16.7565 15.2809 16.7734C15.3619 16.4212 15.5388 16.0868 15.8126 15.813C16.0809 15.5447 16.4123 15.3629 16.7731 15.28C16.7559 15.9121 16.9966 16.5357 17.4537 16.9929C17.8955 17.4347 18.4928 17.6746 19.1031 17.6746C19.1239 17.6746 19.1446 17.6741 19.1654 17.6736C19.0845 18.0258 18.9075 18.3601 18.6336 18.634ZM18.0061 16.4405C17.6914 16.1258 17.5313 15.6923 17.556 15.2568C17.9622 15.3247 18.3366 15.516 18.6336 15.813C18.9377 16.1171 19.1222 16.4958 19.1885 16.8907C18.7535 16.9151 18.3205 16.7549 18.0061 16.4405Z" fill="#BD9B60"/>
</svg>
