<svg width="164" height="38" viewBox="0 0 164 38" fill="none" xmlns="http://www.w3.org/2000/svg">
<path fill-rule="evenodd" clip-rule="evenodd" d="M33.4074 0H41.758V4.17528H33.4074V0ZM41.7617 8.35051H25.0555V12.5258H41.7617V8.35051ZM16.705 16.7063H41.7617V20.8816H16.705V16.7063ZM41.7629 25.0568H8.35051V29.2321H41.7629V25.0568ZM61.8775 36.6443L60.8444 35.7366L61.3173 35.1983L62.3536 36.0887C62.5051 35.7753 62.5809 35.4307 62.5749 35.0826C62.5749 33.986 61.9411 33.2113 60.9702 33.2113C59.9993 33.2113 59.3604 33.986 59.3604 35.0826C59.3604 36.1793 59.9943 36.9238 60.9702 36.9238C61.2946 36.9286 61.6121 36.8307 61.8775 36.6443ZM62.4793 37.1803L63.3043 37.9098L63.8275 37.3514L63.0176 36.6521C63.3304 36.1891 63.4937 35.6413 63.4854 35.0826C63.4892 34.5662 63.3386 34.0605 63.0529 33.6303C62.7672 33.2001 62.3594 32.8652 61.882 32.6684C61.4045 32.4716 60.8792 32.422 60.3733 32.5259C59.8675 32.6299 59.4043 32.8826 59.0431 33.2518C58.6819 33.6209 58.4393 34.0895 58.3464 34.5975C58.2535 35.1055 58.3145 35.6296 58.5216 36.1027C58.7287 36.5757 59.0725 36.9761 59.5088 37.2524C59.9451 37.5286 60.454 37.6682 60.9702 37.6532C61.511 37.6619 62.0402 37.4961 62.4793 37.1803ZM74.2198 33.5534L75.1203 35.7819H73.3344L74.2198 33.5534ZM73.0477 36.4711H75.3919L75.8497 37.5828H76.7703L74.6524 32.5523H73.7872L71.6643 37.5828H72.595L73.0477 36.4711ZM88.7221 36.8689V37.5882H84.6223V36.9192L87.6305 33.2872H84.6223V32.5729H88.6819V33.2318L85.7039 36.8689H88.7221ZM99.1247 33.5534L100.025 35.7819H98.2293L99.1247 33.5534ZM97.9828 36.4711H100.302L100.745 37.5828H101.675L99.5624 32.5523H98.6921L96.5743 37.5828H97.5301L97.9828 36.4711ZM111.908 35.7366L112.937 36.6443C112.672 36.8326 112.354 36.9307 112.029 36.9238C111.058 36.9238 110.424 36.1793 110.424 35.0826C110.424 33.986 111.053 33.2113 112.029 33.2113C113.005 33.2113 113.639 33.986 113.639 35.0826C113.646 35.4313 113.568 35.7765 113.413 36.0887L112.381 35.1983L111.908 35.7366ZM114.368 37.9098L113.543 37.1803C113.104 37.4961 112.575 37.6619 112.034 37.6532C111.518 37.6682 111.009 37.5286 110.573 37.2524C110.137 36.9761 109.793 36.5757 109.586 36.1027C109.379 35.6296 109.317 35.1055 109.41 34.5975C109.503 34.0895 109.746 33.6209 110.107 33.2518C110.468 32.8826 110.931 32.6299 111.437 32.5259C111.943 32.422 112.469 32.4716 112.946 32.6684C113.423 32.8652 113.831 33.2001 114.117 33.6303C114.403 34.0605 114.553 34.5662 114.549 35.0826C114.555 35.641 114.392 36.1882 114.082 36.6521L114.891 37.3514L114.368 37.9098ZM125.986 36.2045C125.986 36.7075 125.533 36.9792 124.924 36.9792L124.945 36.9993C124.775 37.012 124.604 36.9889 124.444 36.9316C124.283 36.8742 124.137 36.7838 124.013 36.6662C123.89 36.5486 123.793 36.4065 123.728 36.2489C123.663 36.0914 123.632 35.922 123.637 35.7517H122.731C122.776 36.9641 123.606 37.6784 124.924 37.6784C126.142 37.6784 126.881 37.0747 126.881 36.1944C126.881 35.134 125.816 34.8962 125.143 34.7459L125.142 34.7458C125.104 34.7371 125.066 34.7287 125.03 34.7205C124.019 34.4891 123.783 34.303 123.783 33.9307C123.783 33.4427 124.155 33.1711 124.789 33.1711C124.931 33.1532 125.075 33.1659 125.212 33.2083C125.349 33.2508 125.476 33.3221 125.583 33.4173C125.69 33.5126 125.776 33.6297 125.834 33.7607C125.892 33.8918 125.922 34.0338 125.92 34.1772H126.786C126.71 33.0202 125.961 32.4769 124.774 32.4769C123.586 32.4769 122.897 33.0152 122.897 33.9307C122.897 34.9619 123.736 35.1542 124.712 35.3781L124.784 35.3946C125.523 35.5656 125.986 35.7014 125.986 36.2045ZM138.881 33.2872H137.241V37.5882H136.371V33.2872H134.731V32.5729H138.881V33.2872ZM149.286 33.5534L150.192 35.7819H148.391L149.286 33.5534ZM148.119 36.4711H150.463L150.906 37.5828H151.837L149.724 32.5523H148.859L146.736 37.5828H147.666L148.119 36.4711ZM163.997 32.5729V37.5882H163.212L160.546 33.9814V37.5882H159.686V32.5729H160.486L163.137 36.1948V32.5729H163.997ZM0 33.4074H41.7629V37.5827H0V33.4074ZM74.9647 10.5086C74.9647 12.2089 74.5622 12.6516 73.0229 12.6516H62.3332V3.65715H73.0229C74.5622 3.65715 74.9647 4.0948 74.9647 5.80013V10.5086ZM78.8231 10.5086V5.80013C78.8231 1.84115 76.9769 0 73.0229 0H58.4748V25.0567H62.3332V16.3088H68.5861L74.0693 25.0567H78.657L73.1235 16.3088C76.997 16.2736 78.808 14.4274 78.808 10.5086H78.8231ZM95.242 4.02437L91.5497 14.7342H98.9595L95.242 4.02437ZM92.5205 0H97.9233L106.626 25.0567H102.546L100.227 18.3914H90.287L87.9981 25.0567H83.9235L92.5205 0ZM130.097 0L124.085 15.0612L118.039 0H112.058V25.0567H115.921V4.5576L121.681 19.0001H126.45L132.25 4.55257V25.0567H136.108V0H130.097ZM164 5.79509V8.56688H160.142V5.79509C160.142 4.0948 159.739 3.65715 158.2 3.65715H149.452C147.907 3.65715 147.51 4.0948 147.51 5.79509C147.51 8.07893 147.822 8.587 149.583 9.17054L158.331 12.0983C162.581 13.5169 164 14.7292 164 19.2566C164 23.2156 162.154 25.0567 158.2 25.0567H149.452C145.493 25.0567 143.652 23.2156 143.652 19.2566V16.4848H147.51V19.2566C147.51 20.9569 147.907 21.3996 149.452 21.3996H158.2C159.739 21.3996 160.142 20.9569 160.142 19.2566C160.142 16.9728 159.83 16.4697 158.069 15.8812L149.321 12.9534C145.065 11.5349 143.652 10.3225 143.652 5.79509C143.652 1.84115 145.493 0 149.452 0H158.2C162.154 0 164 1.84115 164 5.79509Z" fill="#BD9B60"/>
</svg>
