<svg width="261" height="61" viewBox="0 0 261 61" fill="none" xmlns="http://www.w3.org/2000/svg">
<path fill-rule="evenodd" clip-rule="evenodd" d="M53.1673 0H66.4569V6.64479H53.1673V0ZM66.464 13.2892H39.8768V19.934H66.464V13.2892ZM26.5863 26.5869H66.4631V33.2317H26.5863V26.5869ZM66.4649 39.8774H13.2905V46.5222H66.4649V39.8774ZM98.4748 58.3184L96.8307 56.8738L97.5832 56.0172L99.2324 57.4342C99.4736 56.9355 99.5942 56.387 99.5847 55.8331C99.5847 54.0878 98.576 52.8549 97.0308 52.8549C95.4857 52.8549 94.469 54.0878 94.469 55.8331C94.469 57.5783 95.4777 58.7632 97.0308 58.7632C97.5471 58.7708 98.0524 58.6151 98.4748 58.3184ZM99.4326 59.1715L100.746 60.3323L101.578 59.4437L100.289 58.3309C100.787 57.594 101.047 56.7222 101.034 55.8331C101.04 55.0113 100.8 54.2064 100.345 53.5218C99.8907 52.8372 99.2418 52.3041 98.4819 51.9909C97.7221 51.6777 96.886 51.5988 96.081 51.7642C95.2759 51.9296 94.5387 52.3319 93.9639 52.9193C93.3892 53.5067 93.0031 54.2525 92.8552 55.061C92.7073 55.8694 92.8044 56.7036 93.134 57.4564C93.4637 58.2093 94.0108 58.8464 94.7051 59.2861C95.3994 59.7258 96.2093 59.948 97.0308 59.924C97.8915 59.9379 98.7337 59.674 99.4326 59.1715ZM118.116 53.3985L119.549 56.945H116.707L118.116 53.3985ZM116.251 58.0418H119.981L120.71 59.8111H122.175L118.804 51.8053H117.427L114.049 59.8111H115.53L116.251 58.0418ZM141.197 58.6749V59.8198H134.672V58.755L139.46 52.9748H134.672V51.838H141.133V52.8867L136.394 58.6749H141.197ZM157.755 53.3985L159.188 56.945H156.33L157.755 53.3985ZM155.937 58.0418H159.628L160.333 59.8111H161.814L158.451 51.8053H157.066L153.696 59.8111H155.217L155.937 58.0418ZM178.098 56.8738L179.734 58.3185C179.313 58.6182 178.807 58.7742 178.29 58.7632C176.745 58.7632 175.736 57.5783 175.736 55.8331C175.736 54.0878 176.737 52.8549 178.29 52.8549C179.843 52.8549 180.852 54.0878 180.852 55.8331C180.863 56.388 180.739 56.9374 180.492 57.4342L178.85 56.0172L178.098 56.8738ZM182.013 60.3323L180.7 59.1715C180.001 59.674 179.159 59.9379 178.298 59.924C177.477 59.948 176.667 59.7258 175.972 59.2861C175.278 58.8464 174.731 58.2093 174.401 57.4564C174.072 56.7036 173.974 55.8694 174.122 55.061C174.27 54.2525 174.656 53.5067 175.231 52.9193C175.806 52.3319 176.543 51.9296 177.348 51.7642C178.153 51.5988 178.989 51.6777 179.749 51.9909C180.509 52.3041 181.158 52.8372 181.613 53.5218C182.067 54.2064 182.307 55.0113 182.301 55.8331C182.31 56.7217 182.051 57.5925 181.556 58.3309L182.845 59.4437L182.013 60.3323ZM200.501 57.618C200.501 58.4186 199.781 58.8509 198.812 58.8509L198.844 58.8829C198.574 58.9032 198.302 58.8665 198.047 58.7752C197.791 58.6839 197.558 58.54 197.362 58.3528C197.166 58.1657 197.011 57.9395 196.908 57.6888C196.805 57.4381 196.755 57.1685 196.762 56.8975H195.321C195.394 58.8269 196.714 59.9637 198.812 59.9637C200.749 59.9637 201.926 59.003 201.926 57.602C201.926 55.9145 200.231 55.5359 199.16 55.2967C199.098 55.2828 199.038 55.2694 198.98 55.2563C197.371 54.888 196.995 54.5918 196.995 53.9994C196.995 53.2228 197.587 52.7905 198.596 52.7905C198.822 52.762 199.052 52.7822 199.27 52.8498C199.488 52.9174 199.689 53.0308 199.86 53.1824C200.03 53.334 200.167 53.5204 200.259 53.7289C200.352 53.9375 200.399 54.1634 200.397 54.3917H201.774C201.654 52.5503 200.461 51.6857 198.572 51.6857C196.682 51.6857 195.586 52.5423 195.586 53.9994C195.586 55.6404 196.92 55.9466 198.473 56.3028L198.588 56.3291C199.765 56.6013 200.501 56.8174 200.501 57.618ZM221.023 52.9748H218.413V59.8198H217.028V52.9748H214.418V51.838H221.023V52.9748ZM237.581 53.3985L239.023 56.945H236.156L237.581 53.3985ZM235.724 58.0418H239.455L240.159 59.8111H241.64L238.278 51.8053H236.901L233.523 59.8111H235.004L235.724 58.0418ZM260.994 51.838V59.8198H259.745L255.502 54.0796V59.8198H254.133V51.838H255.406L259.625 57.6022V51.838H260.994ZM0 53.1666H66.464V59.8114H0V53.1666ZM119.303 16.7241C119.303 19.43 118.662 20.1345 116.212 20.1345H99.2002V5.8202H116.212C118.662 5.8202 119.303 6.5167 119.303 9.23066V16.7241ZM125.443 16.7241V9.23066C125.443 2.93011 122.505 0 116.212 0H93.0598V39.8768H99.2002V25.9547H109.151L117.878 39.8768H125.179L116.373 25.9547C122.537 25.8987 125.419 22.9606 125.419 16.7241H125.443ZM151.574 6.40462L145.698 23.4489H157.491L151.574 6.40462ZM147.243 0H155.841L169.691 39.8768H163.199L159.508 29.2691H143.689L140.046 39.8768H133.561L147.243 0ZM207.046 0L197.479 23.9693L187.856 0H178.337V39.8768H184.486V7.25323L193.652 30.2378H201.242L210.472 7.24523V39.8768H216.613V0H207.046ZM260.999 9.22266V13.6338H254.859V9.22266C254.859 6.5167 254.218 5.8202 251.768 5.8202H237.846C235.389 5.8202 234.756 6.5167 234.756 9.22266C234.756 12.8573 235.253 13.6659 238.055 14.5945L251.977 19.2539C258.741 21.5115 260.999 23.4409 260.999 30.6461C260.999 36.9467 258.061 39.8768 251.768 39.8768H237.846C231.546 39.8768 228.616 36.9467 228.616 30.6461V26.2349H234.756V30.6461C234.756 33.3521 235.389 34.0566 237.846 34.0566H251.768C254.218 34.0566 254.859 33.3521 254.859 30.6461C254.859 27.0115 254.362 26.2109 251.56 25.2742L237.638 20.6149C230.865 18.3573 228.616 16.4279 228.616 9.22266C228.616 2.93011 231.546 0 237.846 0H251.768C258.061 0 260.999 2.93011 260.999 9.22266Z" fill="#BD9B60"/>
</svg>
