<svg width="22" height="19" viewBox="0 0 22 19" fill="none" xmlns="http://www.w3.org/2000/svg">
<path d="M21.9534 5.88295L19.8859 1.96633V0.413042C19.8859 0.18496 19.6935 0 19.4562 0H2.54367C2.3064 0 2.11398 0.18496 2.11398 0.413042V1.96653L0.0464923 5.88295C0.0159415 5.94086 0 6.00492 0 6.06985V7.08598C0 8.29338 0.915409 9.29856 2.11398 9.49554V18.1737H1.67428C1.43697 18.1737 1.24459 18.3587 1.24459 18.5868C1.24459 18.8149 1.43697 18.9998 1.67428 18.9998H2.54036C2.54144 18.9998 2.54255 19 2.54367 19H20.3257C20.5629 19 20.7553 18.815 20.7553 18.587C20.7553 18.3589 20.5629 18.1739 20.3257 18.1739H19.886V9.49554C21.0846 9.29856 22 8.29342 22 7.08598V6.06985C22 6.00492 21.984 5.94086 21.9534 5.88295ZM2.97336 0.826083H19.0265V1.65229H2.97336V0.826083ZM16.9125 7.08598C16.9125 7.97872 16.1569 8.70502 15.2281 8.70502C14.2994 8.70502 13.5437 7.97872 13.5437 7.08598V6.06985C13.5437 6.05593 13.543 6.04201 13.5415 6.02813L13.1668 2.47837H15.7555L16.9125 6.13131V7.08598ZM12.6843 7.08598C12.6843 7.97872 11.9287 8.70502 11 8.70502C10.0713 8.70502 9.31561 7.97872 9.31561 7.08598V6.09075L9.69709 2.47837H12.303L12.6843 6.09075L12.6843 7.08598ZM8.45623 6.06985V7.08598C8.45623 7.97872 7.70067 8.70502 6.7719 8.70502C5.84312 8.70502 5.08756 7.97872 5.08756 7.08598V6.13135L6.24463 2.47841H8.83333L8.45847 6.02818C8.45696 6.04201 8.45623 6.05593 8.45623 6.06985ZM0.859378 7.08598V6.16865L2.8075 2.47837H5.34623L4.24679 5.94953C4.23445 5.98852 4.22814 6.02909 4.22814 6.06985V7.08598C4.22814 7.97872 3.47249 8.70502 2.54367 8.70502C1.61494 8.70502 0.859378 7.97872 0.859378 7.08598ZM2.97336 9.49554C3.6735 9.3805 4.27699 8.99006 4.65783 8.44414C5.11467 9.09902 5.89168 9.5311 6.77185 9.5311C7.65203 9.5311 8.42899 9.09902 8.88588 8.44414C9.34277 9.09902 10.1198 9.5311 11 9.5311C11.8801 9.5311 12.6571 9.09906 13.1139 8.44414C13.5708 9.09906 14.3479 9.5311 15.228 9.5311C16.1082 9.5311 16.8853 9.09902 17.3421 8.44414C17.7229 8.99006 18.3264 9.3805 19.0265 9.49554V18.1739H18.1671V11.1522C18.1671 10.9241 17.9747 10.7392 17.7374 10.7392H4.26247C4.02511 10.7392 3.83278 10.9241 3.83278 11.1522V16.9347C3.83278 17.1628 4.02511 17.3477 4.26247 17.3477H13.8703V18.1739H2.97336V9.49554ZM4.69216 15.5937L8.88296 11.5652H10.38L9.56294 12.3505C9.39515 12.5118 9.39515 12.7733 9.5629 12.9346C9.64682 13.0153 9.75677 13.0557 9.86677 13.0557C9.97673 13.0557 10.0866 13.0153 10.1706 12.9347L11.5954 11.5652H13.8702V16.5217H4.69216V15.5937ZM4.69216 14.4254V11.5652H7.66758L4.69216 14.4254ZM14.7296 18.1739V15.2825H15.1594C15.3967 15.2825 15.5891 15.0976 15.5891 14.8695C15.5891 14.6414 15.3967 14.4565 15.1594 14.4565H14.7296V11.5652H17.3078V18.1739H14.7296ZM21.1406 7.08598C21.1406 7.97872 20.385 8.70502 19.4563 8.70502C18.5275 8.70502 17.7719 7.97872 17.7719 7.08598V6.06985C17.7719 6.02909 17.7656 5.98852 17.7532 5.94953L16.6538 2.47837H19.1925L21.1406 6.16865V7.08598Z" fill="#BD9B60"/>
<path d="M8.69083 13.1889L8.68365 13.1957C8.51534 13.3565 8.51461 13.6181 8.68185 13.7799C8.76585 13.8611 8.8762 13.9017 8.98658 13.9017C9.09615 13.9017 9.20573 13.8616 9.28956 13.7816L9.29673 13.7747C9.46504 13.6139 9.46582 13.3524 9.29854 13.1906C9.13117 13.0288 8.85909 13.028 8.69083 13.1889Z" fill="#BD9B60"/>
<path d="M0.439829 18.1737H0.429689C0.192372 18.1737 0 18.3587 0 18.5868C0 18.8149 0.192372 18.9998 0.429689 18.9998H0.439829C0.677104 18.9998 0.869518 18.8149 0.869518 18.5868C0.869518 18.3587 0.677147 18.1737 0.439829 18.1737Z" fill="#BD9B60"/>
<path d="M21.5703 18.1739H21.5602C21.3229 18.1739 21.1305 18.3589 21.1305 18.587C21.1305 18.815 21.3229 19 21.5602 19H21.5703C21.8076 19 22 18.815 22 18.587C22 18.3589 21.8076 18.1739 21.5703 18.1739Z" fill="#BD9B60"/>
</svg>
