<svg width="14" height="21" viewBox="0 0 14 21" fill="none" xmlns="http://www.w3.org/2000/svg">
<path d="M2.91715 1.95501H1.93445C1.77065 1.95501 1.63786 2.08706 1.63786 2.25004C1.63786 2.41301 1.77065 2.54507 1.93445 2.54507H2.91715C3.08095 2.54507 3.21374 2.41301 3.21374 2.25004C3.21374 2.08706 3.08095 1.95501 2.91715 1.95501Z" fill="#BD9B60"/>
<path d="M11.7616 1.95504H10.7788C10.615 1.95504 10.4822 2.0871 10.4822 2.25008C10.4822 2.41305 10.615 2.54511 10.7788 2.54511H11.7616C11.9254 2.54511 12.0582 2.41305 12.0582 2.25008C12.0582 2.0871 11.9254 1.95504 11.7616 1.95504Z" fill="#BD9B60"/>
<path d="M12.0891 0.65159H9.65183L9.40625 0.163055C9.35599 0.063137 9.25333 0 9.14098 0H4.55509C4.44274 0 4.34004 0.063137 4.28982 0.163094L4.04424 0.651629H1.60689C0.720835 0.651629 0 1.36872 0 2.25008V15.2839C0 16.1652 0.720835 16.8823 1.60689 16.8823H2.91723C2.94974 16.8823 2.98094 16.8769 3.01024 16.8673L1.35068 19.6972C1.26814 19.8379 1.31596 20.0186 1.45741 20.1007C1.50443 20.128 1.55584 20.1409 1.60661 20.1409C1.70864 20.1409 1.80794 20.0885 1.86307 19.9945L4.07026 16.2307H4.69385L2.66102 19.6971C2.57849 19.8379 2.62626 20.0186 2.76775 20.1007C2.81477 20.1279 2.86618 20.1409 2.91692 20.1409C3.01894 20.1409 3.11824 20.0884 3.17337 19.9945L3.66077 19.1633L10.0352 19.1632L10.5225 19.9943C10.5777 20.0883 10.6769 20.1407 10.779 20.1407C10.8297 20.1407 10.8811 20.1277 10.9281 20.1005C11.0696 20.0184 11.1174 19.8377 11.0349 19.6969L9.00237 16.2307H9.62581L11.8328 19.9946C11.888 20.0886 11.9873 20.141 12.0893 20.141C12.14 20.141 12.1915 20.128 12.2385 20.1008C12.3799 20.0187 12.4277 19.838 12.3452 19.6973L10.6857 16.8673C10.7151 16.8769 10.7463 16.8823 10.7788 16.8823H12.089C12.975 16.8823 13.6959 16.1653 13.6959 15.2839V2.25004C13.696 1.36868 12.9751 0.65159 12.0891 0.65159ZM4.52408 1.01633L4.73838 0.590066H6.55138V0.946623C6.55138 1.1096 6.68418 1.24166 6.84798 1.24166C7.01181 1.24166 7.14457 1.1096 7.14457 0.946623V0.590066H8.95773L9.17199 1.01629V1.95501H4.52408V1.01633ZM3.21382 16.5201V16.2307H3.38351L3.21382 16.5201ZM9.27097 17.8599L9.68928 18.5733L4.00687 18.5733L4.42518 17.8599L9.27097 17.8599ZM4.7712 17.2699L5.3806 16.2307H8.31559L8.92498 17.2699L4.7712 17.2699ZM10.4822 16.5201L10.3126 16.2307H10.4822V16.5201ZM13.1028 15.2839C13.1028 15.8399 12.648 16.2922 12.0891 16.2922H11.0754V15.9357C11.0754 15.7727 10.9427 15.6407 10.7788 15.6407H9.78965C9.78846 15.6407 9.78731 15.6406 9.78617 15.6407H8.49022C8.48464 15.6406 8.47907 15.6404 8.47345 15.6407H2.91723C2.75343 15.6407 2.62064 15.7727 2.62064 15.9357V16.2922H1.60689C1.04792 16.2922 0.593183 15.8399 0.593183 15.2839V14.9272L4.88256 14.9273C4.98174 14.9273 5.07432 14.878 5.12933 14.7959L5.69641 13.9498H7.9995L8.56662 14.7959C8.62163 14.878 8.71421 14.9273 8.81339 14.9273H13.1028V15.2839ZM13.1028 14.3373H8.97208L8.40496 13.4911C8.34995 13.409 8.25738 13.3597 8.1582 13.3597H5.53767C5.43849 13.3597 5.34588 13.409 5.29091 13.4911L4.72383 14.3373L0.593143 14.3372V11.6688H13.1028V14.3373ZM13.1028 11.0788H0.593183V3.84853H13.1028V11.0788ZM13.1028 3.25846H0.593183V2.25004C0.593183 1.694 1.04792 1.24166 1.60685 1.24166H3.9309V2.25004C3.9309 2.41301 4.0637 2.54507 4.22749 2.54507H9.46854C9.63237 2.54507 9.76513 2.41301 9.76513 2.25004V1.24166H12.0891C12.648 1.24166 13.1028 1.694 13.1028 2.25004V3.25846Z" fill="#BD9B60"/>
<path d="M12.4167 4.236H1.27934C1.11554 4.236 0.982745 4.36806 0.982745 4.53104V10.3963C0.982745 10.5593 1.11554 10.6914 1.27934 10.6914H12.4167C12.5805 10.6914 12.7132 10.5593 12.7132 10.3963V4.53104C12.7132 4.36806 12.5805 4.236 12.4167 4.236ZM12.1201 10.1013H1.57593V4.82607H12.1201V10.1013Z" fill="#BD9B60"/>
<path d="M2.91715 1.95501H1.93445C1.77065 1.95501 1.63786 2.08706 1.63786 2.25004C1.63786 2.41301 1.77065 2.54507 1.93445 2.54507H2.91715C3.08095 2.54507 3.21374 2.41301 3.21374 2.25004C3.21374 2.08706 3.08095 1.95501 2.91715 1.95501Z" fill="#BD9B60"/>
<path d="M11.7616 1.95504H10.7788C10.615 1.95504 10.4822 2.0871 10.4822 2.25008C10.4822 2.41305 10.615 2.54511 10.7788 2.54511H11.7616C11.9254 2.54511 12.0582 2.41305 12.0582 2.25008C12.0582 2.0871 11.9254 1.95504 11.7616 1.95504Z" fill="#BD9B60"/>
<path d="M3.57234 12.0562H2.26208C1.73727 12.0562 1.3103 12.481 1.3103 13.003C1.3103 13.5251 1.73727 13.9497 2.26208 13.9497H3.57234C4.09715 13.9497 4.52412 13.525 4.52412 13.003C4.52408 12.481 4.09711 12.0562 3.57234 12.0562ZM3.57234 13.3597H2.26208C2.06435 13.3597 1.90348 13.1997 1.90348 13.003C1.90348 12.8064 2.06435 12.6463 2.26208 12.6463H3.57234C3.77007 12.6463 3.93094 12.8064 3.93094 13.003C3.93094 13.1997 3.77007 13.3597 3.57234 13.3597Z" fill="#BD9B60"/>
<path d="M11.434 12.0563H10.1237C9.59888 12.0563 9.17195 12.481 9.17195 13.003C9.17191 13.5251 9.59888 13.9498 10.1237 13.9498H11.434C11.9588 13.9498 12.3858 13.5251 12.3858 13.003C12.3858 12.481 11.9588 12.0563 11.434 12.0563ZM11.434 13.3597H10.1237C9.926 13.3597 9.76513 13.1997 9.76513 13.003C9.76513 12.8063 9.926 12.6463 10.1237 12.6463H11.434C11.6318 12.6463 11.7926 12.8063 11.7926 13.003C11.7926 13.1997 11.6318 13.3597 11.434 13.3597Z" fill="#BD9B60"/>
</svg>
