<svg width="25" height="23" viewBox="0 0 25 23" fill="none" xmlns="http://www.w3.org/2000/svg">
<path d="M2.38243 5.68554H4.77964V0.424548C4.77964 0.190084 4.96638 0 5.19659 0H9.93157H12.8797H22.6176C22.8479 0 23.0346 0.190141 23.0346 0.424548V18.8305H24.5831C24.8133 18.8305 25 19.0207 25 19.2551V22.5754C25 22.8099 24.8133 23 24.5831 23H0.416946C0.186683 23 0 22.8099 0 22.5754V19.2551C0 19.0206 0.18674 18.8305 0.416946 18.8305H1.96548V6.11015C1.96548 5.87568 2.15222 5.6856 2.38243 5.6856V5.68554ZM13.9558 4.41131V2.05379C13.9558 1.81933 14.1426 1.62925 14.3728 1.62925H16.8746C17.1049 1.62925 17.2915 1.81939 17.2915 2.05379V4.41131C17.2915 4.64577 17.1048 4.83586 16.8746 4.83586H14.3728C14.1425 4.83586 13.9558 4.64571 13.9558 4.41131ZM18.1544 8.6428V6.28535C18.1544 6.05088 18.3412 5.86079 18.5714 5.86079H21.0732C21.3035 5.86079 21.4902 6.05094 21.4902 6.28535V8.6428C21.4902 8.87726 21.3034 9.06735 21.0732 9.06735H18.5714C18.3411 9.06735 18.1544 8.8772 18.1544 8.6428ZM18.1544 4.41131V2.05379C18.1544 1.81933 18.3412 1.62925 18.5714 1.62925H21.0732C21.3035 1.62925 21.4902 1.81939 21.4902 2.05379V4.41131C21.4902 4.64577 21.3034 4.83586 21.0732 4.83586H18.5714C18.3411 4.83586 18.1544 4.64571 18.1544 4.41131ZM3.36446 6.53464L5.52739 8.73294H7.92143C8.1517 8.73294 8.33838 8.92309 8.33838 9.15749V11.5898L14.8749 18.2331V10.613V6.53459H12.8798H9.93163H5.19664H3.36446V6.53464ZM4.77964 9.16921L2.79943 7.15661V18.8304H4.77964V9.16915V9.16921ZM14.2856 18.8305L8.33832 12.7861V18.8305H14.2856ZM22.6176 19.6796H19.6248H15.2918H7.92138H5.19659H2.38243H0.833892V22.1508H24.1661V19.6796H22.6176ZM10.3485 0.849101V5.68554H12.4627V0.849101H10.3485ZM13.2967 0.849101V5.68554H15.2918C15.5221 5.68554 15.7088 5.87568 15.7088 6.11009V10.1885H19.6248C19.855 10.1885 20.0417 10.3786 20.0417 10.613V18.8305H22.2006V0.849045H13.2966L13.2967 0.849101ZM9.51457 5.68554V0.849101H5.61354V5.68554H9.51457ZM7.50438 9.5821H5.61347V18.8305H7.50438V9.5821ZM15.7088 11.0376V18.8305H19.2078V11.0376H15.7088Z" fill="#BD9B60"/>
</svg>
