<svg width="22" height="25" viewBox="0 0 22 25" fill="none" xmlns="http://www.w3.org/2000/svg">
<path d="M0.416078 0H3.53259H15.4657H19.8235C20.0533 0 20.2396 0.187466 20.2396 0.41857V4.24481L21.5482 4.24743C21.56 4.2464 21.5719 4.24589 21.584 4.24589C21.8137 4.24589 22 4.43336 22 4.66446V10.0386C22 10.3712 21.8319 10.7196 21.5869 10.9771C21.3425 11.2339 21.0096 11.4129 20.6742 11.4129H10.9705C10.8897 11.4129 10.7923 11.4819 10.7067 11.5796C10.5989 11.7028 10.5266 11.8531 10.5265 11.9752L10.5206 16.1703C10.8141 16.2447 11.077 16.3985 11.2848 16.6076C11.5835 16.9081 11.7689 17.3229 11.7689 17.7797V23.3408C11.7689 23.7975 11.5835 24.2124 11.2848 24.5129C10.9861 24.8134 10.5737 25 10.1198 25C9.66576 25 9.25336 24.8134 8.95473 24.5129C8.65604 24.2124 8.47062 23.7975 8.47062 23.3408V17.7797C8.47062 17.3229 8.65604 16.9081 8.95473 16.6076C9.15609 16.405 9.40914 16.2541 9.69171 16.1774L9.69765 11.9751C9.69805 11.6478 9.85248 11.2899 10.0827 11.0268C10.3142 10.7622 10.6323 10.5756 10.9705 10.5756H20.6742C20.7724 10.5756 20.8893 10.5027 20.9888 10.3982C21.095 10.2866 21.1679 10.1516 21.1679 10.0385V5.08053L20.2395 5.07871V8.36514C20.2395 8.5963 20.0532 8.78371 19.8235 8.78371H15.4657H7.56009H5.21359H3.53254H0.416022C0.186269 8.78371 0 8.59624 0 8.36514V0.41857C0 0.187409 0.186325 0 0.416022 0L0.416078 0ZM8.74816 6.36497V2.58197C8.74816 2.35081 8.93448 2.1634 9.16418 2.1634H13.6394C13.8691 2.1634 14.0554 2.35086 14.0554 2.58197V6.36497C14.0554 6.59613 13.8691 6.78354 13.6394 6.78354H9.16418C8.93442 6.78354 8.74816 6.59607 8.74816 6.36497ZM5.21359 3.30401H7.56009C7.78984 3.30401 7.97611 3.49148 7.97611 3.72258V7.94657H15.0497V0.83714H3.94856V7.94657H4.79751V3.72258C4.79751 3.49142 4.98383 3.30401 5.21353 3.30401H5.21359ZM7.14407 4.14121H5.62966V7.94662H7.14407V4.14121ZM15.8818 0.837196V7.94662H19.4075V0.837196H15.8818V0.837196ZM3.11651 7.94662V0.837196H0.8321V7.94662H3.11651ZM10.1198 16.9578C9.89551 16.9578 9.69126 17.0504 9.54305 17.1996C9.39484 17.3487 9.30272 17.5542 9.30272 17.7799V23.341C9.30272 23.5666 9.39478 23.7721 9.54305 23.9212C9.69126 24.0704 9.89551 24.163 10.1198 24.163C10.3441 24.163 10.5484 24.0704 10.6966 23.9212C10.8448 23.7721 10.9369 23.5666 10.9369 23.341V17.7799C10.9369 17.5542 10.8448 17.3488 10.6966 17.1996C10.5484 17.0505 10.3441 16.9578 10.1198 16.9578V16.9578Z" fill="#BD9B60"/>
</svg>
