<svg width="23" height="26" viewBox="0 0 23 26" fill="none" xmlns="http://www.w3.org/2000/svg">
<path d="M14.4633 18.2466C14.9195 18.3441 15.3386 18.4633 15.7102 18.6005C16.9223 19.0478 17.6721 19.7166 17.6721 20.5007C17.6721 21.2848 16.9223 21.9536 15.7102 22.401C14.6254 22.8013 13.1362 23.049 11.5 23.049C9.86377 23.049 8.37459 22.8013 7.28984 22.401C6.07772 21.9536 5.32794 21.2848 5.32794 20.5007C5.32794 19.7166 6.07772 19.0478 7.28984 18.6005C7.8776 18.3836 8.58402 18.2115 9.36834 18.0993C9.12241 17.6937 8.86725 17.2708 8.60789 16.8362C6.77146 17.0482 5.13339 17.4573 3.83068 18.0058C1.98814 18.7815 0.848559 19.8109 0.848559 20.9097C0.848559 22.0087 1.98825 23.038 3.83068 23.8137C5.78607 24.637 8.49712 25.1463 11.5001 25.1463C14.5031 25.1463 17.214 24.637 19.1694 23.8137C21.012 23.038 22.1516 22.0087 22.1516 20.9097C22.1516 19.8109 21.0119 18.7815 19.1694 18.0058C18.0729 17.5441 16.7387 17.1812 15.2486 16.9514C15.4043 16.6936 15.5621 16.431 15.7215 16.1647C17.1432 16.4071 18.4239 16.7681 19.4942 17.2187C21.6602 18.1307 23 19.4331 23 20.9097C23 22.3863 21.6602 23.6888 19.4942 24.6008C17.441 25.4653 14.6141 26 11.5 26C8.38606 26 5.55905 25.4653 3.50581 24.6008C1.33984 23.6888 0 22.3863 0 20.9097C0 19.4331 1.33978 18.1307 3.50581 17.2187C4.78672 16.6794 6.36886 16.2685 8.1339 16.0357C6.25256 12.8309 4.329 9.19964 4.329 7.21487C4.329 5.22262 5.13172 3.4188 6.42935 2.11322C7.72704 0.807576 9.51988 0 11.4999 0C13.4801 0 15.2729 0.807634 16.5705 2.11322C17.8682 3.41885 18.6709 5.22267 18.6709 7.21487C18.6709 9.8113 15.379 15.2259 13.1958 18.8167C12.6697 19.6821 12.2096 20.4389 11.8678 21.0395C11.7516 21.2439 11.4926 21.3148 11.2895 21.1979C11.2195 21.1576 11.1653 21.1004 11.129 21.0342C10.7981 20.453 10.357 19.7262 9.85265 18.8967C8.98143 18.9954 8.20506 19.1706 7.5815 19.4007C6.71339 19.7211 6.17638 20.1131 6.17638 20.5007C6.17638 20.8882 6.71345 21.2802 7.5815 21.6006C8.57687 21.9679 9.9618 22.1952 11.4999 22.1952C13.0381 22.1952 14.423 21.9679 15.4184 21.6006C16.2865 21.2802 16.8235 20.8882 16.8235 20.5007C16.8235 20.1131 16.2864 19.7211 15.4184 19.4007C15.0047 19.248 14.5236 19.1196 13.9923 19.0215C14.1439 18.7717 14.3013 18.513 14.4633 18.2466L14.4633 18.2466ZM11.5 2.96958C12.6687 2.96958 13.7268 3.44624 14.4927 4.21686C15.2586 4.98742 15.7324 6.05206 15.7324 7.22792C15.7324 8.40372 15.2587 9.46837 14.4927 10.239C13.7267 11.0097 12.6686 11.4863 11.4999 11.4863C10.3312 11.4863 9.27314 11.0097 8.50721 10.239C7.74134 9.46842 7.26753 8.40378 7.26753 7.22792C7.26753 6.05206 7.74134 4.98742 8.50721 4.21686C9.2732 3.44624 10.3312 2.96958 11.4999 2.96958H11.5ZM15.9707 2.71675C14.8267 1.56567 13.246 0.853638 11.5 0.853638C9.75404 0.853638 8.17335 1.56567 7.02927 2.71675C5.88519 3.86784 5.1775 5.45822 5.1775 7.21487C5.1775 9.57494 8.39373 14.865 10.5266 18.3732C10.8896 18.9703 11.2221 19.5172 11.5 19.9852C11.7779 19.5171 12.1104 18.9703 12.4734 18.3732C14.6063 14.865 17.8225 9.575 17.8225 7.21487C17.8225 5.45822 17.1148 3.86784 15.9707 2.71675Z" fill="#BD9B60"/>
</svg>
