<svg width="16" height="21" viewBox="0 0 16 21" fill="none" xmlns="http://www.w3.org/2000/svg">
<path d="M14.8161 14.2027C14.8138 14.1988 14.8116 14.195 14.8093 14.1911C14.7926 14.1635 14.7755 14.1361 14.7579 14.1088C14.7483 14.0938 14.7386 14.0788 14.7288 14.064C14.7168 14.0459 14.7046 14.0279 14.6923 14.0101C14.6763 13.9869 14.66 13.964 14.6435 13.9413C14.6386 13.9345 14.634 13.9276 14.6291 13.9208C14.6256 13.9161 14.6218 13.9116 14.6183 13.9068C14.5984 13.8801 14.5781 13.8538 14.5575 13.8277C14.5503 13.8186 14.5432 13.8094 14.5359 13.8004C14.5154 13.775 14.4944 13.75 14.4731 13.7252C14.4643 13.7149 14.4555 13.7044 14.4466 13.6942C14.4289 13.674 14.4107 13.6542 14.3926 13.6345C14.379 13.6197 14.3656 13.6048 14.3518 13.5903C14.3415 13.5794 14.3308 13.5689 14.3203 13.5582C13.9183 13.1458 13.4229 12.8447 12.8651 12.6783C12.8556 12.6754 12.8459 12.6731 12.836 12.6712C12.8359 12.6712 10.2041 12.1758 10.204 12.1758C10.1993 12.1749 10.1946 12.1747 10.19 12.1739C10.0668 12.1536 9.94103 12.1703 9.8281 12.2205C9.73648 12.1065 9.67611 11.9499 9.67611 11.8052V11.3223C9.84246 11.2147 10.004 11.0938 10.1599 10.9577C10.8121 10.3887 11.2229 9.56724 11.3115 8.67117C11.7904 8.64874 12.1732 8.24695 12.1732 7.75625V7.06831C12.1732 6.79011 12.0501 6.53268 11.843 6.36085V4.77939C12.7947 4.30415 13.0015 3.75008 13.0015 3.35914C13.0015 2.68835 12.3849 1.84872 11.3924 1.16786C10.7566 0.731724 9.42533 0 7.65354 0C5.88174 0 4.55053 0.731724 3.91468 1.16786C2.92218 1.84868 2.30562 2.68831 2.30562 3.35914C2.30562 3.75008 2.51242 4.30415 3.46408 4.77939V6.36085C3.25701 6.53268 3.13395 6.79011 3.13395 7.06831V7.75625C3.13395 8.24695 3.51668 8.64874 3.99558 8.67117C4.08417 9.56724 4.49498 10.3887 5.14721 10.9577C5.30311 11.0938 5.46465 11.2147 5.631 11.3223V11.8052C5.631 11.9499 5.57063 12.1064 5.47901 12.2204C5.36181 12.1684 5.23067 12.1517 5.10315 12.1758L2.47112 12.6712C2.46129 12.6731 2.45159 12.6754 2.44204 12.6783C1.88453 12.8446 1.38937 13.1455 0.987414 13.5576C0.976661 13.5685 0.965791 13.5794 0.955193 13.5904C0.941605 13.6047 0.928367 13.6194 0.915013 13.634C0.89665 13.654 0.878327 13.674 0.860392 13.6944C0.851579 13.7044 0.842961 13.7148 0.834226 13.7249C0.812874 13.7498 0.791795 13.775 0.771181 13.8005C0.763921 13.8095 0.756856 13.8186 0.749674 13.8277C0.729021 13.8538 0.708679 13.8801 0.688802 13.9068C0.68527 13.9116 0.681543 13.916 0.67801 13.9208C0.673041 13.9276 0.66846 13.9345 0.663569 13.9413C0.64707 13.964 0.630804 13.9869 0.614848 14.0101C0.602464 14.028 0.590313 14.046 0.578318 14.064C0.568496 14.0789 0.558829 14.0938 0.549241 14.1088C0.531732 14.136 0.514574 14.1635 0.497842 14.1911C0.495551 14.195 0.493261 14.1988 0.491009 14.2026C0.169221 14.7399 0 15.3501 0 15.9864V16.3461C0 16.5092 0.1304 16.6413 0.291236 16.6413C0.452071 16.6413 0.582471 16.5091 0.582471 16.3461V15.9864C0.582471 15.6988 0.624554 15.4177 0.705612 15.1492C0.877007 15.2873 1.08501 15.3609 1.3012 15.3609C1.33576 15.3609 1.37058 15.359 1.4054 15.3552C1.66042 15.3275 1.88954 15.2008 2.05053 14.9985L2.36746 14.6002C2.52846 14.3979 2.60206 14.1441 2.57473 13.8857C2.55299 13.6803 2.46937 13.4917 2.33583 13.3409C2.41952 13.3064 2.50501 13.2753 2.59263 13.2487L4.27207 12.9326L5.60472 14.8222C5.7381 15.0113 5.94696 15.1155 6.16358 15.1155C6.25446 15.1155 6.3467 15.0972 6.43529 15.0591L6.524 15.0209L6.91182 15.4778L6.35245 19.5507H2.69263V17.1577C2.69263 16.9947 2.56223 16.8626 2.40139 16.8626C2.24056 16.8626 2.11016 16.9947 2.11016 17.1577V19.5507H0.945138C0.745171 19.5507 0.582549 19.3859 0.582549 19.1833V17.7194C0.582549 17.5564 0.452149 17.4243 0.291313 17.4243C0.130478 17.4243 7.77476e-05 17.5564 7.77476e-05 17.7194V19.1833C7.77476e-05 19.7113 0.424043 20.141 0.945177 20.141H14.3621C14.8832 20.141 15.3071 19.7113 15.3071 19.1833V15.9865C15.3071 15.3501 15.1379 14.74 14.8161 14.2027ZM1.914 14.2298L1.59706 14.6281C1.53374 14.7077 1.44364 14.7575 1.34333 14.7684C1.24317 14.7793 1.14452 14.75 1.06599 14.6858L0.944439 14.5865C0.970527 14.5394 0.997857 14.4931 1.02635 14.4478C1.02666 14.4473 1.02705 14.4468 1.02736 14.4462C1.05182 14.4073 1.07756 14.3695 1.10376 14.332C1.11172 14.3207 1.11964 14.3093 1.12775 14.2981C1.15112 14.2657 1.17515 14.2339 1.1998 14.2025C1.20617 14.1944 1.21242 14.1862 1.21887 14.1782C1.2467 14.1436 1.27543 14.1099 1.30482 14.0767C1.31339 14.067 1.32213 14.0575 1.33083 14.0479C1.35994 14.0159 1.38952 13.9844 1.42007 13.9538C1.42268 13.9512 1.42524 13.9485 1.42788 13.9459C1.5405 13.8339 1.66259 13.7314 1.7933 13.6395L1.85712 13.6916C1.93566 13.7558 1.98484 13.8471 1.9956 13.9487C2.00627 14.0503 1.97735 14.1501 1.914 14.2298ZM13.45 13.6915L13.5138 13.6394C13.6446 13.7314 13.7667 13.8339 13.8793 13.9458C13.8819 13.9484 13.8844 13.9511 13.8871 13.9538C13.9176 13.9844 13.9472 14.0159 13.9763 14.0478C13.985 14.0574 13.9938 14.0669 14.0023 14.0766C14.0317 14.1098 14.0604 14.1436 14.0883 14.1781C14.0947 14.1861 14.101 14.1944 14.1073 14.2025C14.132 14.2338 14.156 14.2656 14.1794 14.298C14.1875 14.3092 14.1955 14.3206 14.2034 14.3319C14.2296 14.3694 14.2553 14.4073 14.2798 14.4461C14.2801 14.4466 14.2805 14.4471 14.2808 14.4477C14.3093 14.4931 14.3367 14.5393 14.3627 14.5864L14.2412 14.6857C14.1626 14.7499 14.064 14.7792 13.9638 14.7683C13.8635 14.7574 13.7734 14.7076 13.7101 14.628L13.3931 14.2297C13.2624 14.0654 13.2879 13.824 13.45 13.6915ZM9.97271 12.826C9.9731 12.8257 9.97348 12.8254 9.97387 12.8251L10.0501 12.7673C10.0636 12.7571 10.081 12.7531 10.0975 12.7561L10.403 12.8136L9.22851 14.479C9.19912 14.5207 9.14609 14.5359 9.09954 14.5158L8.23368 14.1431L9.97271 12.826ZM7.65354 13.8456L5.9564 12.5601C6.11673 12.3469 6.21351 12.0754 6.21351 11.8052V11.6324C6.66274 11.8231 7.14277 11.9228 7.65031 11.9286C7.6514 11.9286 7.65249 11.9286 7.65357 11.9286C7.65466 11.9286 7.65575 11.9286 7.65684 11.9286C8.16438 11.9228 8.64441 11.8231 9.09364 11.6324V11.8052C9.09364 12.0754 9.19042 12.3469 9.35072 12.5601L7.65354 13.8456ZM8.22048 14.7787L7.95518 15.0913H7.35201L7.08671 14.7787L7.65357 14.5347L8.22048 14.7787ZM3.46408 4.10664C3.08977 3.87281 2.88813 3.61452 2.88813 3.3591C2.88813 2.82709 3.58951 2.10367 4.2412 1.65664C4.82181 1.25842 6.03714 0.590265 7.65354 0.590265C9.26993 0.590265 10.4853 1.25842 11.0659 1.65667C11.7176 2.10371 12.4189 2.82713 12.4189 3.35914C12.4189 3.61452 12.2173 3.87285 11.843 4.10668V3.56999C11.843 3.15321 11.5646 2.79 11.166 2.68674C10.4119 2.49146 8.92924 2.16386 7.47119 2.16327C7.46987 2.16327 7.46879 2.16327 7.46747 2.16327C6.20489 2.16327 4.9505 2.44497 4.12039 2.68139C3.73397 2.79145 3.46408 3.15234 3.46408 3.55898V4.10664ZM4.47417 5.1428C4.47009 5.14016 4.46594 5.13756 4.4619 5.13493C4.44303 5.12269 4.42487 5.11038 4.4072 5.09803C4.40002 5.09299 4.39292 5.08796 4.38593 5.08288C4.37149 5.0725 4.35747 5.06204 4.34388 5.05157C4.33453 5.04433 4.32548 5.0371 4.31655 5.02986C4.30584 5.0212 4.29532 5.01255 4.28523 5.00386C4.27447 4.99457 4.26426 4.98533 4.25425 4.97604C4.24672 4.96908 4.23911 4.96216 4.23196 4.95519C4.22055 4.94402 4.20987 4.93289 4.19951 4.92176C4.19454 4.91645 4.18934 4.9111 4.1846 4.90579C4.1841 4.9052 4.18367 4.90461 4.18317 4.90406H9.07283C9.23367 4.90406 9.36407 4.77192 9.36407 4.60894C9.36407 4.44593 9.23367 4.31383 9.07283 4.31383H4.04659V3.55901C4.04659 3.41567 4.14174 3.28845 4.27801 3.24966C5.07294 3.02323 6.27112 2.75353 7.46747 2.75353C7.46855 2.75353 7.46984 2.75353 7.47092 2.75353C8.86534 2.75412 10.2941 3.0702 11.0217 3.25863C11.1623 3.29502 11.2604 3.42306 11.2604 3.56999V4.31379H10.4794C10.3185 4.31379 10.1881 4.44593 10.1881 4.6089C10.1881 4.77196 10.3185 4.90406 10.4794 4.90406H11.1241C11.1236 4.90464 11.1231 4.90524 11.1226 4.90579C11.1179 4.9111 11.1127 4.91645 11.1077 4.92176C11.0973 4.93289 11.0867 4.94402 11.0753 4.95519C11.0681 4.96216 11.0605 4.96908 11.053 4.97604C11.043 4.98533 11.0328 4.99457 11.022 5.00386C11.0119 5.01255 11.0014 5.0212 10.9907 5.02986C10.9817 5.0371 10.9727 5.04433 10.9633 5.05157C10.9498 5.06204 10.9357 5.0725 10.9213 5.08288C10.9143 5.08792 10.9072 5.09299 10.9 5.09803C10.8823 5.11038 10.8642 5.12269 10.8453 5.13493C10.8413 5.13756 10.8372 5.14016 10.8331 5.1428C10.712 5.21998 10.5678 5.29444 10.403 5.36352C10.3995 5.36498 10.3964 5.36702 10.393 5.3686C9.76901 5.62925 8.83129 5.82621 7.65361 5.82621C6.47594 5.82621 5.53821 5.62925 4.91421 5.3686C4.91083 5.36702 4.90772 5.36498 4.90427 5.36352C4.73943 5.29444 4.59521 5.21998 4.47417 5.1428ZM4.50165 5.82861V6.40357C4.34152 6.31947 4.17948 6.27423 4.04663 6.25004V5.56422C4.17156 5.65419 4.3218 5.74301 4.50165 5.82861ZM10.8055 5.82857C10.9853 5.74301 11.1355 5.65419 11.2605 5.56422V6.24996C11.1276 6.27415 10.9656 6.31943 10.8055 6.40354V5.82857ZM5.52727 10.5104C4.93078 9.99001 4.57848 9.2101 4.5607 8.37067C4.55732 8.21021 4.42793 8.08189 4.26954 8.08189H4.03782C3.86064 8.08189 3.71646 7.93582 3.71646 7.75625V7.06831C3.71646 6.96929 3.76052 6.87756 3.83463 6.81643C3.93731 6.82563 4.12901 6.85683 4.29159 6.96146C4.29322 6.96253 4.29481 6.96355 4.29644 6.96461C4.31939 6.97964 4.34167 6.9962 4.36306 7.01433C4.36555 7.01642 4.36803 7.01854 4.37048 7.02071C4.38088 7.02979 4.39109 7.03916 4.40099 7.04907C4.40965 7.05772 4.41869 7.06579 4.42793 7.0735C4.43065 7.07578 4.43341 7.0779 4.43616 7.08011C4.44315 7.08565 4.45025 7.09093 4.45751 7.09592C4.46039 7.09789 4.46318 7.0999 4.46609 7.10178C4.47595 7.10823 4.48593 7.11433 4.49622 7.1198C4.49626 7.11984 4.49633 7.11988 4.49637 7.11992C4.50682 7.12546 4.51749 7.13042 4.52832 7.13498C4.53131 7.13624 4.53434 7.13738 4.53737 7.13856C4.5456 7.14183 4.55387 7.14478 4.56225 7.14745C4.5654 7.14848 4.5685 7.1495 4.57169 7.1504C4.58267 7.15363 4.59374 7.15646 4.60492 7.1587C4.60511 7.15874 4.60527 7.15878 4.60546 7.15882C4.61695 7.1611 4.62856 7.16272 4.64021 7.16398C4.64335 7.16433 4.64649 7.16453 4.6496 7.16476C4.65841 7.16551 4.66726 7.16594 4.67615 7.16606C4.67817 7.1661 4.68015 7.16634 4.68213 7.16634C4.68341 7.16634 4.68473 7.16614 4.68601 7.16614C4.69747 7.16602 4.70896 7.16555 4.72045 7.16445C4.72076 7.16441 4.72107 7.16441 4.72134 7.16441C4.7331 7.16323 4.74487 7.16138 4.75659 7.1591C4.75989 7.15847 4.76319 7.15768 4.76649 7.15697C4.77519 7.15505 4.78384 7.15284 4.7925 7.15037C4.79592 7.14938 4.79933 7.14844 4.80275 7.14734C4.81424 7.14364 4.82565 7.13963 4.83695 7.13487C4.98711 7.07134 5.08413 6.9239 5.08413 6.75915V6.05335C5.83407 6.29268 6.75619 6.41644 7.65354 6.41644C8.55089 6.41644 9.473 6.29268 10.2229 6.05335V6.75915C10.2229 6.9239 10.32 7.07137 10.4701 7.13487C10.4815 7.13967 10.4929 7.14372 10.5045 7.14741C10.5077 7.14844 10.511 7.14934 10.5143 7.15033C10.5231 7.15288 10.532 7.15516 10.5409 7.15709C10.544 7.15776 10.5471 7.15851 10.5503 7.1591C10.5739 7.16366 10.5976 7.16598 10.6213 7.16618C10.6225 7.16618 10.6237 7.16638 10.6249 7.16638C10.6268 7.16638 10.6287 7.16614 10.6306 7.1661C10.6397 7.16598 10.6488 7.16551 10.6579 7.16476C10.6608 7.16453 10.6638 7.16433 10.6667 7.16402C10.69 7.16154 10.713 7.15697 10.7355 7.15037C10.7386 7.14946 10.7416 7.14848 10.7447 7.14749C10.7532 7.14482 10.7615 7.14179 10.7698 7.13852C10.7728 7.13734 10.7758 7.1362 10.7788 7.13494C10.7896 7.13038 10.8003 7.12542 10.8108 7.11988C10.8109 7.11984 10.8109 7.1198 10.811 7.11976C10.8213 7.11429 10.8312 7.1082 10.8411 7.10178C10.844 7.0999 10.8468 7.09785 10.8497 7.09588C10.8569 7.09089 10.864 7.08561 10.871 7.08011C10.8738 7.0779 10.8766 7.07574 10.8793 7.07346C10.8885 7.06571 10.8976 7.05769 10.9062 7.04903C10.916 7.0392 10.9262 7.02995 10.9364 7.02094C10.9391 7.01858 10.9418 7.01626 10.9446 7.01394C10.9541 7.00584 10.9638 6.99801 10.9737 6.99057C10.9746 6.98987 10.9755 6.98916 10.9764 6.98845C10.9871 6.98046 10.998 6.97299 11.009 6.96571C11.012 6.96375 11.015 6.96186 11.018 6.95993C11.0278 6.95368 11.0377 6.94762 11.0477 6.94187C11.0491 6.94105 11.0506 6.94014 11.052 6.93932C11.0634 6.93291 11.0749 6.92685 11.0864 6.92106C11.0893 6.91961 11.0922 6.91823 11.095 6.91682C11.1054 6.91178 11.1157 6.9069 11.1261 6.90234C11.1275 6.90171 11.1289 6.90104 11.1304 6.90041C11.1423 6.89522 11.1543 6.89038 11.1662 6.88578C11.1683 6.88495 11.1704 6.88417 11.1726 6.88338C11.1839 6.87909 11.1952 6.87504 11.2064 6.87126C11.2071 6.87107 11.2077 6.87083 11.2083 6.87063C11.2209 6.86642 11.2335 6.86253 11.2458 6.85891C11.2463 6.85879 11.2468 6.85864 11.2472 6.85852C11.3359 6.83271 11.4172 6.82134 11.4725 6.81635C11.5467 6.87752 11.5907 6.96921 11.5907 7.06827V7.75621C11.5907 7.93579 11.4465 8.08185 11.2694 8.08185H11.0376C10.8792 8.08185 10.7499 8.21017 10.7465 8.37063C10.7287 9.21006 10.3764 9.98997 9.77992 10.5104C9.16139 11.05 8.44607 11.3286 7.65365 11.3383C6.86116 11.3286 6.14588 11.0501 5.52727 10.5104ZM6.20753 14.5158C6.1609 14.5358 6.10791 14.5207 6.07857 14.4791L4.90407 12.8137L5.20956 12.7562C5.22617 12.7531 5.24345 12.7571 5.257 12.7674L5.3332 12.8251C5.33363 12.8254 5.33402 12.8257 5.33444 12.826L7.07336 14.1431L6.20753 14.5158ZM6.94051 19.5507L7.47185 15.6815H7.83522L8.36656 19.5507H6.94051ZM14.362 19.5507H13.1971V17.1577C13.1971 16.9947 13.0667 16.8626 12.9058 16.8626C12.745 16.8626 12.6146 16.9947 12.6146 17.1577V19.5507H8.95474L8.39537 15.4778L8.78319 15.0209L8.8719 15.0591C8.96049 15.0972 9.05269 15.1155 9.14357 15.1155C9.36015 15.1155 9.56912 15.0113 9.70247 14.8222L11.0351 12.9326L12.7145 13.2487C12.8021 13.2753 12.8877 13.3064 12.9714 13.3409C12.6634 13.6896 12.6405 14.2243 12.9396 14.6001L13.2565 14.9985C13.4175 15.2008 13.6466 15.3274 13.9016 15.3551C13.9365 15.359 13.9713 15.3608 14.0059 15.3608C14.222 15.3608 14.43 15.2872 14.6014 15.1492C14.6825 15.4177 14.7246 15.6988 14.7246 15.9864V19.1833H14.7246C14.7246 19.3859 14.5619 19.5507 14.362 19.5507Z" fill="#BD9B60"/>
<path d="M11.6292 16.8626H10.0954C9.83303 16.8626 9.61959 17.0788 9.61959 17.3447V18.1727C9.61959 18.4386 9.83303 18.6548 10.0954 18.6548H11.6292C11.8915 18.6548 12.1049 18.4386 12.1049 18.1727V17.3447C12.1049 17.0788 11.8915 16.8626 11.6292 16.8626ZM10.202 18.0645V17.4528H11.5224V18.0645H10.202Z" fill="#BD9B60"/>
<path d="M5.21177 16.8625H3.67799C3.41563 16.8625 3.20223 17.0788 3.20223 17.3447V18.1727C3.20223 18.4385 3.41567 18.6548 3.67799 18.6548H5.21177C5.47412 18.6548 5.68756 18.4385 5.68756 18.1727V17.3447C5.6876 17.0788 5.47412 16.8625 5.21177 16.8625ZM5.10509 18.0645H3.78474V17.4528H5.10509V18.0645Z" fill="#BD9B60"/>
</svg>
