<svg width="24" height="26" viewBox="0 0 24 26" fill="none" xmlns="http://www.w3.org/2000/svg">
<path fill-rule="evenodd" clip-rule="evenodd" d="M16.278 0.942627C12.02 0.942627 8.55586 4.42331 8.55586 8.70167C8.55586 9.96487 8.86509 11.219 9.45014 12.3285C9.57136 12.5583 9.855 12.646 10.0838 12.5242C10.3125 12.4024 10.3997 12.1174 10.2786 11.8875C9.76491 10.9134 9.49341 9.81175 9.49341 8.70167C9.49336 4.94272 12.5369 1.88461 16.278 1.88461C20.019 1.88461 23.0625 4.94272 23.0625 8.70167C23.0625 10.2828 22.5115 11.8238 21.511 13.0405C21.4964 13.0584 21.4832 13.0771 21.4716 13.0965L17.2585 18.5199C16.9803 18.4161 16.6797 18.3592 16.3661 18.3592H15.902H15.8991H15.2045L13.8684 15.1969C13.5305 14.3971 12.7533 13.8803 11.8885 13.8803H6.41948C5.55469 13.8803 4.77759 14.3971 4.43962 15.1969L3.10355 18.3592H2.57137C1.1535 18.3592 0 19.5183 0 20.9429V23.3514C0 23.4765 0.0495 23.5964 0.137578 23.6848C0.225469 23.7729 0.344625 23.8224 0.46875 23.8224H0.4695L2.74561 23.8188C2.9497 24.5331 3.60534 25.0575 4.38098 25.0575C5.15667 25.0575 5.81231 24.5331 6.01641 23.8187H13.5111C13.7152 24.5331 14.3708 25.0575 15.1465 25.0575C15.9221 25.0575 16.5776 24.5333 16.7819 23.8192L18.4679 23.8224H18.4688C18.5929 23.8224 18.712 23.7729 18.7999 23.6848C18.888 23.5964 18.9375 23.4765 18.9375 23.3514V20.9429C18.9375 20.1736 18.6008 19.4822 18.0682 19.0085L22.2462 13.6303C22.2553 13.6186 22.2638 13.6065 22.2716 13.5942C23.3866 12.2163 24 10.4813 24 8.70167C24 4.42331 20.5359 0.942627 16.278 0.942627ZM17.7531 20.0766H16.7925L16.5491 19.3118C17.0569 19.3689 17.4949 19.6607 17.7531 20.0766ZM9.62278 14.8222H11.8885C12.3764 14.8222 12.8148 15.1138 13.0054 15.565L14.186 18.3592H9.62278V14.8222ZM0.9375 20.9429C0.9375 20.7837 0.960609 20.63 1.00284 20.4843H1.61672C1.81945 20.4843 1.98441 20.65 1.98441 20.8538C1.98441 21.0575 1.81945 21.2232 1.61672 21.2232H0.9375V20.9429ZM4.38098 24.1155C3.95963 24.1155 3.61683 23.771 3.61683 23.3477C3.61683 22.9244 3.95963 22.5799 4.38098 22.5799C4.80234 22.5799 5.14509 22.9244 5.14509 23.3477C5.14509 23.771 4.80234 24.1155 4.38098 24.1155ZM8.68528 22.8767H6.01645C5.81236 22.1623 5.15672 21.6379 4.38103 21.6379C3.6053 21.6379 2.94961 22.1624 2.74556 22.8768L0.9375 22.8797V22.1651H1.61672C2.33639 22.1651 2.92191 21.5768 2.92191 20.8537C2.92191 20.1634 2.38823 19.5964 1.7138 19.5463C1.96327 19.391 2.25703 19.3011 2.57142 19.3011H8.68528V22.8767ZM8.68528 18.3592H4.122L5.30259 15.565C5.49319 15.1138 5.93161 14.8222 6.41948 14.8222H8.68528V18.3592ZM15.1465 24.1155C14.7252 24.1155 14.3824 23.771 14.3824 23.3477C14.3824 22.9244 14.7252 22.5799 15.1465 22.5799C15.5678 22.5799 15.9107 22.9244 15.9107 23.3477C15.9107 23.771 15.5679 24.1155 15.1465 24.1155ZM18 22.8794L16.7821 22.8772C16.5782 22.1625 15.9224 21.6379 15.1465 21.6379C14.3708 21.6379 13.7152 22.1623 13.5111 22.8767H9.62278V19.3011H14.8942H15.5616L16.0037 20.6909C16.0658 20.8861 16.2463 21.0185 16.4502 21.0185H18V22.8794ZM17.1722 3.71515C18.2187 3.89949 19.1702 4.39719 19.9239 5.1545C20.8978 6.13308 21.4341 7.43411 21.4341 8.81798C21.4341 10.2018 20.8978 11.5029 19.9239 12.4815C18.9187 13.4915 17.5983 13.9965 16.2779 13.9965C14.9575 13.9965 13.637 13.4915 12.6319 12.4815C11.888 11.7341 11.3951 10.7914 11.2063 9.75539C11.0219 8.74394 11.1374 7.71166 11.5401 6.77024C11.6423 6.53126 11.9179 6.42067 12.1559 6.52354C12.3937 6.62626 12.5036 6.90325 12.4014 7.14219C11.7152 8.74625 12.0659 10.5806 13.2948 11.8153C14.9396 13.468 17.6161 13.4681 19.261 11.8153C20.0578 11.0147 20.4966 9.9502 20.4966 8.81793C20.4966 7.68571 20.0578 6.62122 19.261 5.82058C18.0307 4.58437 16.1376 4.23418 14.5505 4.94924C14.3142 5.05555 14.0369 4.94948 13.931 4.71215C13.8251 4.47481 13.9307 4.19613 14.167 4.08968C15.1106 3.66461 16.1497 3.53513 17.1722 3.71515ZM12.6525 5.134C12.8366 4.95116 13.1334 4.95281 13.3154 5.13772C13.4974 5.32268 13.4958 5.62091 13.3117 5.8038L13.2943 5.82113C13.2028 5.91269 13.0831 5.95848 12.9635 5.95848C12.8433 5.95848 12.723 5.91227 12.6314 5.81991C12.4487 5.63561 12.4493 5.33742 12.6327 5.15383L12.6525 5.134ZM15.3122 6.09138H16.6649C17.6693 6.09138 18.4865 6.91241 18.4865 7.92161C18.4865 8.93081 17.6693 9.75189 16.6649 9.75189H15.7809V11.2292C15.7809 11.4893 15.5711 11.7001 15.3122 11.7001C15.0533 11.7001 14.8434 11.4893 14.8434 11.2292V9.28089V7.92161V6.56237C14.8434 6.30224 15.0533 6.09138 15.3122 6.09138ZM15.7809 8.8099H16.6649C17.1524 8.8099 17.549 8.41139 17.549 7.92161C17.549 7.43182 17.1524 7.03336 16.6649 7.03336H15.7809V7.92161V8.8099Z" fill="#BD9B60"/>
</svg>
