<svg width="21" height="24" viewBox="0 0 21 24" fill="none" xmlns="http://www.w3.org/2000/svg">
<path d="M19.875 8.40091H19.4625C19.2831 7.47036 18.5157 6.8022 17.625 6.801C17.625 5.9174 16.9534 5.20109 16.125 5.20109C15.2966 5.20109 14.625 5.9174 14.625 6.801H13.875C13.1101 6.80185 12.4221 7.29747 12.1357 8.05398C11.9675 8.01863 11.7964 8.00083 11.625 8.00093H11.25C11.043 8.00068 10.8752 7.82174 10.875 7.60095V6.40102H13.125C13.9534 6.40102 14.625 5.68471 14.625 4.80112C14.625 3.91752 13.9534 3.20121 13.125 3.20121H13.0875C12.9081 2.27066 12.1407 1.6025 11.25 1.6013H11.2125C11.0058 0.518864 10.0155 -0.179845 9.0007 0.040642C8.26364 0.200783 7.68764 0.815147 7.5375 1.6013H7.125C5.88234 1.6013 4.875 2.67574 4.875 4.00116C4.875 5.32658 5.88234 6.40102 7.125 6.40102H8.625V7.60095C8.62664 9.14656 9.80091 10.399 11.25 10.4008H11.625C11.8321 10.4008 12 10.5799 12 10.8008C12 11.0217 11.8321 11.2007 11.625 11.2007H10.125C10.0147 11.2007 9.90445 11.2081 9.795 11.2227C9.71827 11.2081 9.64045 11.2007 9.5625 11.2007H9.375C9.37411 10.4712 8.91145 9.83437 8.24939 9.65128C8.24981 9.63449 8.25 9.61764 8.25 9.60084C8.24883 8.49685 7.41005 7.6022 6.375 7.60095H6.32756C6.12038 6.7453 5.30203 6.23083 4.49981 6.45182C3.97148 6.59736 3.55889 7.03744 3.42244 7.60095H3.375C2.48433 7.60215 1.71689 8.27031 1.5375 9.20086H1.125C0.503672 9.20086 0 9.73808 0 10.4008C0 11.0635 0.503672 11.6007 1.125 11.6007H3.375V11.9507C3.3757 12.6407 3.89995 13.1999 4.54687 13.2006H5.37656C5.59416 13.6889 6.05564 14.0002 6.5625 14.0006H7.5V15.2005H7.125C7.02553 15.2005 6.93014 15.2427 6.85983 15.3177L5.46966 16.8004H4.125C3.91791 16.8004 3.75 16.9795 3.75 17.2004V18.8003C3.75 19.0212 3.91791 19.2003 4.125 19.2003H4.5V23.6C4.5 23.8209 4.66791 24 4.875 24H6.375C6.58209 24 6.75 23.8209 6.75 23.6V23.2H14.25V23.6C14.25 23.8209 14.4179 24 14.625 24H16.125C16.3321 24 16.5 23.8209 16.5 23.6V19.2003H16.875C17.0821 19.2003 17.25 19.0212 17.25 18.8003V17.2004C17.25 16.9795 17.0821 16.8004 16.875 16.8004H15.5303L14.1402 15.3177C14.0699 15.2427 13.9745 15.2005 13.875 15.2005H12.9053L12.2652 14.5177C12.1949 14.4427 12.0995 14.4006 12 14.4006H10.125C10.0255 14.4006 9.93014 14.4427 9.85983 14.5177L9.75 14.6348V14.0006C9.75 13.9956 9.75 13.991 9.75 13.9863C10.0257 13.9438 10.2814 13.8087 10.4802 13.6006H11.625C12.4836 13.6005 13.2877 13.1523 13.7782 12.4007H16.125C16.746 12.3999 17.2493 11.8632 17.25 11.2007V10.8008H19.875C20.4963 10.8008 21 10.2635 21 9.60084C21 8.93813 20.4963 8.40091 19.875 8.40091ZM5.625 4.00116C5.62594 3.11796 6.29695 2.40225 7.125 2.40125H7.875C8.08209 2.40125 8.25 2.22217 8.25 2.00128C8.25 1.33857 8.75367 0.801348 9.375 0.801348C9.99633 0.801348 10.5 1.33857 10.5 2.00128C10.5 2.22217 10.6679 2.40125 10.875 2.40125H11.25C11.871 2.402 12.3743 2.93882 12.375 3.60119C12.375 3.82207 12.5429 4.00116 12.75 4.00116H13.125C13.5392 4.00116 13.875 4.35929 13.875 4.80112C13.875 5.24294 13.5392 5.60107 13.125 5.60107H7.125C6.29695 5.60007 5.62594 4.88436 5.625 4.00116ZM11.625 9.60084H11.25C10.215 9.59959 9.37617 8.70494 9.375 7.60095V6.40102H10.125V7.60095C10.1257 8.26331 10.629 8.80013 11.25 8.80088H11.625C11.7511 8.80078 11.8769 8.81418 12.0004 8.84088C12.0064 9.18091 12.0941 9.51364 12.2552 9.80717C12.0693 9.67243 11.8497 9.60054 11.625 9.60084ZM0.75 10.4008C0.750234 10.18 0.918 10.0011 1.125 10.0008H1.875C2.08209 10.0008 2.25 9.82172 2.25 9.60084C2.2507 8.93848 2.754 8.40166 3.375 8.40091H3.75C3.95709 8.40091 4.125 8.22182 4.125 8.00093C4.125 7.55911 4.46077 7.20098 4.875 7.20098C5.28923 7.20098 5.625 7.55911 5.625 8.00093C5.625 8.22182 5.79291 8.40091 6 8.40091H6.375C6.996 8.40166 7.4993 8.93848 7.5 9.60084C7.5 9.61784 7.49962 9.63479 7.49897 9.65173C6.97195 9.79858 6.56039 10.2375 6.42272 10.7997C6.40683 10.8004 6.39094 10.8008 6.375 10.8008H1.125C0.918 10.8005 0.750234 10.6216 0.75 10.4008ZM4.125 11.9507V11.6007H5.64483C5.43867 11.8154 5.30461 12.0965 5.26336 12.4007H4.54687C4.314 12.4004 4.12523 12.1991 4.125 11.9507ZM8.25 14.0006H9V15.2005H8.25V14.0006ZM15.75 23.2H15V22.8001C15 22.5792 14.8321 22.4001 14.625 22.4001H6.375C6.16791 22.4001 6 22.5792 6 22.8001V23.2H5.25V19.2003H15.75V23.2ZM16.5 18.4003H4.5V17.6004H16.5V18.4003ZM10.2803 15.2005H11.8447L12.4848 15.8833C12.5551 15.9583 12.6505 16.0005 12.75 16.0005H13.7197L14.4697 16.8004H6.53034L7.28034 16.0005H9.375C9.47447 16.0005 9.56986 15.9583 9.64017 15.8833L10.2803 15.2005ZM9.5625 13.2006H6.5625C6.25186 13.2006 6 12.932 6 12.6007C6 12.2693 6.25186 12.0007 6.5625 12.0007H6.75C6.95709 12.0007 7.125 11.8216 7.125 11.6007V11.2007C7.125 10.7589 7.46077 10.4008 7.875 10.4008C8.28923 10.4008 8.625 10.7589 8.625 11.2007V11.6007C8.625 11.8216 8.79291 12.0007 9 12.0007H9.5625C9.87314 12.0007 10.125 12.2693 10.125 12.6007C10.125 12.932 9.87314 13.2006 9.5625 13.2006ZM11.625 12.8007H10.8616C10.8705 12.7344 10.875 12.6676 10.875 12.6007C10.8753 12.3931 10.8321 12.1881 10.7484 12.0007H11.625C12.2463 12.0006 12.75 11.4634 12.75 10.8007C12.75 10.6346 12.7176 10.4704 12.655 10.3183C12.8966 10.5401 13.1874 10.6923 13.4996 10.7605C13.4996 10.7739 13.5 10.7873 13.5 10.8008C13.4988 11.9048 12.66 12.7994 11.625 12.8007ZM16.5 11.2007C16.4998 11.4215 16.332 11.6005 16.125 11.6007H14.1409C14.2134 11.3411 14.2502 11.0717 14.25 10.8008H16.5V11.2007ZM19.875 10.0008H13.875C13.2537 10.0008 12.75 9.46359 12.75 8.80088C12.75 8.13817 13.2537 7.60095 13.875 7.60095H15C15.2071 7.60095 15.375 7.42186 15.375 7.20098V6.801C15.375 6.35917 15.7108 6.00105 16.125 6.00105C16.5392 6.00105 16.875 6.35917 16.875 6.801V7.20098C16.875 7.42186 17.0429 7.60095 17.25 7.60095H17.625C18.246 7.6017 18.7493 8.13852 18.75 8.80088C18.75 9.02177 18.9179 9.20086 19.125 9.20086H19.875C20.0821 9.20086 20.25 9.37995 20.25 9.60084C20.25 9.82172 20.0821 10.0008 19.875 10.0008Z" fill="#BD9B60"/>
</svg>
