<svg width="21" height="22" viewBox="0 0 21 22" fill="none" xmlns="http://www.w3.org/2000/svg">
<path d="M20.6499 17.2334C20.8432 17.2334 20.9999 17.0692 20.9999 16.8667C20.9999 16.6642 20.8432 16.5001 20.6499 16.5001H20.2999C20.2999 16.2976 20.1432 16.1334 19.9499 16.1334C19.7566 16.1334 19.6 16.2976 19.6 16.5001H14C14 16.2976 13.8433 16.1334 13.65 16.1334C13.4567 16.1334 13.3001 16.2976 13.3001 16.5001H12.9501C12.7568 16.5001 12.6001 16.6643 12.6001 16.8667C12.6001 17.0692 12.7568 17.2334 12.9501 17.2334H13.3001V18.3334H12.9501C12.7568 18.3334 12.6001 18.4975 12.6001 18.7C12.6001 18.9026 12.7568 19.0667 12.9501 19.0667H13.3001V19.4333H12.9501C12.7568 19.4333 12.6001 19.5975 12.6001 19.8C12.6001 20.0025 12.7568 20.1667 12.9501 20.1667H13.3001V21.2667H7.35012V18.2331C7.86785 18.5387 8.45199 18.6995 9.04625 18.7C11.0338 18.67 12.6234 16.9606 12.6 14.8783C12.6108 13.4305 11.8391 12.1009 10.6072 11.4447C11.0127 10.8663 11.23 10.1665 11.2271 9.44883C11.2392 7.86487 10.1786 6.49383 8.69693 6.17818C9.07184 5.31201 9.00741 4.30663 8.52528 3.5008C8.04319 2.69492 7.20763 2.19584 6.3001 2.17173C6.28972 2.17173 6.27971 2.17328 6.26938 2.17341C6.08305 0.911543 5.03934 -0.0146907 3.82063 0.000176449C2.60191 0.0150436 1.57912 0.966543 1.42089 2.23262C0.534637 2.41059 -0.0771815 3.26541 0.00808844 4.2066C0.0933584 5.14779 0.847786 5.8667 1.75024 5.86674H3.79036C3.82194 5.97219 3.85939 6.07561 3.90249 6.17646C2.42087 6.49318 1.3608 7.86474 1.37323 9.44887C1.37023 10.1666 1.58753 10.8663 1.99304 11.4448C0.761162 12.1009 -0.0105323 13.4306 0.000254604 14.8783C-0.0231239 16.9606 1.56645 18.6701 3.55403 18.7C4.14829 18.6996 4.73243 18.5388 5.25016 18.2331V21.2667H0.350276C0.156972 21.2667 0.000295616 21.4308 0.000295616 21.6333C0.000295616 21.8359 0.156972 22 0.350276 22H20.6499C20.8432 22 20.9999 21.8359 20.9999 21.6333C20.9999 21.4308 20.8432 21.2667 20.6499 21.2667H20.2999V20.1667H20.6499C20.8432 20.1667 20.9999 20.0026 20.9999 19.8C20.9999 19.5975 20.8432 19.4334 20.6499 19.4334H20.2999V19.0667H20.6499C20.8432 19.0667 20.9999 18.9026 20.9999 18.7001C20.9999 18.4976 20.8432 18.3334 20.6499 18.3334H20.2999V17.2334L20.6499 17.2334ZM3.66169 5.00664C3.66169 5.04922 3.66629 5.09107 3.66809 5.13339H1.75024C1.17037 5.13339 0.700256 4.64093 0.700256 4.03339C0.700256 3.42586 1.17037 2.93339 1.75024 2.93339C1.84305 2.93344 1.9321 2.89481 1.99776 2.82602C2.06338 2.75727 2.10026 2.66398 2.10026 2.5667C2.09845 1.60979 2.80075 0.813059 3.7114 0.738895C4.62206 0.664688 5.43345 1.33814 5.57291 2.28384C4.43138 2.64911 3.65427 3.75625 3.66169 5.00664ZM6.65016 21.2667H5.95016V17.6941C6.07558 17.5717 6.19256 17.4402 6.30014 17.3004C6.40772 17.4402 6.5247 17.5717 6.65012 17.6941L6.65016 21.2667ZM6.69265 16.6074L8.99757 14.1926C9.13214 14.0491 9.13111 13.8188 8.99535 13.6765C8.85959 13.5342 8.63971 13.5332 8.50268 13.6742L6.65016 15.6149V11.8852L8.29756 10.1593C8.43275 10.0159 8.43209 9.78502 8.29601 9.64245C8.15996 9.49992 7.93959 9.49919 7.80264 9.64081L6.65012 10.8482V9.16674C6.65012 8.96423 6.4934 8.80009 6.30014 8.80009C6.10684 8.80009 5.95016 8.96427 5.95016 9.16674V10.8482L4.79764 9.64081C4.66073 9.49919 4.44036 9.49992 4.30427 9.64245C4.16819 9.78497 4.16753 10.0158 4.30271 10.1593L5.95012 11.8852V15.6149L4.0976 13.6742C3.96069 13.5325 3.74032 13.5333 3.60423 13.6758C3.46819 13.8183 3.46749 14.0492 3.60267 14.1927L5.90759 16.6074C5.39519 17.4508 4.50824 17.963 3.55395 17.9667C1.95281 17.9372 0.676385 16.5559 0.700173 14.8784C0.685326 13.5518 1.48569 12.3653 2.68427 11.9371C2.80014 11.8971 2.88774 11.7968 2.91547 11.6723C2.94319 11.5479 2.90698 11.4173 2.81999 11.3277C2.33888 10.8329 2.0695 10.1552 2.07319 9.44887C2.0503 8.04977 3.10648 6.89193 4.44163 6.85249C4.58613 6.86585 4.72422 6.78748 4.79247 6.65337C4.85215 6.53014 4.84046 6.38219 4.76225 6.27095C4.50283 5.90537 4.36239 5.46215 4.36165 5.00659C4.34459 3.86612 5.21156 2.92622 6.3001 2.90508C7.38867 2.92622 8.25565 3.86612 8.23854 5.00659C8.23781 5.46215 8.09737 5.90537 7.83795 6.27095C7.76134 6.38314 7.75174 6.531 7.81318 6.65303C7.87503 6.77682 7.9975 6.85425 8.13088 6.8539C9.47572 6.87926 10.5474 8.03989 10.527 9.44887C10.5307 10.1552 10.2613 10.8329 9.78021 11.3277C9.69318 11.4173 9.657 11.5479 9.68473 11.6723C9.71245 11.7968 9.80006 11.8971 9.91593 11.9371C11.2602 12.4296 12.0796 13.8545 11.8668 15.3296C11.654 16.8047 10.4693 17.9124 9.04625 17.9667C8.09196 17.963 7.20505 17.4508 6.69265 16.6074ZM19.5999 21.2667H14V20.1667H19.5999V21.2667ZM19.5999 19.4334H14V19.0667H19.5999V19.4334ZM19.5999 18.3334H14V17.2334H19.5999V18.3334Z" fill="#BD9B60"/>
<path d="M15.05 9.16674H19.2499C20.1523 9.1667 20.9068 8.44779 20.9921 7.5066C21.0773 6.56541 20.4655 5.71059 19.5792 5.53266C19.4191 4.2552 18.3798 3.30009 17.15 3.30009C15.9201 3.30009 14.8809 4.2552 14.7207 5.53266C13.8344 5.71059 13.2226 6.56541 13.3079 7.5066C13.3931 8.44779 14.1476 9.1667 15.05 9.16674ZM15.05 6.23339C15.1428 6.23344 15.2319 6.19481 15.2975 6.12602C15.3632 6.05727 15.4 5.96398 15.4 5.8667C15.4 4.85418 16.1835 4.03335 17.15 4.03335C18.1165 4.03335 18.9 4.85414 18.9 5.8667C18.9 5.96394 18.9368 6.05722 19.0025 6.12602C19.0681 6.19477 19.1572 6.23339 19.25 6.23339C19.8299 6.23339 20.3 6.7259 20.3 7.33339C20.3 7.94089 19.8299 8.43339 19.25 8.43339H15.0501C14.4702 8.43339 14.0001 7.94093 14.0001 7.33339C14.0001 6.72586 14.4701 6.23339 15.05 6.23339Z" fill="#BD9B60"/>
</svg>
