<svg width="24" height="18" viewBox="0 0 24 18" fill="none" xmlns="http://www.w3.org/2000/svg">
<path d="M23.7478 8.05696L10.1879 0.301493C9.14199 -0.297664 7.7104 0.025352 7.02092 1.01207L4.39402 4.76742C4.13621 5.13642 3.99999 5.56893 3.99999 6.01903C3.99999 6.79659 4.41798 7.52085 5.0903 7.90889L7.95011 9.56043L7.43351 10.2498C7.15372 10.6227 6.99992 11.085 6.99992 11.5513C6.99992 12.0308 7.17551 12.4818 7.45835 12.8547L6.6972 14H2.99997V12.495C2.99997 12.2184 2.77633 12 2.49996 12H0.500011C0.223639 12 0 12.2184 0 12.495V17.4996C0 17.7762 0.223639 18 0.500011 18H2.50001C2.77638 18 3.00002 17.7762 3.00002 17.4996V17H6.69725C7.70262 17 8.6357 16.5006 9.19332 15.6635L10.0129 14.433C10.1707 14.4673 10.3299 14.4983 10.4926 14.4983C11.2885 14.4983 12.0375 14.0741 12.4467 13.3909L12.9961 12.4745L17.2513 14.9319C17.328 14.9764 17.4144 14.9988 17.5013 14.9988C17.5497 14.9988 17.598 14.992 17.6454 14.9778C17.7772 14.9377 17.8871 14.8454 17.9486 14.7222L18.3188 13.9802C18.3795 13.9848 18.438 13.998 18.4998 13.998C20.4295 13.998 21.9998 12.4262 21.9998 10.4948C21.9998 10.2827 21.9685 10.0641 21.922 9.84065L23.7235 8.9392C23.8885 8.85661 23.9944 8.68996 23.9998 8.50523C24.0047 8.32087 23.908 8.14837 23.7478 8.05696ZM2 17H0.999975V13H1.99995L2 17ZM8.36125 15.1109C7.98968 15.6685 7.3676 16.0015 6.6972 16.0015H2.99997V15.0015H6.6972C7.03315 15.0015 7.34417 14.835 7.52923 14.5562L8.22161 13.5172L9.08026 14.0323L8.36125 15.1109ZM11.5893 12.8804C11.2397 13.4619 10.4169 13.6689 9.83489 13.3188L8.56684 12.5581C8.21725 12.3486 7.99994 11.9648 7.99994 11.5571C7.99994 11.3062 8.08296 11.0576 8.23333 10.8564L8.82226 10.0712L12.1297 11.9796L11.5893 12.8804ZM17.2913 13.8032L5.58979 7.05173C5.22605 6.84178 4.99997 6.45018 4.99997 6.02976C4.99997 5.7861 5.0737 5.5522 5.21334 5.35251L6.46869 3.55954L18.842 10.6979L17.2913 13.8032ZM18.8258 12.9685L19.8724 10.8725L20.9831 10.3172C20.9887 10.3786 20.9998 10.4421 20.9998 10.5014C20.9998 11.7682 20.049 12.8068 18.8258 12.9685ZM19.5168 9.93243L7.0445 2.73712L7.84029 1.60059C8.10349 1.2246 8.53412 0.999977 8.99312 0.999977C9.23776 0.999977 9.47944 1.06396 9.69183 1.18551L22.4407 8.47068L19.5168 9.93243Z" fill="#BD9B60"/>
<path d="M16.4998 12C16.776 12 16.9999 11.7761 16.9999 11.5C16.9999 11.2238 16.776 11 16.4998 11C16.2237 11 15.9998 11.2238 15.9998 11.5C15.9998 11.7761 16.2237 12 16.4998 12Z" fill="#BD9B60"/>
</svg>
