<svg width="19" height="19" viewBox="0 0 19 19" fill="none" xmlns="http://www.w3.org/2000/svg">
<path d="M17.7045 3.45453C16.9901 3.45453 16.409 4.03562 16.409 4.74998V5.18181H12.9545V1.29545C12.9545 0.581091 12.3734 0 11.659 0C10.9447 0 10.3636 0.581091 10.3636 1.29545V1.72728H2.5909V1.29545C2.5909 0.581091 2.00981 0 1.29545 0C0.58109 0 0 0.581091 0 1.29545V18.5682C0 18.8069 0.193144 19 0.43183 19H2.15911C2.3978 19 2.59094 18.8069 2.59094 18.5682V4.31819H4.31822V6.98864C3.81668 7.1675 3.4546 7.64232 3.4546 8.20455C3.4546 8.91891 4.03569 9.5 4.75005 9.5C5.46441 9.5 6.0455 8.91891 6.0455 8.20455C6.0455 7.64232 5.68342 7.1675 5.18188 6.98864V4.31819H7.77278V6.98864C7.27124 7.1675 6.90916 7.64232 6.90916 8.20455C6.90916 8.91891 7.49025 9.5 8.20461 9.5C8.91897 9.5 9.50006 8.91891 9.50006 8.20455C9.50006 7.64232 9.13798 7.1675 8.63644 6.98864V4.31819H10.3636V18.5682C10.3636 18.8069 10.5567 19 10.7954 19H12.5227C12.7614 19 12.9545 18.8069 12.9545 18.5682V7.77272H16.4091V18.5682C16.4091 18.8069 16.6022 19 16.8409 19H18.5682C18.8069 19 19 18.8069 19 18.5682V4.74998C18.9999 4.03562 18.4188 3.45453 17.7045 3.45453ZM2.15907 3.45453C1.92038 3.45453 1.72724 3.64767 1.72724 3.88636V18.1363H0.86362V1.29545C0.86362 1.05721 1.05717 0.863622 1.29545 0.863622C1.53369 0.863622 1.72728 1.05717 1.72728 1.29545V2.15907C1.72728 2.39776 1.92038 2.59091 2.15907 2.59091H4.31814V3.45453H2.15907ZM4.74997 8.63634C4.51173 8.63634 4.31814 8.44279 4.31814 8.20451C4.31814 7.96622 4.51173 7.77272 4.74997 7.77272C4.98821 7.77272 5.1818 7.96626 5.1818 8.20455C5.1818 8.44283 4.98825 8.63634 4.74997 8.63634ZM5.1818 3.45453V2.59091H7.7727V3.45453H5.1818ZM8.20453 8.63634C7.96629 8.63634 7.7727 8.44279 7.7727 8.20451C7.7727 7.96622 7.96625 7.77272 8.20453 7.77272C8.44281 7.77272 8.63636 7.96626 8.63636 8.20455C8.63636 8.44283 8.44277 8.63634 8.20453 8.63634ZM18.1363 18.1363H17.2727V7.34088C17.2727 7.1022 17.0795 6.90905 16.8408 6.90905H12.5227C12.284 6.90905 12.0908 7.1022 12.0908 7.34088V18.1363H11.2272V3.88636C11.2272 3.64767 11.0341 3.45453 10.7954 3.45453H8.63632V2.59091H10.7954C11.0341 2.59091 11.2272 2.39776 11.2272 2.15907V1.29545C11.2272 1.05721 11.4208 0.863622 11.659 0.863622C11.8973 0.863622 12.0909 1.05717 12.0909 1.29545V5.61364C12.0909 5.85233 12.284 6.04547 12.5227 6.04547H16.8408C17.0795 6.04547 17.2727 5.85233 17.2727 5.61364V4.75002C17.2727 4.51178 17.4662 4.31819 17.7045 4.31819C17.9428 4.31819 18.1363 4.51174 18.1363 4.74998V18.1363Z" fill="#BD9B60"/>
</svg>
